<?xml version="1.0" encoding="UTF-8"?>
<!DOCTYPE svg PUBLIC "-//W3C//DTD SVG 1.1//EN" "http://www.w3.org/Graphics/SVG/1.1/DTD/svg11.dtd">
<svg xmlns="http://www.w3.org/2000/svg" version="1.1" width="512px" height="512px" style="shape-rendering:geometricPrecision; text-rendering:geometricPrecision; image-rendering:optimizeQuality; fill-rule:evenodd; clip-rule:evenodd" xmlns:xlink="http://www.w3.org/1999/xlink">
<g><path style="opacity:0.994" fill="#ff4b25" d="M 255.5,20.5 C 255.5,51.1667 255.5,81.8333 255.5,112.5C 202.024,114.559 161.358,138.225 133.5,183.5C 106.833,168.167 80.1667,152.833 53.5,137.5C 86.5815,80.9272 134.915,44.0939 198.5,27C 217.215,22.3095 236.215,20.1428 255.5,20.5 Z"/></g>
<g><path style="opacity:1" fill="#d93f21" d="M 255.5,20.5 C 315.517,20.6131 367.684,40.6131 412,80.5C 415.333,86.5 415.333,92.5 412,98.5C 396.167,114.333 380.333,130.167 364.5,146C 358.815,149.228 353.148,149.228 347.5,146C 320.942,123.902 290.275,112.736 255.5,112.5C 255.5,81.8333 255.5,51.1667 255.5,20.5 Z"/></g>
<g><path style="opacity:0.993" fill="#fed400" d="M 53.5,137.5 C 80.1667,152.833 106.833,168.167 133.5,183.5C 108.191,230.801 108.191,278.135 133.5,325.5C 106.833,340.5 80.1667,355.5 53.5,370.5C 22.6286,315.898 14.4619,257.898 29,196.5C 34.3647,175.547 42.5314,155.88 53.5,137.5 Z"/></g>
<g><path style="opacity:0.992" fill="#167de6" d="M 372.5,456.5 C 357.5,429.833 342.5,403.167 327.5,376.5C 355.014,359.649 375.014,336.316 387.5,306.5C 351.171,305.667 314.838,305.167 278.5,305C 271.631,303.464 267.464,299.298 266,292.5C 265.333,270.167 265.333,247.833 266,225.5C 267.618,218.216 272.118,214.049 279.5,213C 344.167,212.333 408.833,212.333 473.5,213C 478.151,213.742 481.984,215.908 485,219.5C 498.507,307.656 471.007,380.156 402.5,437C 393.139,444.537 383.139,451.037 372.5,456.5 Z"/></g>
<g><path style="opacity:0.994" fill="#12b246" d="M 133.5,325.5 C 162.049,370.286 203.049,393.619 256.5,395.5C 256.5,426.167 256.5,456.833 256.5,487.5C 182.363,486.677 121.529,458.011 74,401.5C 66.1525,391.796 59.3192,381.462 53.5,370.5C 80.1667,355.5 106.833,340.5 133.5,325.5 Z"/></g>
<g><path style="opacity:1" fill="#0f993e" d="M 327.5,376.5 C 342.5,403.167 357.5,429.833 372.5,456.5C 336.89,477.738 298.223,488.071 256.5,487.5C 256.5,456.833 256.5,426.167 256.5,395.5C 281.772,395.075 305.439,388.741 327.5,376.5 Z"/></g>
</svg>
