<?xml version="1.0" encoding="UTF-8"?>
<!DOCTYPE svg PUBLIC "-//W3C//DTD SVG 1.1//EN" "http://www.w3.org/Graphics/SVG/1.1/DTD/svg11.dtd">
<svg xmlns="http://www.w3.org/2000/svg" version="1.1" width="512px" height="512px" style="shape-rendering:geometricPrecision; text-rendering:geometricPrecision; image-rendering:optimizeQuality; fill-rule:evenodd; clip-rule:evenodd" xmlns:xlink="http://www.w3.org/1999/xlink">
<g><path style="opacity:0.804" fill="#231625" d="M 194.5,19.5 C 212.114,19.8682 229.447,22.2016 246.5,26.5C 247.614,27.723 247.781,29.0563 247,30.5C 244.781,33.3605 241.947,35.3605 238.5,36.5C 237.67,42.4725 237.17,48.4725 237,54.5C 234.279,55.6611 231.946,54.9944 230,52.5C 229.308,55.9364 228.308,59.2698 227,62.5C 225.493,63.5348 223.993,63.3681 222.5,62C 212.561,50.0616 203.394,37.5616 195,24.5C 194.506,22.8659 194.34,21.1992 194.5,19.5 Z M 209.5,24.5 C 220.844,24.336 232.177,25.836 243.5,29C 241.007,31.0803 238.341,32.9136 235.5,34.5C 227.034,30.5984 218.367,27.2651 209.5,24.5 Z M 208.5,28.5 C 208.56,27.9569 208.893,27.6236 209.5,27.5C 217.388,30.9437 225.388,34.1103 233.5,37C 234.635,41.7477 234.802,46.581 234,51.5C 231.312,48.8291 229.812,45.4957 229.5,41.5C 222.64,36.9051 215.64,32.5717 208.5,28.5 Z M 202.5,28.5 C 210.97,33.8045 219.303,39.3045 227.5,45C 226.812,49.8546 225.979,54.688 225,59.5C 216.502,49.8158 209.002,39.4825 202.5,28.5 Z"/></g>
<g><path style="opacity:0.988" fill="#e17b8d" d="M 109.5,19.5 C 127.321,19.1631 144.321,22.6631 160.5,30C 167.741,37.7029 171.907,46.8696 173,57.5C 175.693,73.7974 176.027,90.1307 174,106.5C 170.526,116.641 163.693,123.474 153.5,127C 145.991,129.535 138.325,131.368 130.5,132.5C 132.469,136.288 133.636,140.288 134,144.5C 104.311,148.048 78.6441,139.381 57,118.5C 45.6838,99.9076 42.3505,79.9076 47,58.5C 49.9704,40.1977 60.4704,29.031 78.5,25C 88.8264,22.2805 99.1597,20.4471 109.5,19.5 Z"/></g>
<g><path style="opacity:0.712" fill="#231625" d="M 401.5,26.5 C 403.527,26.3379 405.527,26.5045 407.5,27C 407.957,27.414 408.291,27.914 408.5,28.5C 405.833,29.8333 403.167,29.8333 400.5,28.5C 400.863,27.8165 401.196,27.1499 401.5,26.5 Z"/></g>
<g><path style="opacity:0.736" fill="#241625" d="M 395.5,27.5 C 396.833,27.5 398.167,27.5 399.5,27.5C 399.719,28.675 399.386,29.675 398.5,30.5C 396.941,31.0736 395.441,31.7402 394,32.5C 392.12,30.2362 392.62,28.5696 395.5,27.5 Z"/></g>
<g><path style="opacity:0.756" fill="#231624" d="M 409.5,27.5 C 411.861,27.6741 414.194,28.0074 416.5,28.5C 416.5,29.5 416.5,30.5 416.5,31.5C 414.139,31.3259 411.806,30.9926 409.5,30.5C 409.5,29.5 409.5,28.5 409.5,27.5 Z"/></g>
<g><path style="opacity:0.724" fill="#211522" d="M 346.5,30.5 C 355.001,30.334 355.501,31.6673 348,34.5C 346.812,33.4366 346.312,32.1033 346.5,30.5 Z"/></g>
<g><path style="opacity:0.912" fill="#221624" d="M 355.5,29.5 C 358.969,28.8872 360.969,30.2206 361.5,33.5C 358.941,33.6104 356.608,32.9438 354.5,31.5C 354.863,30.8165 355.196,30.1499 355.5,29.5 Z"/></g>
<g><path style="opacity:0.718" fill="#241626" d="M 417.5,30.5 C 421.192,30.3243 423.192,31.9909 423.5,35.5C 420.243,35.2363 418.243,33.5696 417.5,30.5 Z"/></g>
<g><path style="opacity:0.815" fill="#211523" d="M 370.5,34.5 C 367.541,35.2517 364.874,34.4184 362.5,32C 363.025,31.3076 363.692,30.8076 364.5,30.5C 366.115,31.154 367.782,31.654 369.5,32C 370.252,32.6708 370.586,33.5041 370.5,34.5 Z"/></g>
<g><path style="opacity:0.879" fill="#211522" d="M 386.5,37.5 C 385.251,35.1715 385.918,33.3382 388.5,32C 390.074,31.3013 391.407,31.6346 392.5,33C 390.886,35.1267 388.886,36.6267 386.5,37.5 Z"/></g>
<g><path style="opacity:1" fill="#f7e8eb" d="M 98.5,32.5 C 99.7498,32.5774 100.583,33.244 101,34.5C 102.255,39.5073 102.422,44.5073 101.5,49.5C 99.8504,43.9543 98.8504,38.2876 98.5,32.5 Z"/></g>
<g><path style="opacity:0.778" fill="#231624" d="M 342.5,32.5 C 343.5,32.5 344.5,32.5 345.5,32.5C 345.2,35.518 343.533,37.518 340.5,38.5C 339.5,38.1667 338.833,37.5 338.5,36.5C 339.549,34.7844 340.882,33.4511 342.5,32.5 Z"/></g>
<g><path style="opacity:0.754" fill="#221624" d="M 370.5,34.5 C 374.115,33.4766 376.449,34.8099 377.5,38.5C 374.386,38.4452 372.052,37.1119 370.5,34.5 Z"/></g>
<g><path style="opacity:0.873" fill="#231624" d="M 429.5,41.5 C 426.379,40.7124 424.712,38.7124 424.5,35.5C 428.562,35.8688 430.229,37.8688 429.5,41.5 Z"/></g>
<g><path style="opacity:1" fill="#f8f0f2" d="M 117.5,36.5 C 118.376,36.3691 119.043,36.7025 119.5,37.5C 118.284,41.3213 116.784,44.9879 115,48.5C 114.683,44.2783 115.516,40.2783 117.5,36.5 Z"/></g>
<g><path style="opacity:0.815" fill="#241726" d="M 386.5,37.5 C 384.332,46.2881 381.665,46.6214 378.5,38.5C 379.822,38.33 380.989,38.6634 382,39.5C 383.11,37.9632 384.61,37.2965 386.5,37.5 Z"/></g>
<g><path style="opacity:0.795" fill="#231625" d="M 336.5,38.5 C 337.756,38.4614 338.756,38.9614 339.5,40C 338.442,43.2909 336.442,44.4576 333.5,43.5C 334.26,41.6396 335.26,39.973 336.5,38.5 Z"/></g>
<g><path style="opacity:0.744" fill="#211522" d="M 288.5,42.5 C 289.5,42.5 290.5,42.5 291.5,42.5C 291.236,45.7571 289.57,47.7571 286.5,48.5C 286.253,46.1417 286.919,44.1417 288.5,42.5 Z"/></g>
<g><path style="opacity:0.73" fill="#241625" d="M 293.5,41.5 C 296.89,41.7359 298.724,43.4026 299,46.5C 298.586,46.9574 298.086,47.2907 297.5,47.5C 296.3,46.4688 294.966,45.6355 293.5,45C 292.316,43.8545 292.316,42.6879 293.5,41.5 Z"/></g>
<g><path style="opacity:0.724" fill="#211522" d="M 429.5,41.5 C 433.316,42.0897 434.983,44.4231 434.5,48.5C 431.165,47.5392 429.499,45.2059 429.5,41.5 Z"/></g>
<g><path style="opacity:0.704" fill="#231625" d="M 384.5,44.5 C 387.451,45.8094 388.784,48.1427 388.5,51.5C 384.81,50.4488 383.477,48.1155 384.5,44.5 Z"/></g>
<g><path style="opacity:0.741" fill="#251627" d="M 382.5,52.5 C 381.504,52.5858 380.671,52.2524 380,51.5C 379.505,49.5273 379.338,47.5273 379.5,45.5C 380.5,45.5 381.5,45.5 382.5,45.5C 382.5,47.8333 382.5,50.1667 382.5,52.5 Z"/></g>
<g><path style="opacity:0.849" fill="#231725" d="M 332.5,45.5 C 333.586,45.62 334.253,46.2867 334.5,47.5C 333.954,49.1347 333.62,50.8014 333.5,52.5C 332.5,52.5 331.5,52.5 330.5,52.5C 330.394,49.9214 331.061,47.588 332.5,45.5 Z"/></g>
<g><path style="opacity:1" fill="#f7ecee" d="M 77.5,44.5 C 80.4358,46.2553 83.2691,48.2553 86,50.5C 86.6667,51.5 86.6667,52.5 86,53.5C 82.2637,51.2663 79.4304,48.2663 77.5,44.5 Z"/></g>
<g><path style="opacity:0.751" fill="#241626" d="M 296.5,48.5 C 297.756,48.4614 298.756,48.9614 299.5,50C 298.521,52.1373 297.188,53.9706 295.5,55.5C 294.5,55.1667 293.833,54.5 293.5,53.5C 294.763,51.9713 295.763,50.3046 296.5,48.5 Z"/></g>
<g><path style="opacity:1" fill="#f8eef0" d="M 134.5,45.5 C 136.355,45.272 137.188,45.9387 137,47.5C 134.305,49.6944 131.472,51.6944 128.5,53.5C 127.479,52.9984 127.312,52.3317 128,51.5C 130.664,50.0016 132.83,48.0016 134.5,45.5 Z"/></g>
<g><path style="opacity:0.757" fill="#211623" d="M 433.5,49.5 C 434.675,49.281 435.675,49.6143 436.5,50.5C 437.348,52.4086 437.682,54.4086 437.5,56.5C 436.5,56.5 435.5,56.5 434.5,56.5C 434.007,54.1944 433.674,51.861 433.5,49.5 Z"/></g>
<g><path style="opacity:0.828" fill="#231625" d="M 480.5,49.5 C 484.369,49.8506 487.869,51.1839 491,53.5C 494.49,51.171 498.323,50.171 502.5,50.5C 502.588,54.3055 501.921,57.9722 500.5,61.5C 503.215,64.2139 505.549,67.2139 507.5,70.5C 507.291,71.086 506.957,71.586 506.5,72C 503.5,72.3333 500.5,72.6667 497.5,73C 496.59,76.7638 494.756,79.9304 492,82.5C 488.736,78.9716 486.236,74.9716 484.5,70.5C 480.417,69.8515 476.583,68.5182 473,66.5C 472.333,65.5 472.333,64.5 473,63.5C 475.333,62.1667 477.667,60.8333 480,59.5C 479.546,56.104 479.713,52.7706 480.5,49.5 Z M 483.5,53.5 C 487.094,54.5615 487.26,55.8948 484,57.5C 483.51,56.2068 483.343,54.8734 483.5,53.5 Z M 498.5,54.5 C 498.42,60.417 496.754,60.917 493.5,56C 495.025,54.9914 496.692,54.4914 498.5,54.5 Z M 489.5,57.5 C 491.546,59.2789 493.713,60.9456 496,62.5C 497.067,65.598 496.067,67.598 493,68.5C 488.073,68.7387 485.573,66.4054 485.5,61.5C 486.437,59.712 487.77,58.3786 489.5,57.5 Z M 480.5,62.5 C 484.623,66.6992 483.623,67.5326 477.5,65C 478.571,64.1482 479.571,63.3149 480.5,62.5 Z M 499.5,66.5 C 503.661,69.216 503.327,69.8827 498.5,68.5C 498.863,67.8165 499.196,67.1499 499.5,66.5 Z M 489.5,71.5 C 491.199,71.3398 492.866,71.5065 494.5,72C 493.671,73.8161 492.837,75.6494 492,77.5C 490.878,75.5932 490.045,73.5932 489.5,71.5 Z"/></g>
<g><path style="opacity:0.782" fill="#231725" d="M 298.5,62.5 C 295.579,62.8541 293.246,61.8541 291.5,59.5C 290.264,60.2458 288.93,60.5792 287.5,60.5C 287.48,58.857 288.147,57.5237 289.5,56.5C 287.69,54.2927 287.357,51.9593 288.5,49.5C 291.85,53.8466 295.184,58.1799 298.5,62.5 Z"/></g>
<g><path style="opacity:0.742" fill="#221723" d="M 382.5,52.5 C 384.205,53.5353 385.872,53.5353 387.5,52.5C 388.429,53.6888 388.762,55.0222 388.5,56.5C 386.5,56.5 384.5,56.5 382.5,56.5C 382.5,55.1667 382.5,53.8333 382.5,52.5 Z"/></g>
<g><path style="opacity:1" fill="#f9fafb" d="M 125.5,99.5 C 124.167,99.8333 122.833,100.167 121.5,100.5C 121.582,92.8287 120.082,85.4954 117,78.5C 112.136,72.6765 108.969,73.3432 107.5,80.5C 103.435,79.5775 101.102,81.0775 100.5,85C 101.963,91.7514 104.629,97.9181 108.5,103.5C 106.786,104.738 104.786,105.405 102.5,105.5C 102.372,103.91 101.705,102.577 100.5,101.5C 83.2473,98.6881 76.7473,88.6881 81,71.5C 89.4366,53.3721 102.937,48.2055 121.5,56C 131.307,60.4476 135.14,67.9476 133,78.5C 131.47,83.8918 129.137,88.8918 126,93.5C 125.939,95.6862 125.772,97.6862 125.5,99.5 Z"/></g>
<g><path style="opacity:0.761" fill="#231825" d="M 254.5,59.5 C 250.833,59.1667 248.833,57.1667 248.5,53.5C 252.167,53.8333 254.167,55.8333 254.5,59.5 Z"/></g>
<g><path style="opacity:0.736" fill="#241726" d="M 328.5,53.5 C 329.5,53.5 330.5,53.5 331.5,53.5C 331.894,56.7123 330.728,59.0456 328,60.5C 327.5,60.1667 327,59.8333 326.5,59.5C 327.372,57.5504 328.039,55.5504 328.5,53.5 Z"/></g>
<g><path style="opacity:1" fill="#f7ecee" d="M 153.5,57.5 C 155.233,58.0076 155.566,58.841 154.5,60C 148.554,61.6577 142.554,62.6577 136.5,63C 142.091,60.6908 147.757,58.8575 153.5,57.5 Z"/></g>
<g><path style="opacity:0.738" fill="#231625" d="M 435.5,57.5 C 436.5,57.5 437.5,57.5 438.5,57.5C 438.674,59.861 439.007,62.1944 439.5,64.5C 438.325,64.719 437.325,64.3857 436.5,63.5C 435.652,61.5914 435.318,59.5914 435.5,57.5 Z"/></g>
<g><path style="opacity:0.745" fill="#241826" d="M 254.5,59.5 C 258.115,58.4766 260.449,59.8099 261.5,63.5C 259.436,63.313 257.436,62.813 255.5,62C 254.748,61.3292 254.414,60.4959 254.5,59.5 Z"/></g>
<g><path style="opacity:1" fill="#f8eff1" d="M 65.5,61.5 C 70.5428,60.3661 75.5428,61.0327 80.5,63.5C 75.382,64.138 70.382,63.4713 65.5,61.5 Z"/></g>
<g><path style="opacity:0.785" fill="#221624" d="M 284.5,59.5 C 286.225,59.8425 286.725,60.8425 286,62.5C 283.652,64.9326 281.485,64.9326 279.5,62.5C 281.145,61.3037 282.811,60.3037 284.5,59.5 Z"/></g>
<g><path style="opacity:1" fill="#362a38" d="M 107.5,56.5 C 115.296,55.4026 121.296,58.0693 125.5,64.5C 125.167,64.8333 124.833,65.1667 124.5,65.5C 123.002,63.1708 121.002,61.3375 118.5,60C 114.414,59.4058 110.748,58.2391 107.5,56.5 Z"/></g>
<g><path style="opacity:0.814" fill="#231524" d="M 263.5,61.5 C 266.059,61.3896 268.392,62.0562 270.5,63.5C 268.024,65.9162 265.357,65.9162 262.5,63.5C 262.863,62.8165 263.196,62.1499 263.5,61.5 Z"/></g>
<g><path style="opacity:0.66" fill="#211523" d="M 324.5,61.5 C 325.5,61.5 326.5,61.5 327.5,61.5C 327.981,65.3491 326.314,67.3491 322.5,67.5C 322.704,65.3146 323.37,63.3146 324.5,61.5 Z"/></g>
<g><path style="opacity:0.701" fill="#241725" d="M 271.5,62.5 C 273.833,62.5 276.167,62.5 278.5,62.5C 278.5,63.5 278.5,64.5 278.5,65.5C 276.167,65.5 273.833,65.5 271.5,65.5C 271.5,64.5 271.5,63.5 271.5,62.5 Z"/></g>
<g><path style="opacity:0.693" fill="#221625" d="M 298.5,62.5 C 300.655,62.372 302.655,62.872 304.5,64C 305.821,65.5445 305.488,66.7112 303.5,67.5C 300.788,66.788 299.121,65.1213 298.5,62.5 Z"/></g>
<g><path style="opacity:0.734" fill="#231725" d="M 306.5,65.5 C 308.564,65.687 310.564,66.187 312.5,67C 313.821,68.5445 313.488,69.7112 311.5,70.5C 308.196,70.3223 306.529,68.6557 306.5,65.5 Z"/></g>
<g><path style="opacity:0.697" fill="#231725" d="M 319.5,66.5 C 321.085,67.0024 321.585,68.0024 321,69.5C 319.301,70.4061 317.467,70.7394 315.5,70.5C 315.5,69.5 315.5,68.5 315.5,67.5C 317.099,67.7678 318.432,67.4345 319.5,66.5 Z"/></g>
<g><path style="opacity:1" fill="#3c303d" d="M 125.5,67.5 C 126.496,67.4142 127.329,67.7476 128,68.5C 128.818,71.2272 128.652,73.8938 127.5,76.5C 126.647,73.5224 125.981,70.5224 125.5,67.5 Z"/></g>
<g><path style="opacity:0.813" fill="#231625" d="M 213.5,73.5 C 214.552,73.3505 215.552,73.5172 216.5,74C 217.525,76.0715 218.358,78.2381 219,80.5C 220.932,82.0383 223.099,83.205 225.5,84C 226.833,85.3333 226.833,86.6667 225.5,88C 223.754,88.4709 222.087,89.1376 220.5,90C 218.697,93.1033 216.53,95.9367 214,98.5C 211.563,96.0271 210.396,93.0271 210.5,89.5C 207.15,89.4944 204.15,88.4944 201.5,86.5C 204.362,83.8125 207.528,81.4791 211,79.5C 211.573,77.3594 212.406,75.3594 213.5,73.5 Z M 214.5,78.5 C 215.306,79.9972 215.972,81.6639 216.5,83.5C 218.113,84.4274 219.779,85.2607 221.5,86C 217.766,86.7335 215.266,88.9001 214,92.5C 214.166,87.9999 212,85.8333 207.5,86C 211.391,84.9429 213.724,82.4429 214.5,78.5 Z"/></g>
<g><path style="opacity:1" fill="#f8eff1" d="M 138.5,74.5 C 142.892,74.7574 147.225,75.4241 151.5,76.5C 148.216,77.657 144.882,77.8236 141.5,77C 139.881,76.7645 138.881,75.9311 138.5,74.5 Z"/></g>
<g><path style="opacity:1" fill="#f8f2f4" d="M 63.5,76.5 C 67.226,76.1774 70.8927,76.5108 74.5,77.5C 72.6667,77.8333 70.8333,78.1667 69,78.5C 66.7047,78.4535 64.8714,77.7868 63.5,76.5 Z"/></g>
<g><path style="opacity:1" fill="#f5f6f7" d="M 119.5,96.5 C 119.5,98.1667 119.5,99.8333 119.5,101.5C 116.37,101.7 113.37,102.366 110.5,103.5C 106.262,97.1227 103.595,90.1227 102.5,82.5C 104.167,82.5 105.833,82.5 107.5,82.5C 107.299,86.3604 108.965,88.1937 112.5,88C 113.782,85.2095 112.948,83.0429 110,81.5C 109.578,75.8792 111.245,75.2125 115,79.5C 117.908,84.7987 119.408,90.4654 119.5,96.5 Z"/></g>
<g><path style="opacity:1" fill="#362a37" d="M 121.5,100.5 C 120.833,99.1667 120.167,97.8333 119.5,96.5C 119.408,90.4654 117.908,84.7987 115,79.5C 111.245,75.2125 109.578,75.8792 110,81.5C 112.948,83.0429 113.782,85.2095 112.5,88C 108.965,88.1937 107.299,86.3604 107.5,82.5C 105.833,82.5 104.167,82.5 102.5,82.5C 103.595,90.1227 106.262,97.1227 110.5,103.5C 109.833,103.5 109.167,103.5 108.5,103.5C 104.629,97.9181 101.963,91.7514 100.5,85C 101.102,81.0775 103.435,79.5775 107.5,80.5C 108.969,73.3432 112.136,72.6765 117,78.5C 120.082,85.4954 121.582,92.8287 121.5,100.5 Z"/></g>
<g><path style="opacity:1" fill="#f7ebee" d="M 137.5,89.5 C 141.847,90.9402 145.847,92.9402 149.5,95.5C 149.167,95.8333 148.833,96.1667 148.5,96.5C 145.048,95.2743 141.715,93.7743 138.5,92C 137.748,91.3292 137.414,90.4959 137.5,89.5 Z"/></g>
<g><path style="opacity:0.982" fill="#efbe02" d="M 468.5,120.5 C 467.5,120.5 466.5,120.5 465.5,120.5C 404.167,120.875 342.834,121.209 281.5,121.5C 280.209,121.263 279.209,121.596 278.5,122.5C 274.5,122.5 270.5,122.5 266.5,122.5C 266.5,112.167 266.5,101.833 266.5,91.5C 338.511,91.0799 410.511,90.4132 482.5,89.5C 481.96,99.8541 481.293,110.187 480.5,120.5C 476.5,120.5 472.5,120.5 468.5,120.5 Z"/></g>
<g><path style="opacity:1" fill="#f7ebee" d="M 75.5,90.5 C 77.5492,90.7058 77.8825,91.5391 76.5,93C 73.3272,95.0872 69.9939,96.9205 66.5,98.5C 66.1667,98.1667 65.8333,97.8333 65.5,97.5C 68.8624,95.157 72.1957,92.8236 75.5,90.5 Z"/></g>
<g><path style="opacity:1" fill="#2f1f24" d="M 422.5,100.5 C 425.572,100.183 428.572,100.516 431.5,101.5C 428.216,102.657 424.882,102.824 421.5,102C 422.056,101.617 422.389,101.117 422.5,100.5 Z"/></g>
<g><path style="opacity:1" fill="#503921" d="M 406.5,100.5 C 409.898,100.18 413.232,100.513 416.5,101.5C 414.833,101.833 413.167,102.167 411.5,102.5C 409.36,102.444 407.694,101.777 406.5,100.5 Z"/></g>
<g><path style="opacity:0.824" fill="#231625" d="M 7.5,103.5 C 11.5216,104.343 15.1883,106.01 18.5,108.5C 21.6245,106.423 24.9578,105.257 28.5,105C 29.5036,108.041 29.1703,111.041 27.5,114C 29.6003,116.1 31.7669,118.267 34,120.5C 34.49,121.793 34.6567,123.127 34.5,124.5C 30.181,125.035 25.8477,125.535 21.5,126C 19.6227,128.251 18.1227,130.751 17,133.5C 15.5402,136.21 13.5402,136.876 11,135.5C 10.304,132.522 9.80404,129.522 9.5,126.5C -1.5143,125.44 -2.34763,121.774 7,115.5C 6.26634,111.493 6.43301,107.493 7.5,103.5 Z M 9.5,107.5 C 15.0181,108.757 15.5181,110.757 11,113.5C 9.87201,111.655 9.37201,109.655 9.5,107.5 Z M 24.5,108.5 C 25.4646,109.721 25.298,111.054 24,112.5C 23.2496,111.874 22.4162,111.374 21.5,111C 22.5707,110.148 23.5707,109.315 24.5,108.5 Z M 17.5,112.5 C 23.5436,115.098 23.877,118.598 18.5,123C 16.1902,123.497 13.8568,123.663 11.5,123.5C 11.7394,121.533 11.4061,119.699 10.5,118C 12.9025,116.147 15.2359,114.314 17.5,112.5 Z M 24.5,118.5 C 26.9124,118.244 28.5791,119.244 29.5,121.5C 27.5,122.833 25.5,122.833 23.5,121.5C 24.1272,120.583 24.4606,119.583 24.5,118.5 Z M 6.5,120.5 C 8.22516,120.843 8.72516,121.843 8,123.5C 6.93257,122.809 5.76591,122.309 4.5,122C 5.4158,121.722 6.08247,121.222 6.5,120.5 Z M 12.5,126.5 C 13.9778,126.238 15.3112,126.571 16.5,127.5C 14.3348,132.831 13.0015,132.498 12.5,126.5 Z"/></g>
<g><path style="opacity:1" fill="#463123" d="M 436.5,101.5 C 440.05,101.133 443.05,102.133 445.5,104.5C 445.167,104.833 444.833,105.167 444.5,105.5C 442.556,104.811 440.556,104.311 438.5,104C 437.244,103.583 436.577,102.75 436.5,101.5 Z"/></g>
<g><path style="opacity:1" fill="#262541" d="M 119.5,96.5 C 120.167,97.8333 120.833,99.1667 121.5,100.5C 122.833,100.167 124.167,99.8333 125.5,99.5C 126.496,99.4142 127.329,99.7476 128,100.5C 128.981,102.96 129.815,105.46 130.5,108C 130.443,110.209 129.443,111.709 127.5,112.5C 126.209,112.263 125.209,112.596 124.5,113.5C 121.933,113.721 119.599,114.388 117.5,115.5C 115.5,115.833 113.5,116.167 111.5,116.5C 110.833,116.5 110.167,116.5 109.5,116.5C 107.712,116.785 106.045,116.452 104.5,115.5C 102.503,112.264 101.836,108.931 102.5,105.5C 104.786,105.405 106.786,104.738 108.5,103.5C 109.167,103.5 109.833,103.5 110.5,103.5C 113.37,102.366 116.37,101.7 119.5,101.5C 119.5,99.8333 119.5,98.1667 119.5,96.5 Z"/></g>
<g><path style="opacity:1" fill="#2c1d24" d="M 401.5,106.5 C 404.572,106.183 407.572,106.516 410.5,107.5C 409,107.833 407.5,108.167 406,108.5C 404.014,108.431 402.514,107.765 401.5,106.5 Z"/></g>
<g><path style="opacity:1" fill="#d8dce1" d="M 123.5,104.5 C 124.978,104.238 126.311,104.571 127.5,105.5C 120.729,108.457 113.729,110.79 106.5,112.5C 105.614,111.675 105.281,110.675 105.5,109.5C 111.819,108.611 117.819,106.944 123.5,104.5 Z"/></g>
<g><path style="opacity:1" fill="#2f1f24" d="M 431.5,107.5 C 434.572,107.183 437.572,107.516 440.5,108.5C 437.216,109.657 433.882,109.824 430.5,109C 431.056,108.617 431.389,108.117 431.5,107.5 Z"/></g>
<g><path style="opacity:1" fill="#f7ecee" d="M 86.5,103.5 C 88.0281,103.517 88.5281,104.184 88,105.5C 85.2888,108.042 82.7888,110.709 80.5,113.5C 79.5923,112.21 79.759,110.877 81,109.5C 83.0396,107.63 84.8729,105.63 86.5,103.5 Z"/></g>
<g><path style="opacity:1" fill="#644a20" d="M 417.5,107.5 C 420.898,107.18 424.232,107.513 427.5,108.5C 425.833,108.833 424.167,109.167 422.5,109.5C 420.36,109.444 418.694,108.777 417.5,107.5 Z"/></g>
<g><path style="opacity:0.987" fill="#1e203b" d="M 229.5,176.5 C 219.665,178.666 209.665,179.666 199.5,179.5C 185.504,178.667 171.504,178.5 157.5,179C 148.28,181.423 144.28,187.423 145.5,197C 146.378,206.855 147.378,216.688 148.5,226.5C 148.027,227.906 147.027,228.573 145.5,228.5C 138.311,227.84 134.145,231.174 133,238.5C 132.501,242.486 132.334,246.486 132.5,250.5C 119.916,245.054 112.75,235.387 111,221.5C 108.528,206.627 110.861,192.627 118,179.5C 123.976,171.686 131.809,167.019 141.5,165.5C 143.746,148.077 153.412,136.91 170.5,132C 183.439,127.798 196.439,123.798 209.5,120C 214.432,117.286 219.265,114.453 224,111.5C 227.256,112.422 229.589,114.422 231,117.5C 233.781,124.574 234.948,131.907 234.5,139.5C 238.941,138.076 243.441,136.743 248,135.5C 250.768,136.275 251.934,138.108 251.5,141C 249.583,156.36 242.25,168.194 229.5,176.5 Z"/></g>
<g><path style="opacity:1" fill="#d87b8d" d="M 124.5,113.5 C 126.189,120.014 124.856,120.847 120.5,116C 119.552,115.517 118.552,115.351 117.5,115.5C 119.599,114.388 121.933,113.721 124.5,113.5 Z"/></g>
<g><path style="opacity:1" fill="#e07e8f" d="M 117.5,115.5 C 117.5,117.833 117.5,120.167 117.5,122.5C 114.567,121.568 112.567,119.568 111.5,116.5C 113.5,116.167 115.5,115.833 117.5,115.5 Z"/></g>
<g><path style="opacity:1" fill="#f7edef" d="M 127.5,112.5 C 127.5,115.833 127.5,119.167 127.5,122.5C 124.821,122.327 122.487,121.327 120.5,119.5C 120.128,123.381 118.128,125.215 114.5,125C 112.18,122.522 110.514,119.689 109.5,116.5C 110.167,116.5 110.833,116.5 111.5,116.5C 112.567,119.568 114.567,121.568 117.5,122.5C 117.5,120.167 117.5,117.833 117.5,115.5C 118.552,115.351 119.552,115.517 120.5,116C 124.856,120.847 126.189,120.014 124.5,113.5C 125.209,112.596 126.209,112.263 127.5,112.5 Z"/></g>
<g><path style="opacity:1" fill="#fefdfd" d="M 465.5,120.5 C 466.539,157.83 467.539,195.164 468.5,232.5C 406.166,232.747 343.833,233.08 281.5,233.5C 281.5,196.167 281.5,158.833 281.5,121.5C 342.834,121.209 404.167,120.875 465.5,120.5 Z"/></g>
<g><path style="opacity:0.868" fill="#2e212f" d="M 465.5,120.5 C 466.5,120.5 467.5,120.5 468.5,120.5C 469.108,157.846 470.108,195.179 471.5,232.5C 470.5,232.5 469.5,232.5 468.5,232.5C 467.539,195.164 466.539,157.83 465.5,120.5 Z"/></g>
<g><path style="opacity:0.858" fill="#261928" d="M 281.5,121.5 C 281.5,158.833 281.5,196.167 281.5,233.5C 280.833,233.5 280.167,233.5 279.5,233.5C 279.379,196.498 279.045,159.498 278.5,122.5C 279.209,121.596 280.209,121.263 281.5,121.5 Z"/></g>
<g><path style="opacity:1" fill="#e17c8e" d="M 429.5,137.5 C 431.167,137.5 432.833,137.5 434.5,137.5C 433.63,152.903 432.13,168.236 430,183.5C 424.409,179.287 418.909,174.954 413.5,170.5C 398.181,185.319 383.014,200.319 368,215.5C 363.333,208.167 358.667,200.833 354,193.5C 353.439,192.978 352.772,192.645 352,192.5C 343.025,201.309 334.192,210.309 325.5,219.5C 318.726,212.135 312.059,204.635 305.5,197C 318.667,185.167 331.833,173.333 345,161.5C 351.333,169.5 357.667,177.5 364,185.5C 375.151,176.259 386.485,167.259 398,158.5C 395.063,153.215 390.897,148.715 385.5,145C 400.249,142.348 414.916,139.848 429.5,137.5 Z"/></g>
<g><path style="opacity:0.962" fill="#e17646" d="M 66.5,191.5 C 61.7436,187.456 56.4103,184.456 50.5,182.5C 51.0791,178.762 51.0791,175.096 50.5,171.5C 49.914,171.709 49.414,172.043 49,172.5C 48.5017,175.817 48.335,179.15 48.5,182.5C 46.139,182.674 43.8056,183.007 41.5,183.5C 41.7692,181.571 41.2692,179.905 40,178.5C 38.8372,180.285 38.1705,182.285 38,184.5C 35.4372,185.741 32.9372,187.074 30.5,188.5C 29.8333,186.167 29.1667,183.833 28.5,181.5C 28.1667,181.667 27.8333,181.833 27.5,182C 26.6948,186.749 26.1948,191.582 26,196.5C 23.6412,203.031 21.6412,202.697 20,195.5C 19.2348,189.183 18.7348,182.849 18.5,176.5C 28.5926,173.18 38.926,170.68 49.5,169C 51.6997,160.289 53.533,151.455 55,142.5C 55.9492,139.8 57.7825,138.967 60.5,140C 62.7707,143.075 63.9373,146.575 64,150.5C 65.1658,164.148 65.9991,177.815 66.5,191.5 Z"/></g>
<g><path style="opacity:1" fill="#d8dbe0" d="M 190.5,137.5 C 192.425,150.083 187.092,158.916 174.5,164C 170.57,165.477 166.57,166.644 162.5,167.5C 162.5,166.5 162.5,165.5 162.5,164.5C 179.068,162.931 188.401,153.931 190.5,137.5 Z"/></g>
<g><path style="opacity:1" fill="#dde0e4" d="M 212.5,131.5 C 213.496,131.414 214.329,131.748 215,132.5C 218.06,144.321 214.893,154.154 205.5,162C 200.703,165.483 195.536,168.316 190,170.5C 188.513,169.747 188.346,168.914 189.5,168C 198.369,165.122 205.535,159.956 211,152.5C 213.717,145.683 214.217,138.683 212.5,131.5 Z"/></g>
<g><path style="opacity:1" fill="#e0e4e7" d="M 233.5,149.5 C 235.344,150.204 235.844,151.537 235,153.5C 230.886,164.826 223.052,170.826 211.5,171.5C 223.134,168.533 230.467,161.2 233.5,149.5 Z"/></g>
<g><path style="opacity:0.843" fill="#231625" d="M 511.5,166.5 C 511.5,167.5 511.5,168.5 511.5,169.5C 507.714,170.695 507.714,171.362 511.5,171.5C 511.5,172.5 511.5,173.5 511.5,174.5C 509.801,174.34 508.134,174.506 506.5,175C 508.607,176.264 509.607,178.097 509.5,180.5C 507.61,180.703 506.11,180.037 505,178.5C 505.266,181.901 503.766,183.567 500.5,183.5C 501.215,176.97 499.381,175.97 495,180.5C 493.233,177.843 494.066,176.01 497.5,175C 495.527,174.505 493.527,174.338 491.5,174.5C 491.5,173.5 491.5,172.5 491.5,171.5C 493.857,171.663 496.19,171.497 498.5,171C 495.665,169.56 495.165,167.727 497,165.5C 498.333,166.167 499.333,167.167 500,168.5C 500.036,166.059 500.869,164.059 502.5,162.5C 503.086,162.709 503.586,163.043 504,163.5C 504.333,165.5 504.667,167.5 505,169.5C 506.87,167.781 509.037,166.781 511.5,166.5 Z"/></g>
<g><path style="opacity:0.996" fill="#e27747" d="M 229.5,176.5 C 232.092,182.022 234.425,187.689 236.5,193.5C 226.666,183.3 216.499,182.967 206,192.5C 202.992,197.053 201.826,202.053 202.5,207.5C 199.762,207.851 197.096,208.518 194.5,209.5C 186.237,198.365 176.237,196.531 164.5,204C 159.974,208.908 157.807,214.741 158,221.5C 155.174,223.829 152.008,225.496 148.5,226.5C 147.378,216.688 146.378,206.855 145.5,197C 144.28,187.423 148.28,181.423 157.5,179C 171.504,178.5 185.504,178.667 199.5,179.5C 209.665,179.666 219.665,178.666 229.5,176.5 Z"/></g>
<g><path style="opacity:0.969" fill="#df7546" d="M 15.5,178.5 C 16.3238,182.312 16.8238,186.312 17,190.5C 17.6679,195.029 19.1679,199.196 21.5,203C 24.259,203.977 26.259,203.144 27.5,200.5C 31.0953,205.795 34.5953,205.795 38,200.5C 39.0255,203.693 41.1922,205.026 44.5,204.5C 45.2108,208.382 47.5442,210.882 51.5,212C 54.2272,212.818 56.8938,212.652 59.5,211.5C 54.7045,211.234 50.5378,209.567 47,206.5C 46.3333,204.5 46.3333,202.5 47,200.5C 48.5588,198.783 49.3921,196.783 49.5,194.5C 43.8236,194.666 38.1569,194.499 32.5,194C 31.572,193.612 30.9054,192.945 30.5,192C 37.1102,186.465 44.7768,184.132 53.5,185C 57.9919,187.998 62.3252,191.165 66.5,194.5C 66.5,201.5 66.5,208.5 66.5,215.5C 53.0491,215.108 39.7158,216.108 26.5,218.5C 16.0865,213.862 11.4199,205.695 12.5,194C 12.545,188.609 13.545,183.443 15.5,178.5 Z"/></g>
<g><path style="opacity:1" fill="#361f29" d="M 66.5,191.5 C 67.8333,192.5 67.8333,193.5 66.5,194.5C 62.3252,191.165 57.9919,187.998 53.5,185C 44.7768,184.132 37.1102,186.465 30.5,192C 30.9054,192.945 31.572,193.612 32.5,194C 38.1569,194.499 43.8236,194.666 49.5,194.5C 49.3921,196.783 48.5588,198.783 47,200.5C 46.3333,202.5 46.3333,204.5 47,206.5C 50.5378,209.567 54.7045,211.234 59.5,211.5C 56.8938,212.652 54.2272,212.818 51.5,212C 47.5442,210.882 45.2108,208.382 44.5,204.5C 41.1922,205.026 39.0255,203.693 38,200.5C 34.5953,205.795 31.0953,205.795 27.5,200.5C 26.259,203.144 24.259,203.977 21.5,203C 19.1679,199.196 17.6679,195.029 17,190.5C 16.8238,186.312 16.3238,182.312 15.5,178.5C 15.5,177.5 15.5,176.5 15.5,175.5C 16.791,175.263 17.791,175.596 18.5,176.5C 18.7348,182.849 19.2348,189.183 20,195.5C 21.6412,202.697 23.6412,203.031 26,196.5C 26.1948,191.582 26.6948,186.749 27.5,182C 27.8333,181.833 28.1667,181.667 28.5,181.5C 29.1667,183.833 29.8333,186.167 30.5,188.5C 32.9372,187.074 35.4372,185.741 38,184.5C 38.1705,182.285 38.8372,180.285 40,178.5C 41.2692,179.905 41.7692,181.571 41.5,183.5C 43.8056,183.007 46.139,182.674 48.5,182.5C 48.335,179.15 48.5017,175.817 49,172.5C 49.414,172.043 49.914,171.709 50.5,171.5C 51.0791,175.096 51.0791,178.762 50.5,182.5C 56.4103,184.456 61.7436,187.456 66.5,191.5 Z"/></g>
<g><path style="opacity:1" fill="#dfe3e6" d="M 128.5,190.5 C 132.226,190.177 135.893,190.511 139.5,191.5C 135.429,192.137 131.429,192.971 127.5,194C 124.269,196.727 121.603,199.894 119.5,203.5C 119.167,203 118.833,202.5 118.5,202C 120.281,196.725 123.615,192.891 128.5,190.5 Z"/></g>
<g><path style="opacity:1" fill="#d36f44" d="M 29.5,195.5 C 31.861,195.674 34.1944,196.007 36.5,196.5C 36.4753,202.078 34.3086,203.411 30,200.5C 29.5065,198.866 29.3398,197.199 29.5,195.5 Z"/></g>
<g><path style="opacity:1" fill="#f8ece6" d="M 236.5,193.5 C 238.472,196.084 239.472,199.084 239.5,202.5C 238.617,214.383 232.283,221.049 220.5,222.5C 216.772,222.626 213.439,221.626 210.5,219.5C 208.167,217.833 206.167,215.833 204.5,213.5C 204.293,210.366 202.96,209.366 200.5,210.5C 199.508,210.328 198.842,210.662 198.5,211.5C 197.5,211.5 196.5,211.5 195.5,211.5C 196.892,229.946 188.559,237.779 170.5,235C 165.296,232.629 161.629,228.796 159.5,223.5C 155.398,225.967 151.232,228.3 147,230.5C 145.97,230.164 145.47,229.497 145.5,228.5C 147.027,228.573 148.027,227.906 148.5,226.5C 152.008,225.496 155.174,223.829 158,221.5C 157.807,214.741 159.974,208.908 164.5,204C 176.237,196.531 186.237,198.365 194.5,209.5C 197.096,208.518 199.762,207.851 202.5,207.5C 201.826,202.053 202.992,197.053 206,192.5C 216.499,182.967 226.666,183.3 236.5,193.5 Z"/></g>
<g><path style="opacity:1" fill="#e17849" d="M 216.5,187.5 C 234.093,188.367 239.926,197.033 234,213.5C 226.498,221.574 218.331,222.407 209.5,216C 201.122,203.775 203.455,194.275 216.5,187.5 Z"/></g>
<g><path style="opacity:0.832" fill="#231625" d="M 498.5,195.5 C 508.058,195.22 511.225,199.553 508,208.5C 501.238,212.762 496.405,211.096 493.5,203.5C 493.71,199.805 495.377,197.138 498.5,195.5 Z M 499.5,198.5 C 505.75,198.882 507.417,201.715 504.5,207C 500.515,208.334 497.848,207.001 496.5,203C 497.386,201.385 498.386,199.885 499.5,198.5 Z"/></g>
<g><path style="opacity:1" fill="#be6540" d="M 39.5,196.5 C 45.3504,195.644 46.6837,197.478 43.5,202C 40.2227,201.862 38.8894,200.029 39.5,196.5 Z"/></g>
<g><path style="opacity:1" fill="#e17748" d="M 172.5,201.5 C 190.09,201.573 196.257,209.906 191,226.5C 184.356,233.956 176.522,235.456 167.5,231C 161.939,225.636 160.105,219.136 162,211.5C 164.738,207.26 168.238,203.926 172.5,201.5 Z"/></g>
<g><path style="opacity:0.989" fill="#e27747" d="M 239.5,202.5 C 246.151,218.845 248.317,235.845 246,253.5C 243.697,260.139 239.531,265.306 233.5,269C 225.531,272.2 217.364,274.7 209,276.5C 209.436,281.799 210.103,287.132 211,292.5C 211.39,295.104 212.224,297.438 213.5,299.5C 213.016,311.104 210.182,322.104 205,332.5C 204.196,333.804 203.029,334.471 201.5,334.5C 196.434,331.61 191.768,328.11 187.5,324C 180.995,316.663 174.328,309.496 167.5,302.5C 166.007,288.518 162.174,275.184 156,262.5C 149.491,267.864 143.158,267.531 137,261.5C 134.934,258.039 133.434,254.373 132.5,250.5C 132.334,246.486 132.501,242.486 133,238.5C 134.145,231.174 138.311,227.84 145.5,228.5C 145.47,229.497 145.97,230.164 147,230.5C 151.232,228.3 155.398,225.967 159.5,223.5C 161.629,228.796 165.296,232.629 170.5,235C 188.559,237.779 196.892,229.946 195.5,211.5C 196.5,211.5 197.5,211.5 198.5,211.5C 205.487,217.488 211.82,224.155 217.5,231.5C 213.084,232.972 208.751,234.638 204.5,236.5C 205.167,236.833 205.833,237.167 206.5,237.5C 210.725,236.258 214.891,234.925 219,233.5C 219.667,232.167 219.667,230.833 219,229.5C 216.331,226 213.498,222.667 210.5,219.5C 213.439,221.626 216.772,222.626 220.5,222.5C 232.283,221.049 238.617,214.383 239.5,202.5 Z"/></g>
<g><path style="opacity:1" fill="#dfe3e6" d="M 139.5,200.5 C 140.675,200.281 141.675,200.614 142.5,201.5C 133.782,209.268 128.448,218.934 126.5,230.5C 125.345,227.554 125.179,224.554 126,221.5C 129.541,213.811 134.041,206.811 139.5,200.5 Z"/></g>
<g><path style="opacity:1" fill="#db8059" d="M 204.5,213.5 C 203.128,212.488 201.795,211.488 200.5,210.5C 202.96,209.366 204.293,210.366 204.5,213.5 Z"/></g>
<g><path style="opacity:1" fill="#372029" d="M 224.5,198.5 C 225.79,199.058 226.623,200.058 227,201.5C 228.636,206.375 229.469,211.375 229.5,216.5C 228.127,216.657 226.793,216.49 225.5,216C 221.257,211.592 217.591,206.759 214.5,201.5C 215.868,200.406 217.035,200.74 218,202.5C 228.108,218.994 230.275,217.66 224.5,198.5 Z"/></g>
<g><path style="opacity:0.884" fill="#2d1e2c" d="M 66.5,215.5 C 67.4959,215.414 68.3292,215.748 69,216.5C 71.5583,224.497 72.0583,232.497 70.5,240.5C 54.5775,239.516 38.5775,239.183 22.5,239.5C 20.2341,239.859 18.4007,239.192 17,237.5C 16.5123,231.423 17.0123,225.423 18.5,219.5C 21.1272,218.908 23.7938,218.575 26.5,218.5C 39.7158,216.108 53.0491,215.108 66.5,215.5 Z"/></g>
<g><path style="opacity:1" fill="#fcfcfc" d="M 68.5,225.5 C 68.5,229.5 68.5,233.5 68.5,237.5C 61.8333,237.5 55.1667,237.5 48.5,237.5C 38.8333,237.5 29.1667,237.5 19.5,237.5C 19.3243,232.12 19.6576,226.787 20.5,221.5C 35.7243,218.847 51.0576,217.68 66.5,218C 68.1134,220.228 68.78,222.728 68.5,225.5 Z"/></g>
<g><path style="opacity:1" fill="#362029" d="M 184.5,207.5 C 185.586,207.62 186.253,208.287 186.5,209.5C 188.725,214.992 189.558,220.659 189,226.5C 187.493,227.535 185.993,227.368 184.5,226C 179.943,221.946 175.943,217.446 172.5,212.5C 173.002,211.479 173.668,211.312 174.5,212C 177.981,216.648 181.981,220.815 186.5,224.5C 186.833,223.667 187.167,222.833 187.5,222C 186.123,217.237 185.123,212.404 184.5,207.5 Z"/></g>
<g><path style="opacity:1" fill="#341f29" d="M 200.5,210.5 C 201.795,211.488 203.128,212.488 204.5,213.5C 206.167,215.833 208.167,217.833 210.5,219.5C 213.498,222.667 216.331,226 219,229.5C 219.667,230.833 219.667,232.167 219,233.5C 214.891,234.925 210.725,236.258 206.5,237.5C 205.833,237.167 205.167,236.833 204.5,236.5C 208.751,234.638 213.084,232.972 217.5,231.5C 211.82,224.155 205.487,217.488 198.5,211.5C 198.842,210.662 199.508,210.328 200.5,210.5 Z"/></g>
<g><path style="opacity:0.979" fill="#efbe06" d="M 468.5,232.5 C 469.5,232.5 470.5,232.5 471.5,232.5C 475.167,232.5 478.833,232.5 482.5,232.5C 481.928,242.518 481.261,252.518 480.5,262.5C 409.177,263.352 337.843,264.018 266.5,264.5C 266.5,254.167 266.5,243.833 266.5,233.5C 270.833,233.5 275.167,233.5 279.5,233.5C 280.167,233.5 280.833,233.5 281.5,233.5C 343.833,233.08 406.166,232.747 468.5,232.5 Z"/></g>
<g><path style="opacity:1" fill="#685f69" d="M 68.5,225.5 C 69.4849,229.634 69.8182,233.968 69.5,238.5C 62.3134,238.825 55.3134,238.491 48.5,237.5C 55.1667,237.5 61.8333,237.5 68.5,237.5C 68.5,233.5 68.5,229.5 68.5,225.5 Z"/></g>
<g><path style="opacity:0.99" fill="#b07299" d="M 22.5,239.5 C 38.5775,239.183 54.5775,239.516 70.5,240.5C 69.2101,257.856 69.2101,275.19 70.5,292.5C 60.6873,297.305 52.6873,304.305 46.5,313.5C 47.0016,314.521 47.6683,314.688 48.5,314C 52.7998,308.699 57.4664,303.699 62.5,299C 65.0722,296.713 68.0722,295.547 71.5,295.5C 69.5523,303.733 66.219,311.399 61.5,318.5C 61.8333,318.833 62.1667,319.167 62.5,319.5C 68.4299,311.977 72.4299,303.644 74.5,294.5C 98.8397,298.939 123.34,302.606 148,305.5C 152.461,304.655 156.961,304.322 161.5,304.5C 163.87,308.577 165.703,312.91 167,317.5C 170.014,330.117 172.514,342.783 174.5,355.5C 174.5,356.5 174.5,357.5 174.5,358.5C 178.293,384.755 181.626,411.088 184.5,437.5C 157.492,438.685 130.492,438.185 103.5,436C 101.147,430.757 99.6472,425.257 99,419.5C 97.0403,407.237 95.8736,394.903 95.5,382.5C 96.247,385.15 97.247,387.816 98.5,390.5C 99.2058,388.234 99.0391,385.901 98,383.5C 96.9931,367.757 97.4931,352.09 99.5,336.5C 98.5,336.5 97.5,336.5 96.5,336.5C 95.7599,345.828 95.0932,355.161 94.5,364.5C 75.0463,358.849 55.713,352.683 36.5,346C 31.1036,343.885 25.937,341.385 21,338.5C 19.8628,330.432 19.3628,322.265 19.5,314C 20.0228,289.143 21.0228,264.309 22.5,239.5 Z"/></g>
<g><path style="opacity:1" fill="#382624" d="M 304.5,240.5 C 307.572,240.183 310.572,240.516 313.5,241.5C 312,241.833 310.5,242.167 309,242.5C 307.014,242.431 305.514,241.765 304.5,240.5 Z"/></g>
<g><path style="opacity:1" fill="#2c1d24" d="M 319.5,241.5 C 322.572,241.183 325.572,241.516 328.5,242.5C 327,242.833 325.5,243.167 324,243.5C 322.014,243.431 320.514,242.765 319.5,241.5 Z"/></g>
<g><path style="opacity:1" fill="#342324" d="M 333.5,242.5 C 337.056,242.642 340.39,243.476 343.5,245C 341.166,245.339 338.832,245.172 336.5,244.5C 334.97,244.36 333.97,243.693 333.5,242.5 Z"/></g>
<g><path style="opacity:1" fill="#331e28" d="M 140.5,240.5 C 143.642,240.799 145.809,242.466 147,245.5C 149.036,248.402 149.869,251.402 149.5,254.5C 147.25,250.332 144.75,246.332 142,242.5C 140.39,244.597 139.223,246.93 138.5,249.5C 137.12,246.068 137.787,243.068 140.5,240.5 Z"/></g>
<g><path style="opacity:1" fill="#402c23" d="M 298.5,247.5 C 301.898,247.18 305.232,247.513 308.5,248.5C 306.833,248.833 305.167,249.167 303.5,249.5C 301.36,249.444 299.694,248.777 298.5,247.5 Z"/></g>
<g><path style="opacity:1" fill="#332224" d="M 315.5,247.5 C 318.722,247.108 321.722,247.608 324.5,249C 321.167,249.667 317.833,249.667 314.5,249C 315.056,248.617 315.389,248.117 315.5,247.5 Z"/></g>
<g><path style="opacity:1" fill="#2c1d24" d="M 328.5,248.5 C 331.572,248.183 334.572,248.516 337.5,249.5C 336,249.833 334.5,250.167 333,250.5C 331.014,250.431 329.514,249.765 328.5,248.5 Z"/></g>
<g><path style="opacity:1" fill="#341f29" d="M 217.5,238.5 C 218.307,244.655 217.14,250.655 214,256.5C 211.447,258.729 208.614,259.062 205.5,257.5C 201.478,253.309 198.478,248.476 196.5,243C 197.449,242.383 198.282,242.549 199,243.5C 200.746,247.327 202.746,250.993 205,254.5C 209.443,257.806 212.443,256.806 214,251.5C 215.283,247.157 216.45,242.824 217.5,238.5 Z"/></g>
<g><path style="opacity:0.871" fill="#2d212f" d="M 371.5,269.5 C 375.78,269.957 379.78,271.291 383.5,273.5C 392.941,267.162 400.774,268.829 407,278.5C 407.977,280.74 408.477,283.073 408.5,285.5C 415.394,286.227 419.06,290.061 419.5,297C 419.483,300.383 418.65,303.55 417,306.5C 412.56,313.134 406.394,316.801 398.5,317.5C 395.403,317.617 392.736,316.617 390.5,314.5C 383.094,318.011 375.427,318.845 367.5,317C 365.16,315.16 363.16,312.993 361.5,310.5C 349.317,306.8 345.817,299.133 351,287.5C 353.598,283.722 357.098,281.389 361.5,280.5C 362.815,274.858 366.148,271.191 371.5,269.5 Z"/></g>
<g><path style="opacity:1" fill="#f9f9f9" d="M 369.5,272.5 C 373.753,271.986 377.587,272.986 381,275.5C 380.083,278.714 379.75,282.047 380,285.5C 381.845,289.795 384.512,290.462 388,287.5C 389.114,283.05 388.28,279.05 385.5,275.5C 395.081,269.873 401.748,272.373 405.5,283C 405.333,283.833 405.167,284.667 405,285.5C 400.601,287.064 397.768,290.064 396.5,294.5C 397.952,297.944 400.286,298.444 403.5,296C 406.321,293.859 407.654,291.025 407.5,287.5C 417.832,290.503 419.998,296.503 414,305.5C 409.295,312.606 402.795,315.439 394.5,314C 393.833,313.333 393.167,312.667 392.5,312C 395.094,308.949 395.927,305.449 395,301.5C 392.916,298.967 390.916,298.967 389,301.5C 388.785,305.285 388.619,308.952 388.5,312.5C 381.639,315.625 374.639,316.125 367.5,314C 366.707,312.915 366.04,311.748 365.5,310.5C 372.497,308.429 374.331,304.095 371,297.5C 367.28,294.785 364.613,295.785 363,300.5C 362.503,302.81 362.337,305.143 362.5,307.5C 353.251,306.013 349.751,300.68 352,291.5C 354.347,285.582 358.513,283.249 364.5,284.5C 364.57,279.716 366.237,275.716 369.5,272.5 Z"/></g>
<g><path style="opacity:1" fill="#341f29" d="M 168.5,261.5 C 168.897,260.475 169.563,260.308 170.5,261C 179.739,275.576 192.406,279.41 208.5,272.5C 209.167,272.833 209.833,273.167 210.5,273.5C 192.843,281.833 178.843,277.833 168.5,261.5 Z"/></g>
<g><path style="opacity:1" fill="#e9e8e9" d="M 383.5,277.5 C 385.876,278.512 386.876,280.345 386.5,283C 385.195,288.874 383.528,288.874 381.5,283C 381.758,280.991 382.425,279.157 383.5,277.5 Z"/></g>
<g><path style="opacity:0.83" fill="#231625" d="M 489.5,279.5 C 490.496,279.414 491.329,279.748 492,280.5C 492.986,282.778 493.82,285.111 494.5,287.5C 503.811,290.796 503.811,294.13 494.5,297.5C 490.439,306.971 487.439,306.638 485.5,296.5C 483.146,296.162 480.813,295.662 478.5,295C 477.978,294.439 477.645,293.772 477.5,293C 479.968,290.498 482.802,288.331 486,286.5C 487.18,284.14 488.347,281.807 489.5,279.5 Z M 489.5,285.5 C 490.793,286.842 491.626,288.509 492,290.5C 496.02,291.918 496.187,293.251 492.5,294.5C 491.416,295.665 490.583,296.998 490,298.5C 488.956,297.377 488.29,296.044 488,294.5C 486.391,293.853 484.891,293.02 483.5,292C 487.334,291.407 489.334,289.241 489.5,285.5 Z"/></g>
<g><path style="opacity:1" fill="#e6e4e6" d="M 403.5,288.5 C 405.225,288.843 405.725,289.843 405,291.5C 403.429,293.923 401.263,295.256 398.5,295.5C 399.002,292.331 400.669,289.998 403.5,288.5 Z"/></g>
<g><path style="opacity:0.988" fill="#fbfbfb" d="M 245.5,296.5 C 241.03,297.486 236.363,297.819 231.5,297.5C 232.332,310.57 232.332,323.57 231.5,336.5C 230.121,340.925 227.954,344.925 225,348.5C 220.952,344.12 217.285,339.454 214,334.5C 213.421,335.928 213.588,337.262 214.5,338.5C 207.11,338.236 199.777,338.57 192.5,339.5C 191.923,338.227 191.257,338.227 190.5,339.5C 189.089,346.242 186.422,352.409 182.5,358C 181.167,358.667 179.833,358.667 178.5,358C 177.307,356.905 175.973,356.072 174.5,355.5C 172.514,342.783 170.014,330.117 167,317.5C 165.703,312.91 163.87,308.577 161.5,304.5C 163.5,303.833 165.5,303.167 167.5,302.5C 174.328,309.496 180.995,316.663 187.5,324C 191.768,328.11 196.434,331.61 201.5,334.5C 203.029,334.471 204.196,333.804 205,332.5C 210.182,322.104 213.016,311.104 213.5,299.5C 214.746,297.099 216.746,295.599 219.5,295C 228.295,294.137 236.962,294.637 245.5,296.5 Z"/></g>
<g><path style="opacity:0.991" fill="#b07299" d="M 354.5,376.5 C 350.276,381.968 347.276,388.135 345.5,395C 345.974,396.608 346.641,396.774 347.5,395.5C 348.994,390.177 351.161,385.177 354,380.5C 355.848,388.698 357.015,397.032 357.5,405.5C 358.732,396.116 358.399,386.782 356.5,377.5C 367.48,371.008 378.147,364.008 388.5,356.5C 388.954,359.14 390.121,361.473 392,363.5C 401.036,372.368 409.869,381.368 418.5,390.5C 400.916,408.583 380.916,423.416 358.5,435C 353.994,437.126 349.661,436.793 345.5,434C 336.73,427.864 328.23,421.364 320,414.5C 320.06,421.497 320.06,428.497 320,435.5C 318.786,437.049 317.286,438.215 315.5,439C 304.533,441.892 293.366,443.059 282,442.5C 271.764,442.616 261.597,441.949 251.5,440.5C 255.83,436.002 259.997,431.335 264,426.5C 267.224,422.719 269.39,418.386 270.5,413.5C 265.664,404.988 259.331,397.655 251.5,391.5C 258.144,383.021 264.978,374.688 272,366.5C 274.301,363.212 276.134,359.712 277.5,356C 268.968,338.44 258.302,322.273 245.5,307.5C 244.592,308.79 244.759,310.123 246,311.5C 257.701,325.062 267.535,339.896 275.5,356C 273.078,360.756 270.244,365.256 267,369.5C 261.021,376.98 254.855,384.313 248.5,391.5C 254.459,396.958 260.292,402.624 266,408.5C 268.437,414.426 267.437,419.76 263,424.5C 258.266,429.726 253.766,435.059 249.5,440.5C 246.318,440.052 243.651,438.718 241.5,436.5C 239.927,429.594 238.761,422.594 238,415.5C 236.197,390.006 234.364,364.673 232.5,339.5C 232.737,338.209 232.404,337.209 231.5,336.5C 232.332,323.57 232.332,310.57 231.5,297.5C 236.363,297.819 241.03,297.486 245.5,296.5C 256.824,295.653 268.158,295.486 279.5,296C 285.791,296.073 291.791,297.406 297.5,300C 316.886,325.3 335.886,350.8 354.5,376.5 Z"/></g>
<g><path style="opacity:1" fill="#f1f1f2" d="M 367.5,297.5 C 370.332,299.407 371.166,302.073 370,305.5C 368.556,307.155 366.722,307.822 364.5,307.5C 364.022,303.662 365.022,300.329 367.5,297.5 Z"/></g>
<g><path style="opacity:1" fill="#e5e3e5" d="M 390.5,301.5 C 392.722,301.559 393.722,302.725 393.5,305C 393.507,306.812 392.84,308.312 391.5,309.5C 390.52,306.914 390.187,304.247 390.5,301.5 Z"/></g>
<g><path style="opacity:1" fill="#312031" d="M 70.5,292.5 C 72.3797,292.229 73.713,292.896 74.5,294.5C 72.4299,303.644 68.4299,311.977 62.5,319.5C 62.1667,319.167 61.8333,318.833 61.5,318.5C 66.219,311.399 69.5523,303.733 71.5,295.5C 68.0722,295.547 65.0722,296.713 62.5,299C 57.4664,303.699 52.7998,308.699 48.5,314C 47.6683,314.688 47.0016,314.521 46.5,313.5C 52.6873,304.305 60.6873,297.305 70.5,292.5 Z"/></g>
<g><path style="opacity:0.96" fill="#e27746" d="M 438.5,374.5 C 428.755,364.425 419.755,353.759 411.5,342.5C 422.184,329.313 434.851,318.48 449.5,310C 453.149,307.445 455.815,308.112 457.5,312C 456.263,316.944 454.429,321.444 452,325.5C 457.842,319.414 464.842,315.414 473,313.5C 475.22,313.545 476.72,314.545 477.5,316.5C 474.78,323.388 470.113,328.555 463.5,332C 468.974,331.093 474.474,329.926 480,328.5C 484.833,329.667 485.667,332.167 482.5,336C 477.49,339.507 472.157,342.507 466.5,345C 470.5,345.333 474.5,345.667 478.5,346C 481.448,347.01 482.114,348.843 480.5,351.5C 478.507,353.499 476.173,354.999 473.5,356C 464.588,359.082 455.922,362.748 447.5,367C 444.31,369.364 441.31,371.864 438.5,374.5 Z"/></g>
<g><path style="opacity:1" fill="#362029" d="M 440.5,329.5 C 442.888,330.219 444.388,331.885 445,334.5C 446.027,338.18 445.194,341.347 442.5,344C 439.341,346.233 436.008,347.066 432.5,346.5C 436.973,345.511 440.473,343.177 443,339.5C 443.667,337.833 443.667,336.167 443,334.5C 441.628,333.09 440.795,331.423 440.5,329.5 Z"/></g>
<g><path style="opacity:1" fill="#3b2639" d="M 95.5,382.5 C 94.5447,376.591 94.2114,370.591 94.5,364.5C 95.0932,355.161 95.7599,345.828 96.5,336.5C 97.5,336.5 98.5,336.5 99.5,336.5C 97.4931,352.09 96.9931,367.757 98,383.5C 99.0391,385.901 99.2058,388.234 98.5,390.5C 97.247,387.816 96.247,385.15 95.5,382.5 Z"/></g>
<g><path style="opacity:1" fill="#e17d8e" d="M 214.5,338.5 C 215.167,339.5 215.833,340.5 216.5,341.5C 214.04,349.2 213.207,357.2 214,365.5C 219.696,388.153 225.196,410.82 230.5,433.5C 219.6,436.278 208.6,436.945 197.5,435.5C 197.167,433 196.833,430.5 196.5,428C 198.588,406.2 199.754,384.367 200,362.5C 196.555,357.268 193.389,351.935 190.5,346.5C 191.167,344.167 191.833,341.833 192.5,339.5C 199.777,338.57 207.11,338.236 214.5,338.5 Z"/></g>
<g><path style="opacity:0.842" fill="#302230" d="M 411.5,342.5 C 419.755,353.759 428.755,364.425 438.5,374.5C 438.657,375.873 438.49,377.207 438,378.5C 433.701,383.805 428.534,387.972 422.5,391C 421.072,391.579 419.738,391.412 418.5,390.5C 409.869,381.368 401.036,372.368 392,363.5C 390.121,361.473 388.954,359.14 388.5,356.5C 393.025,349.064 399.359,343.73 407.5,340.5C 409.073,340.752 410.406,341.418 411.5,342.5 Z"/></g>
<g><path style="opacity:0.991" fill="#fbfcfc" d="M 232.5,339.5 C 234.364,364.673 236.197,390.006 238,415.5C 238.761,422.594 239.927,429.594 241.5,436.5C 222.528,438.616 203.528,438.95 184.5,437.5C 181.626,411.088 178.293,384.755 174.5,358.5C 179.859,361.998 184.026,360.998 187,355.5C 188.273,352.511 189.439,349.511 190.5,346.5C 193.389,351.935 196.555,357.268 200,362.5C 199.754,384.367 198.588,406.2 196.5,428C 196.833,430.5 197.167,433 197.5,435.5C 208.6,436.945 219.6,436.278 230.5,433.5C 225.196,410.82 219.696,388.153 214,365.5C 213.207,357.2 214.04,349.2 216.5,341.5C 223.386,354.066 228.719,353.4 232.5,339.5 Z"/></g>
<g><path style="opacity:1" fill="#352836" d="M 192.5,339.5 C 191.833,341.833 191.167,344.167 190.5,346.5C 189.439,349.511 188.273,352.511 187,355.5C 184.026,360.998 179.859,361.998 174.5,358.5C 174.5,357.5 174.5,356.5 174.5,355.5C 175.973,356.072 177.307,356.905 178.5,358C 179.833,358.667 181.167,358.667 182.5,358C 186.422,352.409 189.089,346.242 190.5,339.5C 191.257,338.227 191.923,338.227 192.5,339.5 Z"/></g>
<g><path style="opacity:1" fill="#fcfbfc" d="M 405.5,343.5 C 408.614,344.091 411.114,345.758 413,348.5C 420.833,357.667 428.667,366.833 436.5,376C 432.422,380.749 427.755,384.749 422.5,388C 421.5,388.667 420.5,388.667 419.5,388C 409.286,378.287 399.619,368.121 390.5,357.5C 394.918,352.077 399.918,347.411 405.5,343.5 Z"/></g>
<g><path style="opacity:1" fill="#321d28" d="M 446.5,333.5 C 450.768,335.933 454.268,339.266 457,343.5C 458.555,345.443 459.722,347.61 460.5,350C 460.167,350.5 459.833,351 459.5,351.5C 455.151,345.451 450.818,339.451 446.5,333.5 Z"/></g>
<g><path style="opacity:1" fill="#392d3b" d="M 231.5,336.5 C 232.404,337.209 232.737,338.209 232.5,339.5C 228.719,353.4 223.386,354.066 216.5,341.5C 215.833,340.5 215.167,339.5 214.5,338.5C 213.588,337.262 213.421,335.928 214,334.5C 217.285,339.454 220.952,344.12 225,348.5C 227.954,344.925 230.121,340.925 231.5,336.5 Z"/></g>
<g><path style="opacity:0.796" fill="#241626" d="M -0.5,368.5 C -0.5,367.5 -0.5,366.5 -0.5,365.5C 1.5273,365.662 3.5273,365.495 5.5,365C 3.67075,363.887 2.83742,362.387 3,360.5C 5.09071,359.5 6.75737,360.167 8,362.5C 8.17049,360.285 8.83716,358.285 10,356.5C 11.0432,358.701 11.8765,361.034 12.5,363.5C 14.0009,362.248 15.6675,361.248 17.5,360.5C 18.754,362.259 18.4206,363.759 16.5,365C 17.448,365.483 18.448,365.649 19.5,365.5C 19.5,366.5 19.5,367.5 19.5,368.5C 17.4727,368.338 15.4727,368.505 13.5,369C 15.019,370.351 16.3523,371.851 17.5,373.5C 14.8707,375.05 13.0374,374.384 12,371.5C 11.5045,373.473 11.3379,375.473 11.5,377.5C 10.5,377.5 9.5,377.5 8.5,377.5C 8.66331,375.143 8.49665,372.81 8,370.5C 6.25523,371.956 4.4219,373.289 2.5,374.5C 1.27807,372.091 1.94474,370.258 4.5,369C 2.86586,368.506 1.19919,368.34 -0.5,368.5 Z"/></g>
<g><path style="opacity:1" fill="#311f31" d="M 251.5,440.5 C 250.833,440.5 250.167,440.5 249.5,440.5C 253.766,435.059 258.266,429.726 263,424.5C 267.437,419.76 268.437,414.426 266,408.5C 260.292,402.624 254.459,396.958 248.5,391.5C 254.855,384.313 261.021,376.98 267,369.5C 270.244,365.256 273.078,360.756 275.5,356C 267.535,339.896 257.701,325.062 246,311.5C 244.759,310.123 244.592,308.79 245.5,307.5C 258.302,322.273 268.968,338.44 277.5,356C 276.134,359.712 274.301,363.212 272,366.5C 264.978,374.688 258.144,383.021 251.5,391.5C 259.331,397.655 265.664,404.988 270.5,413.5C 269.39,418.386 267.224,422.719 264,426.5C 259.997,431.335 255.83,436.002 251.5,440.5 Z"/></g>
<g><path style="opacity:1" fill="#382436" d="M 292.5,377.5 C 294.776,377.756 295.943,379.09 296,381.5C 296.808,383.579 296.641,385.579 295.5,387.5C 294.485,384.146 293.485,380.812 292.5,377.5 Z"/></g>
<g><path style="opacity:1" fill="#301e2f" d="M 354.5,376.5 C 355.167,376.833 355.833,377.167 356.5,377.5C 358.399,386.782 358.732,396.116 357.5,405.5C 357.015,397.032 355.848,388.698 354,380.5C 351.161,385.177 348.994,390.177 347.5,395.5C 346.641,396.774 345.974,396.608 345.5,395C 347.276,388.135 350.276,381.968 354.5,376.5 Z"/></g>
<g><path style="opacity:1" fill="#2e1d2e" d="M 300.5,381.5 C 303.305,384.314 303.972,387.647 302.5,391.5C 301.192,388.294 300.525,384.96 300.5,381.5 Z"/></g>
<g><path style="opacity:1" fill="#332133" d="M 302.5,334.5 C 304.48,335.848 305.647,337.848 306,340.5C 310.742,360.042 314.908,379.708 318.5,399.5C 318.167,400.5 317.833,401.5 317.5,402.5C 312.244,379.887 307.244,357.22 302.5,334.5 Z"/></g>
<g><path style="opacity:0.874" fill="#2e2130" d="M 45.5,382.5 C 56.0853,382.75 62.4186,388.083 64.5,398.5C 71.3903,399.224 75.057,403.057 75.5,410C 73.2703,421.73 66.2703,428.563 54.5,430.5C 51.403,430.617 48.7363,429.617 46.5,427.5C 38.3058,431.557 29.9724,432.057 21.5,429C 20.1111,427.043 18.6111,425.21 17,423.5C 3.89474,418.876 0.894743,410.543 8,398.5C 10.7849,395.163 14.1182,393.83 18,394.5C 18.753,384.697 23.9196,381.197 33.5,384C 35.519,384.45 37.3523,385.283 39,386.5C 41.0129,384.752 43.1795,383.418 45.5,382.5 Z"/></g>
<g><path style="opacity:1" fill="#f9f8f9" d="M 25.5,385.5 C 29.5801,385.583 33.4135,386.583 37,388.5C 35.7458,391.98 35.4125,395.647 36,399.5C 41.1069,404.176 43.9402,403.009 44.5,396C 44.2433,393.23 43.2433,390.73 41.5,388.5C 46.3872,384.558 51.3872,384.558 56.5,388.5C 58.9947,390.659 60.6614,393.326 61.5,396.5C 61.3918,397.442 61.0585,398.275 60.5,399C 54.649,400.783 52.3157,404.45 53.5,410C 59.837,410.166 63.1703,407 63.5,400.5C 72.8582,403.577 75.0248,409.577 70,418.5C 65.8664,423.481 60.6998,426.814 54.5,428.5C 52.0454,428.106 50.0454,426.94 48.5,425C 50.4559,421.405 50.9559,417.572 50,413.5C 47.2242,411.86 45.2242,412.527 44,415.5C 43.3971,418.656 43.8971,421.656 45.5,424.5C 39.306,428.082 32.6394,429.249 25.5,428C 22.7854,427.125 21.4521,425.292 21.5,422.5C 27.392,421.736 29.5587,418.402 28,412.5C 25.8652,407.675 23.1985,407.341 20,411.5C 18.7114,414.351 18.2114,417.351 18.5,420.5C 4.99269,416.144 2.99269,408.644 12.5,398C 15.0883,396.314 17.7549,396.147 20.5,397.5C 21.3184,394.893 21.8184,392.226 22,389.5C 22.6897,387.65 23.8564,386.316 25.5,385.5 Z"/></g>
<g><path style="opacity:1" fill="#2f1e2f" d="M 113.5,388.5 C 114.777,389.694 115.444,391.36 115.5,393.5C 115.333,395.167 115.167,396.833 115,398.5C 113.595,395.381 113.095,392.048 113.5,388.5 Z"/></g>
<g><path style="opacity:1" fill="#382437" d="M 108.5,383.5 C 109.376,383.369 110.043,383.702 110.5,384.5C 109.915,387.503 109.248,390.503 108.5,393.5C 107.249,390.126 107.249,386.793 108.5,383.5 Z"/></g>
<g><path style="opacity:1" fill="#eae8ea" d="M 39.5,390.5 C 41.5328,391.898 42.5328,393.898 42.5,396.5C 42.3508,400.662 40.8508,401.328 38,398.5C 37.1093,395.502 37.6093,392.836 39.5,390.5 Z"/></g>
<g><path style="opacity:1" fill="#311f31" d="M 295.5,393.5 C 296.931,393.881 297.764,394.881 298,396.5C 298.808,398.579 298.641,400.579 297.5,402.5C 296.068,399.673 295.401,396.673 295.5,393.5 Z"/></g>
<g><path style="opacity:1" fill="#311f31" d="M 150.5,311.5 C 151.675,311.281 152.675,311.614 153.5,312.5C 149.222,329.054 145.389,345.721 142,362.5C 141.333,365.167 141.333,367.833 142,370.5C 151.623,376.722 161.123,383.056 170.5,389.5C 163.536,398.432 157.869,408.098 153.5,418.5C 153.57,419.772 153.903,420.938 154.5,422C 158.554,424.694 162.888,426.861 167.5,428.5C 168.833,429.167 168.833,429.833 167.5,430.5C 162.713,428.607 158.047,426.44 153.5,424C 152.02,422.701 151.354,421.034 151.5,419C 155.261,408.48 160.594,398.813 167.5,390C 158.074,384.205 148.908,378.038 140,371.5C 139.449,366.455 139.782,361.455 141,356.5C 144.168,341.485 147.335,326.485 150.5,311.5 Z"/></g>
<g><path style="opacity:1" fill="#312031" d="M 107.5,398.5 C 108.765,399.514 109.431,401.014 109.5,403C 109.167,404.5 108.833,406 108.5,407.5C 107.516,404.572 107.183,401.572 107.5,398.5 Z"/></g>
<g><path style="opacity:1" fill="#2f1e2f" d="M 302.5,396.5 C 304.045,397.23 304.878,398.563 305,400.5C 305.808,402.579 305.641,404.579 304.5,406.5C 303.555,403.212 302.888,399.879 302.5,396.5 Z"/></g>
<g><path style="opacity:1" fill="#e8e7e9" d="M 58.5,401.5 C 61.9983,401.565 62.4983,402.899 60,405.5C 58.7581,406.872 57.2581,407.872 55.5,408.5C 54.4173,407.635 54.2506,406.635 55,405.5C 56.3756,404.295 57.5423,402.962 58.5,401.5 Z"/></g>
<g><path style="opacity:1" fill="#412a3e" d="M 113.5,402.5 C 114.649,402.791 115.316,403.624 115.5,405C 116.45,407.235 116.45,409.402 115.5,411.5C 113.73,408.807 113.063,405.807 113.5,402.5 Z"/></g>
<g><path style="opacity:0.813" fill="#231625" d="M 478.5,407.5 C 481.85,407.335 485.183,407.502 488.5,408C 489.022,408.561 489.355,409.228 489.5,410C 480.972,424.714 470.972,438.381 459.5,451C 458.216,451.684 457.049,451.517 456,450.5C 454.851,447.607 454.351,444.607 454.5,441.5C 452.213,441.724 450.047,442.391 448,443.5C 447.5,443.167 447,442.833 446.5,442.5C 445.439,436.834 445.272,431.167 446,425.5C 443.417,424.126 440.917,422.626 438.5,421C 436.668,419.511 435.835,417.678 436,415.5C 439.291,413.8 442.791,412.633 446.5,412C 457.29,410.32 467.957,408.82 478.5,407.5 Z M 469.5,411.5 C 471.199,411.34 472.866,411.506 474.5,412C 465.611,415.362 456.777,418.862 448,422.5C 444.928,421.047 442.095,419.213 439.5,417C 449.58,414.827 459.58,412.994 469.5,411.5 Z M 473.5,416.5 C 467.574,421.14 461.241,425.307 454.5,429C 453.726,431.405 453.226,433.905 453,436.5C 450.542,440.381 449.042,440.214 448.5,436C 448.893,432.241 449.559,428.574 450.5,425C 458.087,421.861 465.753,419.028 473.5,416.5 Z M 480.5,417.5 C 474.387,428.043 467.054,437.71 458.5,446.5C 456.755,441.556 456.421,436.556 457.5,431.5C 465.056,426.56 472.722,421.893 480.5,417.5 Z"/></g>
<g><path style="opacity:1" fill="#301f30" d="M 297.5,406.5 C 300.471,409.254 301.137,412.588 299.5,416.5C 298.402,413.247 297.736,409.914 297.5,406.5 Z"/></g>
<g><path style="opacity:1" fill="#f5f4f5" d="M 22.5,411.5 C 25.1213,411.477 26.4546,412.811 26.5,415.5C 26.0175,418.982 24.0175,420.649 20.5,420.5C 20.0653,417.162 20.7319,414.162 22.5,411.5 Z"/></g>
<g><path style="opacity:1" fill="#2b1c2c" d="M 107.5,413.5 C 108.649,413.791 109.316,414.624 109.5,416C 110.45,418.235 110.45,420.402 109.5,422.5C 108.068,419.673 107.401,416.673 107.5,413.5 Z"/></g>
<g><path style="opacity:1" fill="#e4e3e4" d="M 46.5,414.5 C 47.7251,415.152 48.3917,416.319 48.5,418C 48.5463,419.728 48.0463,421.228 47,422.5C 45.2555,419.99 45.0888,417.324 46.5,414.5 Z"/></g>
<g><path style="opacity:1" fill="#342133" d="M 304.5,411.5 C 305.765,412.514 306.431,414.014 306.5,416C 306.167,417.5 305.833,419 305.5,420.5C 304.516,417.572 304.183,414.572 304.5,411.5 Z"/></g>
<g><path style="opacity:1" fill="#362335" d="M 114.5,418.5 C 115.649,418.791 116.316,419.624 116.5,421C 117.077,423.137 117.41,425.304 117.5,427.5C 116.5,427.5 115.5,427.5 114.5,427.5C 114.5,424.5 114.5,421.5 114.5,418.5 Z"/></g>
<g><path style="opacity:0.719" fill="#231726" d="M 387.5,445.5 C 385.031,446.067 382.698,446.067 380.5,445.5C 380.577,444.25 381.244,443.417 382.5,443C 384.134,442.506 385.801,442.34 387.5,442.5C 387.5,443.5 387.5,444.5 387.5,445.5 Z"/></g>
<g><path style="opacity:0.852" fill="#231724" d="M 380.5,445.5 C 380.5,447.833 380.5,450.167 380.5,452.5C 376.861,451.888 375.861,449.888 377.5,446.5C 378.325,445.614 379.325,445.281 380.5,445.5 Z"/></g>
<g><path style="opacity:0.718" fill="#221624" d="M 387.5,445.5 C 388.756,445.461 389.756,445.961 390.5,447C 389.594,448.699 389.261,450.533 389.5,452.5C 388.5,452.5 387.5,452.5 386.5,452.5C 386.298,450.05 386.631,447.717 387.5,445.5 Z"/></g>
<g><path style="opacity:0.704" fill="#241726" d="M 433.5,445.5 C 434.5,445.5 435.5,445.5 436.5,445.5C 436.5,447.833 436.5,450.167 436.5,452.5C 435.5,452.5 434.5,452.5 433.5,452.5C 433.5,450.167 433.5,447.833 433.5,445.5 Z"/></g>
<g><path style="opacity:0.822" fill="#231625" d="M 78.5,446.5 C 84.947,447.441 87.7803,451.107 87,457.5C 84.4586,462.069 80.6253,463.569 75.5,462C 69.6509,455.413 70.6509,450.246 78.5,446.5 Z M 76.5,450.5 C 84.1403,450.295 85.8069,453.128 81.5,459C 74.9984,459 73.3318,456.166 76.5,450.5 Z"/></g>
<g><path style="opacity:0.75" fill="#241725" d="M 330.5,448.5 C 331.5,448.5 332.5,448.5 333.5,448.5C 333.236,451.757 331.57,453.757 328.5,454.5C 328.253,452.142 328.919,450.142 330.5,448.5 Z"/></g>
<g><path style="opacity:0.889" fill="#261527" d="M 341.5,453.5 C 338.205,453.21 336.205,451.543 335.5,448.5C 337.655,448.372 339.655,448.872 341.5,450C 342.684,451.145 342.684,452.312 341.5,453.5 Z"/></g>
<g><path style="opacity:0.794" fill="#211522" d="M 341.5,453.5 C 342.833,453.5 344.167,453.5 345.5,453.5C 345.935,462.676 344.602,462.676 341.5,453.5 Z"/></g>
<g><path style="opacity:0.778" fill="#231625" d="M 377.5,467.5 C 377.269,464.215 378.603,461.715 381.5,460C 378.614,457.88 378.281,455.713 380.5,453.5C 381.799,454.09 382.632,455.09 383,456.5C 383.908,454.561 385.408,453.561 387.5,453.5C 387.414,455.677 386.747,457.677 385.5,459.5C 387.734,461.381 389.067,463.715 389.5,466.5C 385.564,465.905 383.564,463.905 383.5,460.5C 382.892,464.103 380.892,466.436 377.5,467.5 Z"/></g>
<g><path style="opacity:0.722" fill="#251627" d="M 433.5,453.5 C 434.995,453.415 435.995,454.081 436.5,455.5C 435.691,457.071 435.357,458.738 435.5,460.5C 434.5,460.5 433.5,460.5 432.5,460.5C 432.298,458.05 432.631,455.717 433.5,453.5 Z"/></g>
<g><path style="opacity:0.744" fill="#241725" d="M 254.5,456.5 C 256.5,456.5 258.5,456.5 260.5,456.5C 260.5,457.5 260.5,458.5 260.5,459.5C 258.076,459.808 255.743,459.474 253.5,458.5C 253.863,457.817 254.196,457.15 254.5,456.5 Z"/></g>
<g><path style="opacity:0.808" fill="#241725" d="M 262.5,456.5 C 264.527,456.338 266.527,456.505 268.5,457C 268.957,457.414 269.291,457.914 269.5,458.5C 267.235,459.647 264.902,459.814 262.5,459C 261.402,458.23 261.402,457.397 262.5,456.5 Z"/></g>
<g><path style="opacity:0.748" fill="#241826" d="M 329.5,455.5 C 330.496,455.414 331.329,455.748 332,456.5C 332.813,458.436 333.313,460.436 333.5,462.5C 329.81,461.449 328.477,459.115 329.5,455.5 Z"/></g>
<g><path style="opacity:0.739" fill="#211523" d="M 249.5,457.5 C 251.686,457.511 252.519,458.511 252,460.5C 249.993,461.669 247.827,462.335 245.5,462.5C 245.408,459.6 246.741,457.933 249.5,457.5 Z"/></g>
<g><path style="opacity:0.765" fill="#231625" d="M 276.5,464.5 C 272.457,464.147 270.79,462.147 271.5,458.5C 274.672,459.331 276.338,461.331 276.5,464.5 Z"/></g>
<g><path style="opacity:0.811" fill="#241625" d="M 109.5,461.5 C 110.675,461.281 111.675,461.614 112.5,462.5C 113.18,464.889 114.014,467.222 115,469.5C 124.409,472.394 124.575,475.228 115.5,478C 114.102,481.31 112.102,484.143 109.5,486.5C 107.282,484.349 105.948,481.682 105.5,478.5C 103.228,477.515 100.895,476.681 98.5,476C 97.9781,475.439 97.6448,474.772 97.5,474C 99.8175,471.44 102.651,469.607 106,468.5C 106.891,465.97 108.058,463.637 109.5,461.5 Z M 109.5,467.5 C 110.947,468.622 111.947,470.122 112.5,472C 113.833,472.667 115.167,473.333 116.5,474C 113,474.833 110.833,477 110,480.5C 109.163,478.649 108.329,476.816 107.5,475C 105.833,474.667 104.167,474.333 102.5,474C 104.5,473 106.5,472 108.5,471C 109.337,469.989 109.67,468.822 109.5,467.5 Z"/></g>
<g><path style="opacity:0.767" fill="#231724" d="M 237.5,465.5 C 238.737,462.05 241.07,461.05 244.5,462.5C 242.834,465.51 240.501,466.51 237.5,465.5 Z"/></g>
<g><path style="opacity:0.819" fill="#211623" d="M 341.5,468.5 C 341.687,466.436 342.187,464.436 343,462.5C 344.011,461.663 345.178,461.33 346.5,461.5C 346.501,465.206 344.835,467.539 341.5,468.5 Z"/></g>
<g><path style="opacity:0.844" fill="#241825" d="M 428.5,468.5 C 428.969,465.692 430.303,463.358 432.5,461.5C 433.999,465.506 432.665,467.839 428.5,468.5 Z"/></g>
<g><path style="opacity:0.738" fill="#231525" d="M 338.5,469.5 C 335.379,468.712 333.712,466.712 333.5,463.5C 337.314,463.651 338.981,465.651 338.5,469.5 Z"/></g>
<g><path style="opacity:0.755" fill="#221624" d="M 276.5,464.5 C 280.061,465.473 281.395,467.64 280.5,471C 278.338,470.175 276.672,468.508 275.5,466C 276.056,465.617 276.389,465.117 276.5,464.5 Z"/></g>
<g><path style="opacity:0.742" fill="#221524" d="M 237.5,465.5 C 236.877,470.131 234.544,471.631 230.5,470C 232.228,467.418 234.561,465.918 237.5,465.5 Z"/></g>
<g><path style="opacity:0.83" fill="#241726" d="M 390.5,466.5 C 394.192,466.324 396.192,467.991 396.5,471.5C 393.243,471.236 391.243,469.57 390.5,466.5 Z"/></g>
<g><path style="opacity:0.805" fill="#251627" d="M 377.5,467.5 C 376.57,471.093 374.237,472.759 370.5,472.5C 371.43,468.907 373.763,467.241 377.5,467.5 Z"/></g>
<g><path style="opacity:0.761" fill="#221623" d="M 341.5,468.5 C 342.315,469.837 343.482,470.837 345,471.5C 345.483,472.448 345.649,473.448 345.5,474.5C 342.5,473.167 339.5,473.167 336.5,474.5C 336.392,472.486 337.058,470.82 338.5,469.5C 339.391,468.89 340.391,468.557 341.5,468.5 Z"/></g>
<g><path style="opacity:0.681" fill="#211523" d="M 428.5,468.5 C 428.338,471.669 426.672,473.669 423.5,474.5C 422.745,470.891 424.412,468.891 428.5,468.5 Z"/></g>
<g><path style="opacity:0.76" fill="#251527" d="M 228.5,471.5 C 229.756,471.461 230.756,471.961 231.5,473C 230.257,474.154 229.257,475.488 228.5,477C 227.552,477.483 226.552,477.649 225.5,477.5C 225.615,475.053 226.615,473.053 228.5,471.5 Z"/></g>
<g><path style="opacity:0.755" fill="#211622" d="M 281.5,471.5 C 283.886,472.373 285.886,473.873 287.5,476C 284.343,477.603 282.009,476.603 280.5,473C 281.056,472.617 281.389,472.117 281.5,471.5 Z"/></g>
<g><path style="opacity:0.826" fill="#231524" d="M 397.5,470.5 C 399.861,470.674 402.194,471.007 404.5,471.5C 404.5,472.5 404.5,473.5 404.5,474.5C 402.139,474.326 399.806,473.993 397.5,473.5C 397.5,472.5 397.5,471.5 397.5,470.5 Z"/></g>
<g><path style="opacity:0.781" fill="#231624" d="M 370.5,472.5 C 369.335,475.59 367.002,476.924 363.5,476.5C 363.281,475.325 363.614,474.325 364.5,473.5C 366.409,472.652 368.409,472.318 370.5,472.5 Z"/></g>
<g><path style="opacity:0.696" fill="#261527" d="M 417.5,472.5 C 418.833,472.5 420.167,472.5 421.5,472.5C 421.719,473.675 421.386,474.675 420.5,475.5C 418.591,476.348 416.591,476.682 414.5,476.5C 414.5,475.5 414.5,474.5 414.5,473.5C 415.791,473.737 416.791,473.404 417.5,472.5 Z"/></g>
<g><path style="opacity:0.693" fill="#241626" d="M 346.5,473.5 C 348.861,473.674 351.194,474.007 353.5,474.5C 353.5,475.5 353.5,476.5 353.5,477.5C 351.139,477.326 348.806,476.993 346.5,476.5C 346.5,475.5 346.5,474.5 346.5,473.5 Z"/></g>
<g><path style="opacity:0.75" fill="#231625" d="M 406.5,472.5 C 409.022,472.878 411.355,473.711 413.5,475C 410.738,477.019 408.072,476.852 405.5,474.5C 405.863,473.817 406.196,473.15 406.5,472.5 Z"/></g>
<g><path style="opacity:0.773" fill="#251627" d="M 328.5,478.5 C 330.052,475.888 332.386,474.555 335.5,474.5C 334.449,478.19 332.115,479.523 328.5,478.5 Z"/></g>
<g><path style="opacity:0.954" fill="#251726" d="M 357.5,474.5 C 359.665,474.116 361.332,474.783 362.5,476.5C 359.643,478.916 356.976,478.916 354.5,476.5C 355.602,475.824 356.602,475.158 357.5,474.5 Z"/></g>
<g><path style="opacity:0.76" fill="#221624" d="M 288.5,476.5 C 291.795,476.79 293.795,478.457 294.5,481.5C 292.345,481.628 290.345,481.128 288.5,480C 287.316,478.855 287.316,477.688 288.5,476.5 Z"/></g>
<g><path style="opacity:0.767" fill="#231625" d="M 328.5,478.5 C 326.532,481.502 323.865,482.168 320.5,480.5C 322.744,477.972 325.41,477.305 328.5,478.5 Z"/></g>
<g><path style="opacity:0.724" fill="#231725" d="M 222.5,478.5 C 223.5,478.5 224.5,478.5 225.5,478.5C 225.236,481.757 223.57,483.757 220.5,484.5C 220.604,482.297 221.27,480.297 222.5,478.5 Z"/></g>
<g><path style="opacity:0.702" fill="#231625" d="M 295.5,479.5 C 297.861,479.674 300.194,480.007 302.5,480.5C 302.5,481.5 302.5,482.5 302.5,483.5C 300.139,483.326 297.806,482.993 295.5,482.5C 295.5,481.5 295.5,480.5 295.5,479.5 Z"/></g>
<g><path style="opacity:0.732" fill="#231726" d="M 314.5,479.5 C 316.167,479.5 317.833,479.5 319.5,479.5C 319.5,480.5 319.5,481.5 319.5,482.5C 317.425,482.698 315.425,482.865 313.5,483C 313.043,482.586 312.709,482.086 312.5,481.5C 313.243,480.818 313.909,480.151 314.5,479.5 Z"/></g>
<g><path style="opacity:0.706" fill="#231624" d="M 304.5,480.5 C 306.833,480.5 309.167,480.5 311.5,480.5C 311.5,481.5 311.5,482.5 311.5,483.5C 309.143,483.663 306.81,483.497 304.5,483C 303.402,482.23 303.402,481.397 304.5,480.5 Z"/></g>
<g><path style="opacity:0.798" fill="#231624" d="M 218.5,485.5 C 219.675,485.281 220.675,485.614 221.5,486.5C 220.913,489.406 219.246,491.072 216.5,491.5C 216.604,489.297 217.27,487.297 218.5,485.5 Z"/></g>
</svg>
