<?xml version="1.0" encoding="UTF-8"?>
<!DOCTYPE svg PUBLIC "-//W3C//DTD SVG 1.1//EN" "http://www.w3.org/Graphics/SVG/1.1/DTD/svg11.dtd">
<svg xmlns="http://www.w3.org/2000/svg" version="1.1" width="512px" height="512px" style="shape-rendering:geometricPrecision; text-rendering:geometricPrecision; image-rendering:optimizeQuality; fill-rule:evenodd; clip-rule:evenodd" xmlns:xlink="http://www.w3.org/1999/xlink">
<g><path style="opacity:0.985" fill="#000000" d="M 32.5,-0.5 C 107.167,-0.5 181.833,-0.5 256.5,-0.5C 276.073,5.58899 287.24,18.9223 290,39.5C 290.5,60.4974 290.667,81.4974 290.5,102.5C 287.5,102.5 284.5,102.5 281.5,102.5C 278.713,101.523 275.713,101.19 272.5,101.5C 272.667,79.4975 272.5,57.4975 272,35.5C 269.106,27.2158 263.606,21.3824 255.5,18C 246.916,16.5901 238.25,16.0901 229.5,16.5C 232.05,32.918 225.716,44.0846 210.5,50C 188.5,50.1667 166.5,50.3333 144.5,50.5C 121.439,50.6517 98.4388,50.1517 75.5,49C 62.4762,42.1593 57.1429,31.326 59.5,16.5C 50.7502,16.0901 42.0836,16.5901 33.5,18C 25.1782,21.6549 19.6782,27.8215 17,36.5C 16.5,142.833 16.3333,249.166 16.5,355.5C 16.3333,395.168 16.5,434.835 17,474.5C 20.1667,484.333 26.6667,490.833 36.5,494C 69.4983,494.5 102.498,494.667 135.5,494.5C 174.501,494.667 213.501,494.5 252.5,494C 262.667,491.167 269.167,484.667 272,474.5C 272.5,407.167 272.667,339.834 272.5,272.5C 275.5,272.5 278.5,272.5 281.5,272.5C 284.5,272.5 287.5,272.5 290.5,272.5C 290.667,338.834 290.5,405.168 290,471.5C 287.272,492.05 276.105,505.383 256.5,511.5C 181.833,511.5 107.167,511.5 32.5,511.5C 15.8333,506.167 4.83333,495.167 -0.5,478.5C -0.5,329.833 -0.5,181.167 -0.5,32.5C 4.83333,15.8333 15.8333,4.83333 32.5,-0.5 Z"/></g>
<g><path style="opacity:1" fill="#c1def5" d="M 281.5,102.5 C 281.5,107.833 281.5,113.167 281.5,118.5C 227.167,118.5 172.833,118.5 118.5,118.5C 118.168,164.336 118.501,210.003 119.5,255.5C 173.5,255.5 227.5,255.5 281.5,255.5C 281.5,261.167 281.5,266.833 281.5,272.5C 278.5,272.5 275.5,272.5 272.5,272.5C 272.667,339.834 272.5,407.167 272,474.5C 269.167,484.667 262.667,491.167 252.5,494C 213.501,494.5 174.501,494.667 135.5,494.5C 100.021,480.679 71.6873,458.013 50.5,426.5C 118.833,426.5 187.167,426.5 255.5,426.5C 255.5,420.833 255.5,415.167 255.5,409.5C 183.334,408.667 111.001,408.167 38.5,408C 29.0598,391.298 21.7265,373.798 16.5,355.5C 16.3333,249.166 16.5,142.833 17,36.5C 19.6782,27.8215 25.1782,21.6549 33.5,18C 42.0836,16.5901 50.7502,16.0901 59.5,16.5C 57.1429,31.326 62.4762,42.1593 75.5,49C 98.4388,50.1517 121.439,50.6517 144.5,50.5C 166.5,50.3333 188.5,50.1667 210.5,50C 225.716,44.0846 232.05,32.918 229.5,16.5C 238.25,16.0901 246.916,16.5901 255.5,18C 263.606,21.3824 269.106,27.2158 272,35.5C 272.5,57.4975 272.667,79.4975 272.5,101.5C 275.713,101.19 278.713,101.523 281.5,102.5 Z"/></g>
<g><path style="opacity:1" fill="#57585a" d="M 76.5,16.5 C 121.833,16.5 167.167,16.5 212.5,16.5C 212.666,20.5138 212.499,24.5138 212,28.5C 211.167,30.6667 209.667,32.1667 207.5,33C 165.5,33.6667 123.5,33.6667 81.5,33C 79.3333,32.1667 77.8333,30.6667 77,28.5C 76.5012,24.5138 76.3345,20.5138 76.5,16.5 Z"/></g>
<g><path style="opacity:0.994" fill="#000000" d="M 281.5,118.5 C 358.167,118.5 434.833,118.5 511.5,118.5C 511.5,164.167 511.5,209.833 511.5,255.5C 434.833,255.5 358.167,255.5 281.5,255.5C 227.5,255.5 173.5,255.5 119.5,255.5C 119.5,210.167 119.5,164.833 119.5,119.5C 173.669,119.832 227.669,119.499 281.5,118.5 Z"/></g>
<g><path style="opacity:1" fill="#5a6772" d="M 281.5,118.5 C 227.669,119.499 173.669,119.832 119.5,119.5C 119.5,164.833 119.5,210.167 119.5,255.5C 118.501,210.003 118.168,164.336 118.5,118.5C 172.833,118.5 227.167,118.5 281.5,118.5 Z"/></g>
<g><path style="opacity:1" fill="#b1151b" d="M 136.5,136.5 C 255.666,135.5 374.999,135.167 494.5,135.5C 494.5,169.833 494.5,204.167 494.5,238.5C 374.833,238.5 255.167,238.5 135.5,238.5C 135.168,204.329 135.502,170.329 136.5,136.5 Z"/></g>
<g><path style="opacity:1" fill="#eb1b23" d="M 136.5,136.5 C 255.5,136.5 374.5,136.5 493.5,136.5C 493.5,170.167 493.5,203.833 493.5,237.5C 374.5,237.5 255.5,237.5 136.5,237.5C 136.5,203.833 136.5,170.167 136.5,136.5 Z"/></g>
<g><path style="opacity:1" fill="#040000" d="M 434.5,153.5 C 440.167,153.5 445.833,153.5 451.5,153.5C 451.334,159.842 451.5,166.175 452,172.5C 457.187,169.24 462.521,166.24 468,163.5C 471.454,167.566 474.287,172.066 476.5,177C 471.532,180.823 466.199,184.156 460.5,187C 465.583,190.292 470.75,193.459 476,196.5C 474.181,201.796 471.515,206.796 468,211.5C 462.915,208.374 457.749,205.374 452.5,202.5C 451.504,208.798 451.17,215.132 451.5,221.5C 445.833,221.5 440.167,221.5 434.5,221.5C 434.83,215.132 434.496,208.798 433.5,202.5C 428.666,205.752 423.666,208.752 418.5,211.5C 415.375,206.751 412.375,201.917 409.5,197C 415.17,194.167 420.503,190.834 425.5,187C 420.167,183.667 414.833,180.333 409.5,177C 412.141,172.205 415.141,167.705 418.5,163.5C 423.796,166.3 428.963,169.3 434,172.5C 434.5,166.175 434.666,159.842 434.5,153.5 Z"/></g>
<g><path style="opacity:1" fill="#030000" d="M 349.5,153.5 C 355.167,153.5 360.833,153.5 366.5,153.5C 366.334,159.842 366.5,166.175 367,172.5C 372.085,169.374 377.251,166.374 382.5,163.5C 385.859,167.705 388.859,172.205 391.5,177C 386.503,180.834 381.17,184.167 375.5,187C 380.334,190.252 385.334,193.252 390.5,196C 391.451,196.718 391.617,197.551 391,198.5C 388.083,202.666 385.416,206.999 383,211.5C 377.915,208.374 372.749,205.374 367.5,202.5C 366.504,208.798 366.17,215.132 366.5,221.5C 360.833,221.5 355.167,221.5 349.5,221.5C 349.83,215.132 349.496,208.798 348.5,202.5C 343.251,205.374 338.085,208.374 333,211.5C 329.915,207 327.082,202.333 324.5,197.5C 329.626,193.765 334.959,190.265 340.5,187C 335.002,184.085 329.668,180.919 324.5,177.5C 326.766,172.42 329.599,167.754 333,163.5C 338.479,166.24 343.813,169.24 349,172.5C 349.5,166.175 349.666,159.842 349.5,153.5 Z"/></g>
<g><path style="opacity:1" fill="#6d0d11" d="M 264.5,153.5 C 269.975,152.511 275.642,152.178 281.5,152.5C 281.177,159.022 281.51,165.355 282.5,171.5C 282.44,172.043 282.107,172.376 281.5,172.5C 280.504,166.202 280.17,159.868 280.5,153.5C 275.167,153.5 269.833,153.5 264.5,153.5 Z"/></g>
<g><path style="opacity:1" fill="#040000" d="M 264.5,153.5 C 269.833,153.5 275.167,153.5 280.5,153.5C 280.17,159.868 280.504,166.202 281.5,172.5C 282.107,172.376 282.44,172.043 282.5,171.5C 286.806,169.012 291.139,166.512 295.5,164C 296.784,163.316 297.951,163.483 299,164.5C 301.184,168.677 303.35,172.843 305.5,177C 300.702,180.571 295.702,183.904 290.5,187C 294.898,190.394 299.565,193.394 304.5,196C 305.022,196.561 305.355,197.228 305.5,198C 303.218,202.731 300.551,207.231 297.5,211.5C 292.251,208.626 287.085,205.626 282,202.5C 281.5,208.825 281.334,215.158 281.5,221.5C 275.833,221.5 270.167,221.5 264.5,221.5C 264.83,215.132 264.496,208.798 263.5,202.5C 258.167,205.5 252.833,208.5 247.5,211.5C 244.433,207.091 241.767,202.424 239.5,197.5C 244.626,193.765 249.959,190.265 255.5,187C 249.801,184.156 244.468,180.823 239.5,177C 241.617,172.716 243.95,168.549 246.5,164.5C 247.365,163.417 248.365,163.251 249.5,164C 253.861,166.512 258.194,169.012 262.5,171.5C 262.56,172.043 262.893,172.376 263.5,172.5C 264.496,166.202 264.83,159.868 264.5,153.5 Z"/></g>
<g><path style="opacity:1" fill="#7b0e12" d="M 264.5,153.5 C 264.83,159.868 264.496,166.202 263.5,172.5C 262.893,172.376 262.56,172.043 262.5,171.5C 263.167,165.5 263.833,159.5 264.5,153.5 Z"/></g>
<g><path style="opacity:1" fill="#040000" d="M 178.5,153.5 C 184.167,153.5 189.833,153.5 195.5,153.5C 195.334,159.842 195.5,166.175 196,172.5C 201.187,169.24 206.521,166.24 212,163.5C 215.454,167.566 218.287,172.066 220.5,177C 215.532,180.823 210.199,184.156 204.5,187C 209.583,190.292 214.75,193.459 220,196.5C 218.181,201.796 215.515,206.796 212,211.5C 206.915,208.374 201.749,205.374 196.5,202.5C 195.504,208.798 195.17,215.132 195.5,221.5C 189.833,221.5 184.167,221.5 178.5,221.5C 178.83,215.132 178.496,208.798 177.5,202.5C 172.666,205.752 167.666,208.752 162.5,211.5C 159.375,206.751 156.375,201.917 153.5,197C 159.17,194.167 164.503,190.834 169.5,187C 164.167,183.667 158.833,180.333 153.5,177C 156.141,172.205 159.141,167.705 162.5,163.5C 167.796,166.3 172.963,169.3 178,172.5C 178.5,166.175 178.666,159.842 178.5,153.5 Z"/></g>
<g><path style="opacity:1" fill="#94c4ea" d="M 16.5,355.5 C 21.7265,373.798 29.0598,391.298 38.5,408C 111.001,408.167 183.334,408.667 255.5,409.5C 181.5,409.5 107.5,409.5 33.5,409.5C 33.5,415.167 33.5,420.833 33.5,426.5C 39.1667,426.5 44.8333,426.5 50.5,426.5C 71.6873,458.013 100.021,480.679 135.5,494.5C 102.498,494.667 69.4983,494.5 36.5,494C 26.6667,490.833 20.1667,484.333 17,474.5C 16.5,434.835 16.3333,395.168 16.5,355.5 Z"/></g>
<g><path style="opacity:1" fill="#050607" d="M 255.5,409.5 C 255.5,415.167 255.5,420.833 255.5,426.5C 187.167,426.5 118.833,426.5 50.5,426.5C 44.8333,426.5 39.1667,426.5 33.5,426.5C 33.5,420.833 33.5,415.167 33.5,409.5C 107.5,409.5 181.5,409.5 255.5,409.5 Z"/></g>
<g><path style="opacity:1" fill="#030404" d="M 139.5,434.5 C 159.344,434.18 169.511,443.847 170,463.5C 164.407,483.043 151.907,489.543 132.5,483C 119.1,473.567 115.933,461.4 123,446.5C 127.279,440.707 132.779,436.707 139.5,434.5 Z"/></g>
<g><path style="opacity:1" fill="#555658" d="M 142.5,451.5 C 151.008,451.833 154.175,456.166 152,464.5C 147,469.833 142,469.833 137,464.5C 135.102,458.387 136.935,454.053 142.5,451.5 Z"/></g>
</svg>
