<?xml version="1.0" encoding="UTF-8"?>
<!DOCTYPE svg PUBLIC "-//W3C//DTD SVG 1.1//EN" "http://www.w3.org/Graphics/SVG/1.1/DTD/svg11.dtd">
<svg xmlns="http://www.w3.org/2000/svg" version="1.1" width="512px" height="512px" style="shape-rendering:geometricPrecision; text-rendering:geometricPrecision; image-rendering:optimizeQuality; fill-rule:evenodd; clip-rule:evenodd" xmlns:xlink="http://www.w3.org/1999/xlink">
<g><path style="opacity:0.974" fill="#fefefe" d="M 243.5,40.5 C 330.964,41.6291 379.964,85.6291 390.5,172.5C 407.269,183.11 419.102,197.777 426,216.5C 429.763,226.551 432.429,236.884 434,247.5C 439.886,299.183 439.886,350.849 434,402.5C 427.948,429.784 412.114,448.951 386.5,460C 371.399,463.953 356.066,466.62 340.5,468C 278.671,472.305 217.004,470.638 155.5,463C 138.392,461.408 122.392,456.408 107.5,448C 91.252,437.068 81.4187,421.901 78,402.5C 73.6477,368.473 71.8144,334.307 72.5,300C 72.4234,281.145 72.9234,262.312 74,243.5C 75.7,217.025 85.8667,194.525 104.5,176C 108.698,172.97 113.032,170.137 117.5,167.5C 120.67,137.8 131.17,111.133 149,87.5C 174.237,59.1316 205.737,43.465 243.5,40.5 Z"/></g>
<g><path style="opacity:1" fill="#6a1b2d" d="M 235.5,64.5 C 319.629,61.7975 363.463,102.464 367,186.5C 389.086,196.254 402.753,212.92 408,236.5C 416.157,286.66 417.491,336.993 412,387.5C 410.878,413.599 398.045,430.765 373.5,439C 352.748,443.528 331.748,445.861 310.5,446C 256.22,448.597 202.22,445.93 148.5,438C 128.109,436.242 113.276,426.408 104,408.5C 102.099,402.299 100.765,395.965 100,389.5C 95.3992,342.574 94.3992,295.574 97,248.5C 97.7571,231.228 103.09,215.561 113,201.5C 120.693,192.574 130.193,186.574 141.5,183.5C 140.925,145.696 154.258,113.863 181.5,88C 197.539,75.4762 215.539,67.6429 235.5,64.5 Z"/></g>
<g><path style="opacity:1" fill="#f0efef" d="M 349.5,149.5 C 348.732,150.263 348.232,151.263 348,152.5C 328.862,102.168 292.362,79.6677 238.5,85C 208.242,89.282 184.742,104.115 168,129.5C 167.162,130.999 166.329,131.332 165.5,130.5C 178.884,101.273 201.551,83.7734 233.5,78C 259.023,75.0262 283.356,79.0262 306.5,90C 329.263,103.673 343.596,123.507 349.5,149.5 Z"/></g>
<g><path style="opacity:1" fill="#e4e4e4" d="M 349.5,149.5 C 352.405,158.935 353.571,168.601 353,178.5C 352.5,179.667 351.667,180.5 350.5,181C 347.132,181.543 343.799,181.376 340.5,180.5C 333.582,177.079 328.415,171.746 325,164.5C 315.353,127.535 291.353,109.535 253,110.5C 228.916,109.857 208.582,118.19 192,135.5C 190.08,138.339 188.413,141.339 187,144.5C 184.317,154.275 181.317,163.942 178,173.5C 175.834,176.532 173,178.198 169.5,178.5C 164.507,178.916 159.507,179.249 154.5,179.5C 154.569,162.237 158.235,145.904 165.5,130.5C 166.329,131.332 167.162,130.999 168,129.5C 184.742,104.115 208.242,89.282 238.5,85C 292.362,79.6677 328.862,102.168 348,152.5C 348.232,151.263 348.732,150.263 349.5,149.5 Z"/></g>
<g><path style="opacity:1" fill="#c5c3c3" d="M 340.5,180.5 C 335.838,180.038 331.171,179.538 326.5,179C 324.671,178.727 323.171,177.893 322,176.5C 319.474,158.216 311.641,142.716 298.5,130C 283.594,119.979 267.094,115.146 249,115.5C 208.848,116.655 187.348,137.155 184.5,177C 179.536,177.912 174.536,178.412 169.5,178.5C 173,178.198 175.834,176.532 178,173.5C 181.317,163.942 184.317,154.275 187,144.5C 188.413,141.339 190.08,138.339 192,135.5C 208.582,118.19 228.916,109.857 253,110.5C 291.353,109.535 315.353,127.535 325,164.5C 328.415,171.746 333.582,177.079 340.5,180.5 Z"/></g>
<g><path style="opacity:1" fill="#fdfdfd" d="M 236.5,128.5 C 254.095,126.261 270.761,129.094 286.5,137C 300.328,146.158 307.161,158.992 307,175.5C 302.414,176.153 297.747,176.487 293,176.5C 262.505,175.782 232.005,175.282 201.5,175C 197.997,157.984 203.663,144.651 218.5,135C 224.435,132.303 230.435,130.136 236.5,128.5 Z"/></g>
<g><path style="opacity:1" fill="#f8ab50" d="M 398.5,258.5 C 394.336,241.835 387.17,226.502 377,212.5C 370.609,205.583 362.775,201.083 353.5,199C 343.574,197.106 333.574,195.772 323.5,195C 278.236,191.203 232.902,189.87 187.5,191C 172.362,191.934 157.362,193.767 142.5,196.5C 145.842,194.665 149.509,193.498 153.5,193C 182.361,189.129 211.361,187.296 240.5,187.5C 276.313,187.378 311.98,189.545 347.5,194C 376.201,199.369 392.701,216.536 397,245.5C 397.923,249.79 398.423,254.123 398.5,258.5 Z"/></g>
<g><path style="opacity:1" fill="#fe790d" d="M 398.5,258.5 C 400.023,265.611 400.69,272.944 400.5,280.5C 401.572,315.113 399.072,349.447 393,383.5C 387.886,407.614 373.053,420.78 348.5,423C 302.214,426.655 255.881,427.321 209.5,425C 190.403,423.864 171.403,421.864 152.5,419C 135.346,415.179 124.846,404.679 121,387.5C 117.461,371.7 115.461,355.7 115,339.5C 114.333,309.5 114.333,279.5 115,249.5C 115.325,235.546 118.158,222.213 123.5,209.5C 128.455,203.221 134.789,198.888 142.5,196.5C 157.362,193.767 172.362,191.934 187.5,191C 232.902,189.87 278.236,191.203 323.5,195C 333.574,195.772 343.574,197.106 353.5,199C 362.775,201.083 370.609,205.583 377,212.5C 387.17,226.502 394.336,241.835 398.5,258.5 Z"/></g>
<g><path style="opacity:1" fill="#ec6102" d="M 123.5,209.5 C 118.158,222.213 115.325,235.546 115,249.5C 114.333,279.5 114.333,309.5 115,339.5C 115.461,355.7 117.461,371.7 121,387.5C 124.846,404.679 135.346,415.179 152.5,419C 171.403,421.864 190.403,423.864 209.5,425C 255.881,427.321 302.214,426.655 348.5,423C 373.053,420.78 387.886,407.614 393,383.5C 399.072,349.447 401.572,315.113 400.5,280.5C 402.021,296.638 402.688,312.972 402.5,329.5C 402.774,348.553 401.941,367.553 400,386.5C 398.228,411.271 385.062,425.438 360.5,429C 295.138,436.538 229.805,436.204 164.5,428C 154.396,426.513 144.396,424.513 134.5,422C 124.177,417.677 117.344,410.177 114,399.5C 111.227,378.929 109.561,358.263 109,337.5C 108.107,306.148 108.441,274.814 110,243.5C 110.977,235.569 112.977,227.903 116,220.5C 118.029,216.42 120.529,212.754 123.5,209.5 Z"/></g>
<g><path style="opacity:1" fill="#ea6003" d="M 273.5,381.5 C 275.162,377.676 276.329,373.676 277,369.5C 276.819,356.838 276.819,344.172 277,331.5C 277.511,329.122 278.178,326.788 279,324.5C 283.209,317.414 286.876,310.081 290,302.5C 291.468,276.789 279.301,262.456 253.5,259.5C 238.305,261.05 227.638,268.716 221.5,282.5C 226.429,265.74 237.596,256.406 255,254.5C 274.29,257.453 287.29,268.12 294,286.5C 294.667,292.167 294.667,297.833 294,303.5C 290.263,312.638 286.263,321.638 282,330.5C 281.838,344.198 281.171,357.865 280,371.5C 278.727,375.57 276.561,378.903 273.5,381.5 Z"/></g>
<g><path style="opacity:1" fill="#69182b" d="M 273.5,381.5 C 271.806,383.861 269.806,385.861 267.5,387.5C 249.797,395.565 238.297,390.232 233,371.5C 232.667,357.5 232.333,343.5 232,329.5C 231.489,327.122 230.822,324.788 230,322.5C 225.927,315.687 222.427,308.687 219.5,301.5C 219.232,295.051 219.898,288.717 221.5,282.5C 227.638,268.716 238.305,261.05 253.5,259.5C 279.301,262.456 291.468,276.789 290,302.5C 286.876,310.081 283.209,317.414 279,324.5C 278.178,326.788 277.511,329.122 277,331.5C 276.819,344.172 276.819,356.838 277,369.5C 276.329,373.676 275.162,377.676 273.5,381.5 Z"/></g>
<g><path style="opacity:1" fill="#e7114d" d="M 273.5,308.5 C 274.969,298.869 272.636,290.369 266.5,283C 254.996,276.836 246.496,279.669 241,291.5C 240.333,293.833 240.333,296.167 241,298.5C 244.891,306.281 248.225,314.281 251,322.5C 251.575,333.228 251.075,343.895 249.5,354.5C 248.953,362.389 250.286,369.889 253.5,377C 255.473,377.495 257.473,377.662 259.5,377.5C 253.224,380.054 248.39,378.387 245,372.5C 244.715,357.826 244.715,343.16 245,328.5C 244.654,325.424 243.988,322.424 243,319.5C 238.864,312.895 235.531,305.895 233,298.5C 231.629,287.601 235.462,279.101 244.5,273C 256.441,269.09 266.274,272.256 274,282.5C 279.824,291.256 279.658,299.923 273.5,308.5 Z"/></g>
<g><path style="opacity:1" fill="#fd2d5f" d="M 273.5,308.5 C 270.153,313.861 267.319,319.528 265,325.5C 264.783,341.855 264.117,358.188 263,374.5C 262.578,376.426 261.411,377.426 259.5,377.5C 257.473,377.662 255.473,377.495 253.5,377C 250.286,369.889 248.953,362.389 249.5,354.5C 251.075,343.895 251.575,333.228 251,322.5C 248.225,314.281 244.891,306.281 241,298.5C 240.333,296.167 240.333,293.833 241,291.5C 246.496,279.669 254.996,276.836 266.5,283C 272.636,290.369 274.969,298.869 273.5,308.5 Z"/></g>
<g><path style="opacity:1" fill="#f8ac52" d="M 219.5,301.5 C 222.427,308.687 225.927,315.687 230,322.5C 230.822,324.788 231.489,327.122 232,329.5C 232.333,343.5 232.667,357.5 233,371.5C 238.297,390.232 249.797,395.565 267.5,387.5C 254.026,398.131 242.193,396.464 232,382.5C 229.523,377.069 227.856,371.403 227,365.5C 226.707,352.492 226.707,339.492 227,326.5C 224.863,320.421 222.529,314.421 220,308.5C 219.503,306.19 219.337,303.857 219.5,301.5 Z"/></g>
</svg>
