<?xml version="1.0" encoding="UTF-8"?>
<!DOCTYPE svg PUBLIC "-//W3C//DTD SVG 1.1//EN" "http://www.w3.org/Graphics/SVG/1.1/DTD/svg11.dtd">
<svg xmlns="http://www.w3.org/2000/svg" version="1.1" width="512px" height="512px" style="shape-rendering:geometricPrecision; text-rendering:geometricPrecision; image-rendering:optimizeQuality; fill-rule:evenodd; clip-rule:evenodd" xmlns:xlink="http://www.w3.org/1999/xlink">
<g><path style="opacity:0.959" fill="#fefefe" d="M 33.5,15.5 C 182.502,16.0345 331.502,16.8678 480.5,18C 493,21.1667 500.833,29 504,41.5C 505.523,131.828 505.856,222.161 505,312.5C 501.929,323.238 495.096,330.404 484.5,334C 446.845,335.291 409.178,335.791 371.5,335.5C 374.77,349.248 379.27,362.581 385,375.5C 398.181,398.172 412.348,420.172 427.5,441.5C 420.613,456.557 410.28,468.723 396.5,478C 383.231,488.257 368.231,494.09 351.5,495.5C 347.418,495.298 343.418,494.631 339.5,493.5C 324.413,466.995 309.58,440.328 295,413.5C 273.431,407.721 254.764,397.054 239,381.5C 228.846,368.874 224.679,354.541 226.5,338.5C 162.651,337.649 98.8175,337.983 35,339.5C 20.0352,338.537 10.3685,330.87 6,316.5C 5.23091,224.496 5.56425,132.496 7,40.5C 10.8919,26.7709 19.7252,18.4376 33.5,15.5 Z"/></g>
<g><path style="opacity:1" fill="#b2aca3" d="M 492.5,60.5 C 334.834,60.0369 177.167,59.7036 19.5,59.5C 19.5,54.5 19.5,49.5 19.5,44.5C 20.7009,36.7921 25.0342,31.6255 32.5,29C 180.499,29.1084 328.499,29.4418 476.5,30C 484.667,32.1667 489.833,37.3333 492,45.5C 492.499,50.4889 492.666,55.4889 492.5,60.5 Z"/></g>
<g><path style="opacity:1" fill="#e9e4da" d="M 19.5,44.5 C 19.5,49.5 19.5,54.5 19.5,59.5C 177.167,59.7036 334.834,60.0369 492.5,60.5C 492.995,144.915 492.495,229.249 491,313.5C 488.708,317.788 485.208,320.622 480.5,322C 438.331,322.167 396.331,322.667 354.5,323.5C 353.151,308.814 345.151,300.147 330.5,297.5C 328.208,296.376 326.042,295.043 324,293.5C 322.699,293.639 321.866,294.305 321.5,295.5C 318.5,295.5 315.5,295.5 312.5,295.5C 310.716,294.28 309.05,294.28 307.5,295.5C 304.239,296.378 300.906,297.044 297.5,297.5C 295.716,296.28 294.05,296.28 292.5,297.5C 289.583,298.417 286.583,299.084 283.5,299.5C 282.833,299.167 282.167,298.833 281.5,298.5C 275.204,289.265 269.371,279.598 264,269.5C 261.002,265.008 257.835,260.675 254.5,256.5C 255.804,255.013 256.97,253.346 258,251.5C 258.667,242.5 258.667,233.5 258,224.5C 256.5,221.667 254.333,219.5 251.5,218C 193.167,217.333 134.833,217.333 76.5,218C 73.6667,219.5 71.5,221.667 70,224.5C 69.3333,233.5 69.3333,242.5 70,251.5C 71.5,255 74,257.5 77.5,259C 130.499,259.5 183.499,259.667 236.5,259.5C 243.632,276.933 250.632,294.433 257.5,312C 256.944,312.383 256.611,312.883 256.5,313.5C 252.337,316.128 249.337,319.795 247.5,324.5C 174.167,325.131 100.834,325.298 27.5,325C 22.4488,322.28 19.2822,318.113 18,312.5C 17.8471,223 18.3471,133.666 19.5,44.5 Z"/></g>
<g><path style="opacity:1" fill="#feb023" d="M 364.5,96.5 C 367.518,96.3354 370.518,96.502 373.5,97C 390.638,109.788 409.972,115.121 431.5,113C 434.333,114.5 436.5,116.667 438,119.5C 438.667,148.833 438.667,178.167 438,207.5C 435.527,225.623 427.027,240.123 412.5,251C 401.616,259.109 389.616,265.109 376.5,269C 367.055,270.516 358.055,269.182 349.5,265C 332.415,258.24 318.582,247.407 308,232.5C 304.144,225.599 301.477,218.266 300,210.5C 299.333,179.833 299.333,149.167 300,118.5C 301.167,116 303,114.167 305.5,113C 323.813,113.838 341.146,110.171 357.5,102C 359.903,100.147 362.236,98.3137 364.5,96.5 Z"/></g>
<g><path style="opacity:1" fill="#fe605a" d="M 368.5,108.5 C 385.743,120.98 405.076,126.313 426.5,124.5C 426.667,151.835 426.5,179.169 426,206.5C 423.413,220.504 416.58,232.004 405.5,241C 394.359,249.239 382.025,254.739 368.5,257.5C 346.65,253.131 329.483,241.798 317,223.5C 314.558,218.067 312.892,212.4 312,206.5C 311.5,179.169 311.333,151.835 311.5,124.5C 328.337,125.456 344.337,122.29 359.5,115C 362.921,113.301 365.921,111.135 368.5,108.5 Z"/></g>
<g><path style="opacity:1" fill="#14acfd" d="M 72.5,120.5 C 95.8357,120.333 119.169,120.5 142.5,121C 143.333,121.833 144.167,122.667 145,123.5C 145.667,128.167 145.667,132.833 145,137.5C 143.833,138.667 142.667,139.833 141.5,141C 118.833,141.667 96.1667,141.667 73.5,141C 71.6667,140.5 70.5,139.333 70,137.5C 69.3333,132.833 69.3333,128.167 70,123.5C 71.045,122.627 71.8783,121.627 72.5,120.5 Z"/></g>
<g><path style="opacity:1" fill="#7cce02" d="M 401.5,139.5 C 412.368,139.22 415.868,144.22 412,154.5C 397.624,176.086 383.124,197.586 368.5,219C 363.8,222.212 359.133,222.212 354.5,219C 346.209,206.92 338.043,194.753 330,182.5C 328.167,172.333 332.333,168.167 342.5,170C 348.854,177.862 354.854,186.029 360.5,194.5C 371.861,178.972 383.027,163.306 394,147.5C 396.028,144.308 398.528,141.641 401.5,139.5 Z"/></g>
<g><path style="opacity:1" fill="#7fd116" d="M 78.5,159.5 C 135.501,159.333 192.501,159.5 249.5,160C 253.275,161.442 256.108,163.942 258,167.5C 258.92,177.242 258.587,186.908 257,196.5C 255.062,199.106 252.562,200.939 249.5,202C 192.5,202.667 135.5,202.667 78.5,202C 75.4384,200.939 72.9384,199.106 71,196.5C 69.4133,186.908 69.0799,177.242 70,167.5C 72.0738,163.923 74.9072,161.256 78.5,159.5 Z"/></g>
<g><path style="opacity:1" fill="#fbfdf8" d="M 96.5,168.5 C 101.367,167.533 103.534,169.533 103,174.5C 105.967,171.009 108.8,170.842 111.5,174C 109.369,176.968 107.036,179.801 104.5,182.5C 106.483,184.984 108.65,187.317 111,189.5C 111.667,190.5 111.667,191.5 111,192.5C 107.794,194.124 105.128,193.458 103,190.5C 103.225,193.846 101.892,196.18 99,197.5C 96.1078,196.18 94.7745,193.846 95,190.5C 92.9746,192.879 90.4746,193.713 87.5,193C 86.9415,192.275 86.6082,191.442 86.5,190.5C 88.7447,187.911 91.078,185.244 93.5,182.5C 91.4698,180.393 89.3031,178.393 87,176.5C 85.8333,172.333 87.3333,170.833 91.5,172C 92.354,173.022 93.354,173.855 94.5,174.5C 95.2945,172.505 95.9612,170.505 96.5,168.5 Z"/></g>
<g><path style="opacity:1" fill="#fbfdf7" d="M 129.5,168.5 C 134.272,167.603 136.605,169.603 136.5,174.5C 139.636,170.614 142.636,170.614 145.5,174.5C 143.167,177.5 140.5,180.167 137.5,182.5C 140.124,184.622 142.624,186.955 145,189.5C 145.667,190.5 145.667,191.5 145,192.5C 141.684,194.069 138.851,193.402 136.5,190.5C 135.692,192.423 135.192,194.423 135,196.5C 133.333,197.833 131.667,197.833 130,196.5C 129.808,194.423 129.308,192.423 128.5,190.5C 126.408,193.152 123.742,193.986 120.5,193C 119.978,192.439 119.645,191.772 119.5,191C 121.661,187.673 124.327,184.84 127.5,182.5C 124.5,180.167 121.833,177.5 119.5,174.5C 122.364,170.614 125.364,170.614 128.5,174.5C 129.466,172.604 129.799,170.604 129.5,168.5 Z"/></g>
<g><path style="opacity:1" fill="#fbfdf8" d="M 163.5,168.5 C 168.272,167.603 170.605,169.603 170.5,174.5C 172.26,171.979 174.593,171.146 177.5,172C 178.059,172.725 178.392,173.558 178.5,174.5C 176.885,177.783 174.551,180.449 171.5,182.5C 173.19,185.024 175.357,187.024 178,188.5C 179.08,191.237 178.246,192.904 175.5,193.5C 173.563,192.74 171.73,191.74 170,190.5C 170.225,193.846 168.892,196.18 166,197.5C 163.108,196.18 161.775,193.846 162,190.5C 159.123,194.164 156.29,194.331 153.5,191C 155.631,188.032 157.964,185.199 160.5,182.5C 158.517,180.016 156.35,177.683 154,175.5C 153.085,173.08 153.918,171.747 156.5,171.5C 158.697,171.848 160.53,172.848 162,174.5C 162.315,172.414 162.815,170.414 163.5,168.5 Z"/></g>
<g><path style="opacity:1" fill="#fbfdf8" d="M 197.5,168.5 C 202.367,167.533 204.534,169.533 204,174.5C 206.967,171.009 209.8,170.842 212.5,174C 210.399,176.943 208.066,179.776 205.5,182.5C 207.483,184.984 209.65,187.317 212,189.5C 212.667,190.5 212.667,191.5 212,192.5C 208.794,194.124 206.128,193.458 204,190.5C 204.225,193.846 202.892,196.18 200,197.5C 197.108,196.18 195.775,193.846 196,190.5C 193.975,192.879 191.475,193.713 188.5,193C 187.941,192.275 187.608,191.442 187.5,190.5C 189.745,187.911 192.078,185.244 194.5,182.5C 192.47,180.393 190.303,178.393 188,176.5C 186.833,172.333 188.333,170.833 192.5,172C 193.354,173.022 194.354,173.855 195.5,174.5C 196.295,172.505 196.961,170.505 197.5,168.5 Z"/></g>
<g><path style="opacity:1" fill="#fbfdf8" d="M 231.5,168.5 C 235.619,168.199 237.619,170.199 237.5,174.5C 240.636,170.614 243.636,170.614 246.5,174.5C 244.167,177.5 241.5,180.167 238.5,182.5C 241.124,184.622 243.624,186.955 246,189.5C 246.667,190.5 246.667,191.5 246,192.5C 242.684,194.069 239.851,193.402 237.5,190.5C 236.692,192.423 236.192,194.423 236,196.5C 234.542,197.747 233.042,197.747 231.5,196.5C 230.833,194.5 230.167,192.5 229.5,190.5C 227.408,193.152 224.742,193.986 221.5,193C 220.978,192.439 220.645,191.772 220.5,191C 222.661,187.673 225.327,184.84 228.5,182.5C 225.5,180.167 222.833,177.5 220.5,174.5C 223.364,170.614 226.364,170.614 229.5,174.5C 230.295,172.505 230.961,170.505 231.5,168.5 Z"/></g>
<g><path style="opacity:1" fill="#7dd00e" d="M 254.5,256.5 C 252.528,252.895 249.861,249.895 246.5,247.5C 244.443,243.933 241.777,240.766 238.5,238C 241.28,236.188 243.78,234.021 246,231.5C 246.684,230.216 246.517,229.049 245.5,228C 242.258,227.014 239.592,227.848 237.5,230.5C 236.692,228.577 236.192,226.577 236,224.5C 234.333,223.167 232.667,223.167 231,224.5C 230.808,226.577 230.308,228.577 229.5,230.5C 227.408,227.848 224.742,227.014 221.5,228C 220.483,229.049 220.316,230.216 221,231.5C 223.22,234.021 225.72,236.188 228.5,238C 225.078,240.719 222.578,243.886 221,247.5C 224.448,249.988 227.448,249.322 230,245.5C 230.333,247.5 230.667,249.5 231,251.5C 232.356,252.38 233.856,252.714 235.5,252.5C 235.448,254.903 235.781,257.236 236.5,259.5C 183.499,259.667 130.499,259.5 77.5,259C 74,257.5 71.5,255 70,251.5C 69.3333,242.5 69.3333,233.5 70,224.5C 71.5,221.667 73.6667,219.5 76.5,218C 134.833,217.333 193.167,217.333 251.5,218C 254.333,219.5 256.5,221.667 258,224.5C 258.667,233.5 258.667,242.5 258,251.5C 256.97,253.346 255.804,255.013 254.5,256.5 Z"/></g>
<g><path style="opacity:1" fill="#fbfdf8" d="M 97.5,223.5 C 101.667,223.846 103.5,226.18 103,230.5C 105.877,226.836 108.71,226.669 111.5,230C 109.369,232.968 107.036,235.801 104.5,238.5C 107.066,241.224 109.399,244.057 111.5,247C 108.651,250.192 105.818,250.025 103,246.5C 102.956,251.633 100.622,253.299 96,251.5C 95.7978,249.744 95.2978,248.078 94.5,246.5C 92.7399,249.021 90.4066,249.854 87.5,249C 86.9415,248.275 86.6082,247.442 86.5,246.5C 88.1152,243.217 90.4485,240.551 93.5,238.5C 91.8333,236.167 89.8333,234.167 87.5,232.5C 85.9061,229.855 86.5727,228.188 89.5,227.5C 91.6967,227.848 93.53,228.848 95,230.5C 95.1534,227.849 95.9867,225.516 97.5,223.5 Z"/></g>
<g><path style="opacity:1" fill="#fbfdf8" d="M 130.5,223.5 C 132.144,223.286 133.644,223.62 135,224.5C 135.192,226.577 135.692,228.577 136.5,230.5C 138.592,227.848 141.258,227.014 144.5,228C 145.022,228.561 145.355,229.228 145.5,230C 143.512,233.321 140.846,235.988 137.5,238C 140.922,240.719 143.422,243.886 145,247.5C 141.4,250.354 138.4,249.687 136,245.5C 135.667,247.5 135.333,249.5 135,251.5C 133.333,252.833 131.667,252.833 130,251.5C 129.667,249.5 129.333,247.5 129,245.5C 125.943,249.951 122.776,250.284 119.5,246.5C 121.984,243.516 124.65,240.682 127.5,238C 124.72,236.188 122.22,234.021 120,231.5C 119.333,230.5 119.333,229.5 120,228.5C 123.316,226.931 126.149,227.598 128.5,230.5C 129.275,228.157 129.942,225.823 130.5,223.5 Z"/></g>
<g><path style="opacity:1" fill="#fbfdf8" d="M 164.5,223.5 C 168.667,223.846 170.5,226.18 170,230.5C 173.251,226.751 176.084,226.751 178.5,230.5C 176.255,233.089 173.922,235.756 171.5,238.5C 173.791,240.288 175.957,242.288 178,244.5C 179.167,248.667 177.667,250.167 173.5,249C 170.528,245.707 169.028,246.541 169,251.5C 164.378,253.299 162.044,251.633 162,246.5C 159.975,248.879 157.475,249.713 154.5,249C 153.941,248.275 153.608,247.442 153.5,246.5C 155.745,243.911 158.078,241.244 160.5,238.5C 158.517,236.016 156.35,233.683 154,231.5C 153.333,230.5 153.333,229.5 154,228.5C 157.206,226.876 159.872,227.542 162,230.5C 162.153,227.849 162.987,225.516 164.5,223.5 Z"/></g>
<g><path style="opacity:1" fill="#fbfdf8" d="M 198.5,223.5 C 202.667,223.846 204.5,226.18 204,230.5C 206.877,226.836 209.71,226.669 212.5,230C 210.369,232.968 208.036,235.801 205.5,238.5C 207.19,241.024 209.357,243.024 212,244.5C 213.08,247.237 212.246,248.904 209.5,249.5C 207.563,248.74 205.73,247.74 204,246.5C 203.956,251.633 201.622,253.299 197,251.5C 196.798,249.744 196.298,248.078 195.5,246.5C 193.74,249.021 191.407,249.854 188.5,249C 187.941,248.275 187.608,247.442 187.5,246.5C 189.115,243.217 191.449,240.551 194.5,238.5C 192.833,236.167 190.833,234.167 188.5,232.5C 186.906,229.855 187.573,228.188 190.5,227.5C 192.697,227.848 194.53,228.848 196,230.5C 196.153,227.849 196.987,225.516 198.5,223.5 Z"/></g>
<g><path style="opacity:1" fill="#fbfdf8" d="M 246.5,247.5 C 240.254,243.674 236.587,245.341 235.5,252.5C 233.856,252.714 232.356,252.38 231,251.5C 230.667,249.5 230.333,247.5 230,245.5C 227.448,249.322 224.448,249.988 221,247.5C 222.578,243.886 225.078,240.719 228.5,238C 225.72,236.188 223.22,234.021 221,231.5C 220.316,230.216 220.483,229.049 221.5,228C 224.742,227.014 227.408,227.848 229.5,230.5C 230.308,228.577 230.808,226.577 231,224.5C 232.667,223.167 234.333,223.167 236,224.5C 236.192,226.577 236.692,228.577 237.5,230.5C 239.592,227.848 242.258,227.014 245.5,228C 246.517,229.049 246.684,230.216 246,231.5C 243.78,234.021 241.28,236.188 238.5,238C 241.777,240.766 244.443,243.933 246.5,247.5 Z"/></g>
<g><path style="opacity:1" fill="#fead92" d="M 246.5,247.5 C 249.861,249.895 252.528,252.895 254.5,256.5C 257.835,260.675 261.002,265.008 264,269.5C 269.371,279.598 275.204,289.265 281.5,298.5C 280.5,298.5 279.5,298.5 278.5,298.5C 279.928,305.357 282.928,311.357 287.5,316.5C 289.266,316.566 290.266,315.732 290.5,314C 287.763,309.359 285.429,304.525 283.5,299.5C 286.583,299.084 289.583,298.417 292.5,297.5C 295.233,303.594 299.399,308.594 305,312.5C 307.188,311.941 307.854,310.607 307,308.5C 303.353,305.175 300.186,301.508 297.5,297.5C 300.906,297.044 304.239,296.378 307.5,295.5C 307.351,296.552 307.517,297.552 308,298.5C 311.46,302.465 315.126,306.132 319,309.5C 321.188,308.941 321.854,307.607 321,305.5C 318.331,302 315.498,298.667 312.5,295.5C 315.5,295.5 318.5,295.5 321.5,295.5C 324.384,298.981 327.384,302.481 330.5,306C 331.793,306.49 333.127,306.657 334.5,306.5C 334.116,303.104 332.782,300.104 330.5,297.5C 345.151,300.147 353.151,308.814 354.5,323.5C 359.023,339.904 363.856,356.237 369,372.5C 382.114,396.762 396.614,420.095 412.5,442.5C 398.079,464.404 377.912,477.737 352,482.5C 350.5,482.167 349,481.833 347.5,481.5C 332.413,454.995 317.58,428.328 303,401.5C 280.897,397.121 262.23,386.787 247,370.5C 240.853,361.06 238.186,350.727 239,339.5C 240.863,334.417 243.696,330.084 247.5,326.5C 247.34,328.199 247.506,329.866 248,331.5C 253.031,338.022 258.197,344.356 263.5,350.5C 263.694,352.912 265.027,353.912 267.5,353.5C 271.124,358.141 275.791,360.975 281.5,362C 277.679,355.519 274.013,349.019 270.5,342.5C 268.988,338.799 266.988,335.466 264.5,332.5C 262.96,327.082 261.127,321.749 259,316.5C 258.623,315.058 257.79,314.058 256.5,313.5C 256.611,312.883 256.944,312.383 257.5,312C 250.632,294.433 243.632,276.933 236.5,259.5C 235.781,257.236 235.448,254.903 235.5,252.5C 236.587,245.341 240.254,243.674 246.5,247.5 Z"/></g>
<g><path style="opacity:1" fill="#ee7051" d="M 312.5,295.5 C 315.498,298.667 318.331,302 321,305.5C 321.854,307.607 321.188,308.941 319,309.5C 315.126,306.132 311.46,302.465 308,298.5C 307.517,297.552 307.351,296.552 307.5,295.5C 309.05,294.28 310.716,294.28 312.5,295.5 Z"/></g>
<g><path style="opacity:1" fill="#ee7152" d="M 330.5,297.5 C 332.782,300.104 334.116,303.104 334.5,306.5C 333.127,306.657 331.793,306.49 330.5,306C 327.384,302.481 324.384,298.981 321.5,295.5C 321.866,294.305 322.699,293.639 324,293.5C 326.042,295.043 328.208,296.376 330.5,297.5 Z"/></g>
<g><path style="opacity:1" fill="#ed6f50" d="M 297.5,297.5 C 300.186,301.508 303.353,305.175 307,308.5C 307.854,310.607 307.188,311.941 305,312.5C 299.399,308.594 295.233,303.594 292.5,297.5C 294.05,296.28 295.716,296.28 297.5,297.5 Z"/></g>
<g><path style="opacity:1" fill="#ed6f50" d="M 281.5,298.5 C 282.167,298.833 282.833,299.167 283.5,299.5C 285.429,304.525 287.763,309.359 290.5,314C 290.266,315.732 289.266,316.566 287.5,316.5C 282.928,311.357 279.928,305.357 278.5,298.5C 279.5,298.5 280.5,298.5 281.5,298.5 Z"/></g>
<g><path style="opacity:1" fill="#ee7051" d="M 332.5,310.5 C 335.5,310.5 338.5,310.5 341.5,310.5C 341.714,312.144 341.38,313.644 340.5,315C 323.87,317.877 307.703,322.377 292,328.5C 288.993,326.961 288.826,325.128 291.5,323C 305.205,318.483 318.872,314.317 332.5,310.5 Z"/></g>
<g><path style="opacity:1" fill="#ec6d4f" d="M 256.5,313.5 C 257.79,314.058 258.623,315.058 259,316.5C 261.127,321.749 262.96,327.082 264.5,332.5C 260.914,331.207 257.248,330.207 253.5,329.5C 253.286,331.144 253.62,332.644 254.5,334C 258.683,336.257 263.016,338.257 267.5,340C 264.627,342.913 263.294,346.413 263.5,350.5C 258.197,344.356 253.031,338.022 248,331.5C 247.506,329.866 247.34,328.199 247.5,326.5C 247.5,325.833 247.5,325.167 247.5,324.5C 249.337,319.795 252.337,316.128 256.5,313.5 Z"/></g>
<g><path style="opacity:1" fill="#c8543d" d="M 264.5,332.5 C 266.988,335.466 268.988,338.799 270.5,342.5C 269.184,346.041 268.184,349.708 267.5,353.5C 265.027,353.912 263.694,352.912 263.5,350.5C 263.294,346.413 264.627,342.913 267.5,340C 263.016,338.257 258.683,336.257 254.5,334C 253.62,332.644 253.286,331.144 253.5,329.5C 257.248,330.207 260.914,331.207 264.5,332.5 Z"/></g>
<g><path style="opacity:1" fill="#ed6e4f" d="M 270.5,342.5 C 274.013,349.019 277.679,355.519 281.5,362C 275.791,360.975 271.124,358.141 267.5,353.5C 268.184,349.708 269.184,346.041 270.5,342.5 Z"/></g>
</svg>
