<?xml version="1.0" encoding="UTF-8"?>
<!DOCTYPE svg PUBLIC "-//W3C//DTD SVG 1.1//EN" "http://www.w3.org/Graphics/SVG/1.1/DTD/svg11.dtd">
<svg xmlns="http://www.w3.org/2000/svg" version="1.1" width="512px" height="512px" style="shape-rendering:geometricPrecision; text-rendering:geometricPrecision; image-rendering:optimizeQuality; fill-rule:evenodd; clip-rule:evenodd" xmlns:xlink="http://www.w3.org/1999/xlink">
<g><path style="opacity:0.994" fill="#a59ae7" d="M 241.5,-0.5 C 308.167,-0.5 374.833,-0.5 441.5,-0.5C 444.429,0.53768 447.429,1.70435 450.5,3C 452.049,4.21398 453.215,5.71398 454,7.5C 455.588,22.104 456.422,36.7707 456.5,51.5C 439.497,51.3334 422.497,51.5001 405.5,52C 402.619,53.2506 400.786,55.4173 400,58.5C 399.114,67.895 399.447,77.2284 401,86.5C 401.392,89.455 402.892,91.6217 405.5,93C 422.579,94.4927 439.579,94.9927 456.5,94.5C 455.2,111.163 455.2,127.83 456.5,144.5C 455.873,150.155 455.373,155.821 455,161.5C 454.096,169.395 449.929,174.562 442.5,177C 432.533,178.165 422.533,178.665 412.5,178.5C 411.735,172.172 409.901,166.172 407,160.5C 405.442,158.641 403.609,157.141 401.5,156C 397.167,155.667 392.833,155.333 388.5,155C 386.094,153.378 384.261,151.211 383,148.5C 380.916,142.334 379.583,136 379,129.5C 378.72,112.405 377.387,95.4054 375,78.5C 372.098,60.2153 362.598,55.382 346.5,64C 339.233,71.9308 332.733,80.4308 327,89.5C 323.466,93.3689 319.633,96.8689 315.5,100C 306.536,103.343 299.869,100.843 295.5,92.5C 305.54,90.0615 313.707,84.7281 320,76.5C 320.483,75.552 320.649,74.552 320.5,73.5C 305.706,66.853 291.206,59.5196 277,51.5C 276.333,48.8333 276.333,46.1667 277,43.5C 279.765,32.2717 282.599,21.105 285.5,10C 268.833,9.91662 255.333,16.4166 245,29.5C 236.159,45.3797 236.492,61.0464 246,76.5C 249.559,80.6831 253.725,84.0165 258.5,86.5C 254.132,95.7652 250.632,105.432 248,115.5C 245.178,130.718 243.345,146.051 242.5,161.5C 239.805,158.474 237.138,155.474 234.5,152.5C 237.168,151.543 238.668,149.543 239,146.5C 240.174,141.06 239.174,136.06 236,131.5C 231.886,127.558 228.053,123.558 224.5,119.5C 224.333,82.1652 224.5,44.8318 225,7.5C 225.774,5.06068 227.274,3.22734 229.5,2C 233.637,1.16058 237.637,0.327248 241.5,-0.5 Z"/></g>
<g><path style="opacity:1" fill="#f8d77b" d="M 295.5,92.5 C 291.535,87.4566 287.202,82.6233 282.5,78C 277.5,74.6667 272.5,74.6667 267.5,78C 264.584,81.0874 261.584,83.9207 258.5,86.5C 253.725,84.0165 249.559,80.6831 246,76.5C 236.492,61.0464 236.159,45.3797 245,29.5C 255.333,16.4166 268.833,9.91662 285.5,10C 282.599,21.105 279.765,32.2717 277,43.5C 276.333,46.1667 276.333,48.8333 277,51.5C 291.206,59.5196 305.706,66.853 320.5,73.5C 320.649,74.552 320.483,75.552 320,76.5C 313.707,84.7281 305.54,90.0615 295.5,92.5 Z"/></g>
<g><path style="opacity:1" fill="#fdfcfe" d="M 290.5,9.5 C 302.06,10.6133 311.727,15.4466 319.5,24C 307.66,30.7542 295.66,37.2542 283.5,43.5C 283.167,43.1667 282.833,42.8333 282.5,42.5C 285.169,31.495 287.835,20.495 290.5,9.5 Z"/></g>
<g><path style="opacity:1" fill="#f7f6fd" d="M 346.5,15.5 C 347.978,15.238 349.311,15.5713 350.5,16.5C 352.879,21.0906 354.546,25.9239 355.5,31C 355.167,31.8333 354.833,32.6667 354.5,33.5C 353.026,32.5637 352.026,31.2303 351.5,29.5C 350.635,28.4173 349.635,28.2506 348.5,29C 346.503,31.4916 345.503,34.325 345.5,37.5C 343.654,37.7778 342.32,37.1112 341.5,35.5C 342.758,33.3516 342.758,31.1849 341.5,29C 344.448,25.0898 346.114,20.5898 346.5,15.5 Z"/></g>
<g><path style="opacity:1" fill="#f9f9fd" d="M 390.5,19.5 C 391.822,19.33 392.989,19.6634 394,20.5C 394.333,25.1667 394.667,29.8333 395,34.5C 397.254,30.9934 399.254,27.3267 401,23.5C 403.108,20.2098 405.441,19.8765 408,22.5C 408.333,24.8333 408.667,27.1667 409,29.5C 415.728,23.3278 419.228,24.9944 419.5,34.5C 428.644,29.1256 433.477,31.7923 434,42.5C 431.713,39.5591 429.213,36.8925 426.5,34.5C 424.045,34.8938 422.045,36.0604 420.5,38C 419.5,38.6667 418.5,38.6667 417.5,38C 415.811,35.4425 414.644,32.6092 414,29.5C 411.95,31.8878 409.616,33.8878 407,35.5C 405.013,34.8464 403.68,33.513 403,31.5C 400.868,35.9105 398.368,40.0771 395.5,44C 390.959,45.1321 388.792,43.2988 389,38.5C 387.403,42.9514 385.237,47.1181 382.5,51C 380.299,51.8249 378.466,51.3249 377,49.5C 374.942,42.0735 375.275,34.7402 378,27.5C 381.334,22.1415 384.334,22.4748 387,28.5C 387.72,25.2493 388.887,22.2493 390.5,19.5 Z"/></g>
<g><path style="opacity:1" fill="#da9173" d="M 320.5,30.5 C 322.39,30.2965 323.89,30.9632 325,32.5C 329.708,42.4381 330.708,52.7714 328,63.5C 327.152,65.8743 325.819,67.8743 324,69.5C 311.123,63.6453 298.623,57.1453 286.5,50C 298.059,43.7258 309.392,37.2258 320.5,30.5 Z"/></g>
<g><path style="opacity:1" fill="#afa5ea" d="M 381.5,31.5 C 383.216,32.5739 384.216,34.2406 384.5,36.5C 383.764,38.5405 382.931,40.5405 382,42.5C 381.501,38.8484 381.335,35.1817 381.5,31.5 Z"/></g>
<g><path style="opacity:1" fill="#f8f7fd" d="M 365.5,35.5 C 366.833,35.5 368.167,35.5 369.5,35.5C 369.67,36.8221 369.337,37.9887 368.5,39C 359.025,42.2422 349.692,45.7422 340.5,49.5C 340.33,48.1779 340.663,47.0113 341.5,46C 349.473,42.1743 357.473,38.6743 365.5,35.5 Z"/></g>
<g><path style="opacity:0.994" fill="#f8d87b" d="M 456.5,51.5 C 459.745,52.6275 461.578,54.9608 462,58.5C 463.511,69.1221 463.844,79.7888 463,90.5C 461.322,92.6659 459.155,93.9993 456.5,94.5C 439.579,94.9927 422.579,94.4927 405.5,93C 402.892,91.6217 401.392,89.455 401,86.5C 399.447,77.2284 399.114,67.895 400,58.5C 400.786,55.4173 402.619,53.2506 405.5,52C 422.497,51.5001 439.497,51.3334 456.5,51.5 Z"/></g>
<g><path style="opacity:0.986" fill="#f8d77b" d="M 224.5,119.5 C 228.053,123.558 231.886,127.558 236,131.5C 239.174,136.06 240.174,141.06 239,146.5C 238.668,149.543 237.168,151.543 234.5,152.5C 226.925,143.423 218.258,135.59 208.5,129C 203.981,126.662 199.314,126.162 194.5,127.5C 192.925,126.544 191.258,125.877 189.5,125.5C 188.564,124.026 187.23,123.026 185.5,122.5C 185.215,120.712 185.548,119.045 186.5,117.5C 192.437,116.064 196.27,112.397 198,106.5C 199.494,97.5242 197.994,89.1908 193.5,81.5C 193.5,81.1667 193.5,80.8333 193.5,80.5C 190.327,77.8737 187.16,78.207 184,81.5C 184.58,77.468 187.08,75.8014 191.5,76.5C 191.212,68.8802 187.545,66.5469 180.5,69.5C 179.932,72.452 178.766,75.1187 177,77.5C 177.108,73.8432 177.108,70.1765 177,66.5C 173.715,71.4537 170.048,76.1203 166,80.5C 166.359,85.8073 166.359,91.1406 166,96.5C 162.683,102.965 163.016,109.298 167,115.5C 167.588,120.528 167.422,125.528 166.5,130.5C 166.5,134.167 166.5,137.833 166.5,141.5C 166.683,143.936 166.016,146.103 164.5,148C 158.956,149.983 153.289,151.65 147.5,153C 144.367,153.86 141.7,155.36 139.5,157.5C 137.833,157.5 136.167,157.5 134.5,157.5C 132.003,155.156 130.003,152.489 128.5,149.5C 124.612,137.689 126.112,126.689 133,116.5C 139.273,111.451 142.773,104.951 143.5,97C 141.367,88.2224 141.2,79.3891 143,70.5C 149.544,57.3932 159.877,52.3932 174,55.5C 180.736,53.0326 187.569,52.8659 194.5,55C 196.333,56.8333 198.167,58.6667 200,60.5C 203.061,67.0185 205.728,73.6852 208,80.5C 217.723,88.9399 221.39,99.6066 219,112.5C 219.935,115.595 221.769,117.929 224.5,119.5 Z"/></g>
<g><path style="opacity:1" fill="#fefbf3" d="M 419.5,55.5 C 427.649,54.7863 429.982,57.953 426.5,65C 421.316,67.5742 417.983,66.0742 416.5,60.5C 417.092,58.5775 418.092,56.9108 419.5,55.5 Z"/></g>
<g><path style="opacity:1" fill="#fefcf6" d="M 440.5,55.5 C 442.252,55.4176 443.252,56.2509 443.5,58C 435.928,68.245 427.594,77.9117 418.5,87C 417.552,87.4828 416.552,87.6495 415.5,87.5C 415.343,86.1266 415.51,84.7932 416,83.5C 424.748,74.5912 432.915,65.2578 440.5,55.5 Z"/></g>
<g><path style="opacity:1" fill="#f9dc88" d="M 421.5,58.5 C 426.34,59.1885 426.673,60.8552 422.5,63.5C 420.296,62.218 419.962,60.5514 421.5,58.5 Z"/></g>
<g><path style="opacity:0.998" fill="#f9f8fc" d="M 412.5,178.5 C 410.833,178.5 409.167,178.5 407.5,178.5C 408.631,163.796 401.965,157.629 387.5,160C 383.612,157.778 380.779,154.612 379,150.5C 376.835,143.684 375.501,136.684 375,129.5C 374.386,112.096 373.053,94.7624 371,77.5C 368.525,63.844 361.359,60.344 349.5,67C 341.061,76.7156 333.228,86.8823 326,97.5C 322.21,101.138 318.043,104.138 313.5,106.5C 308.42,104.23 303.087,102.897 297.5,102.5C 294.805,99.4744 292.138,96.4744 289.5,93.5C 287.141,88.6313 283.807,84.4647 279.5,81C 272.12,79.5322 266.454,82.0322 262.5,88.5C 256.816,97.3768 252.983,107.043 251,117.5C 248.488,137.556 245.655,157.556 242.5,177.5C 240.896,176.713 240.229,175.38 240.5,173.5C 240.53,169.382 241.197,165.382 242.5,161.5C 243.345,146.051 245.178,130.718 248,115.5C 250.632,105.432 254.132,95.7652 258.5,86.5C 261.584,83.9207 264.584,81.0874 267.5,78C 272.5,74.6667 277.5,74.6667 282.5,78C 287.202,82.6233 291.535,87.4566 295.5,92.5C 299.869,100.843 306.536,103.343 315.5,100C 319.633,96.8689 323.466,93.3689 327,89.5C 332.733,80.4308 339.233,71.9308 346.5,64C 362.598,55.382 372.098,60.2153 375,78.5C 377.387,95.4054 378.72,112.405 379,129.5C 379.583,136 380.916,142.334 383,148.5C 384.261,151.211 386.094,153.378 388.5,155C 392.833,155.333 397.167,155.667 401.5,156C 403.609,157.141 405.442,158.641 407,160.5C 409.901,166.172 411.735,172.172 412.5,178.5 Z"/></g>
<g><path style="opacity:0.999" fill="#a59ae7" d="M 407.5,178.5 C 390.185,177.604 372.852,177.271 355.5,177.5C 351.931,176.811 348.431,175.811 345,174.5C 342.723,172.126 340.557,169.626 338.5,167C 337.906,166.536 337.239,166.369 336.5,166.5C 335.8,162.202 335.467,157.869 335.5,153.5C 340.851,137.301 339.018,121.968 330,107.5C 326.912,104.903 323.412,104.069 319.5,105C 318.299,105.903 317.465,107.069 317,108.5C 315.887,107.695 314.721,107.028 313.5,106.5C 318.043,104.138 322.21,101.138 326,97.5C 333.228,86.8823 341.061,76.7156 349.5,67C 361.359,60.344 368.525,63.844 371,77.5C 373.053,94.7624 374.386,112.096 375,129.5C 375.501,136.684 376.835,143.684 379,150.5C 380.779,154.612 383.612,157.778 387.5,160C 401.965,157.629 408.631,163.796 407.5,178.5 Z"/></g>
<g><path style="opacity:1" fill="#fef9ed" d="M 150.5,67.5 C 153.076,67.7218 153.91,69.0551 153,71.5C 151.116,73.5763 148.949,73.9097 146.5,72.5C 147.857,70.8144 149.19,69.1477 150.5,67.5 Z"/></g>
<g><path style="opacity:1" fill="#fefbf4" d="M 434.5,77.5 C 443.192,76.7624 445.858,80.2624 442.5,88C 436.687,90.9903 432.687,89.4903 430.5,83.5C 430.866,80.7441 432.2,78.7441 434.5,77.5 Z"/></g>
<g><path style="opacity:1" fill="#f7d77e" d="M 289.5,93.5 C 280.003,94.2665 271.003,92.5999 262.5,88.5C 266.454,82.0322 272.12,79.5322 279.5,81C 283.807,84.4647 287.141,88.6313 289.5,93.5 Z"/></g>
<g><path style="opacity:1" fill="#f9d980" d="M 435.5,80.5 C 440.159,80.0146 441.492,81.848 439.5,86C 434.728,86.8104 433.395,84.9771 435.5,80.5 Z"/></g>
<g><path style="opacity:1" fill="#8a7fd0" d="M 193.5,80.5 C 193.5,80.8333 193.5,81.1667 193.5,81.5C 191.872,84.148 190.206,84.148 188.5,81.5C 190.045,80.5481 191.712,80.2148 193.5,80.5 Z"/></g>
<g><path style="opacity:0.999" fill="#a59ae7" d="M 262.5,88.5 C 271.003,92.5999 280.003,94.2665 289.5,93.5C 292.138,96.4744 294.805,99.4744 297.5,102.5C 293.993,101.994 290.826,102.66 288,104.5C 287.254,107.789 288.42,110.289 291.5,112C 286.285,111.831 281.452,112.997 277,115.5C 276.731,118.28 277.898,120.446 280.5,122C 283.154,122.941 285.821,123.774 288.5,124.5C 287.159,132.213 285.493,139.88 283.5,147.5C 283.363,149.841 284.03,151.841 285.5,153.5C 283.168,155.333 280.502,156.666 277.5,157.5C 277.977,158.478 278.643,159.311 279.5,160C 282.531,160.495 285.531,160.329 288.5,159.5C 287.759,165.471 287.425,171.471 287.5,177.5C 272.435,178.579 257.435,178.579 242.5,177.5C 245.655,157.556 248.488,137.556 251,117.5C 252.983,107.043 256.816,97.3768 262.5,88.5 Z"/></g>
<g><path style="opacity:0.998" fill="#f8d77b" d="M 297.5,102.5 C 303.087,102.897 308.42,104.23 313.5,106.5C 314.721,107.028 315.887,107.695 317,108.5C 317.465,107.069 318.299,105.903 319.5,105C 323.412,104.069 326.912,104.903 330,107.5C 339.018,121.968 340.851,137.301 335.5,153.5C 333.196,154.498 330.863,154.665 328.5,154C 327.762,160.891 325.095,166.891 320.5,172C 316.741,173.879 313.075,175.713 309.5,177.5C 304.807,178.978 299.974,179.978 295,180.5C 292.044,180.432 289.544,179.432 287.5,177.5C 287.425,171.471 287.759,165.471 288.5,159.5C 288.56,158.957 288.893,158.624 289.5,158.5C 293.81,161.359 297.81,161.025 301.5,157.5C 298.498,156.666 295.832,155.333 293.5,153.5C 307.451,156.719 315.118,151.386 316.5,137.5C 309.295,135.8 305.962,131.134 306.5,123.5C 300.545,124.363 294.545,124.697 288.5,124.5C 285.821,123.774 283.154,122.941 280.5,122C 277.898,120.446 276.731,118.28 277,115.5C 281.452,112.997 286.285,111.831 291.5,112C 288.42,110.289 287.254,107.789 288,104.5C 290.826,102.66 293.993,101.994 297.5,102.5 Z"/></g>
<g><path style="opacity:1" fill="#f6f4fc" d="M 403.5,102.5 C 406.605,102.599 409.272,103.599 411.5,105.5C 410.311,106.429 408.978,106.762 407.5,106.5C 407.364,109.551 407.698,112.551 408.5,115.5C 408.292,118.185 407.125,118.851 405,117.5C 404.501,113.848 404.335,110.182 404.5,106.5C 402.5,106.5 400.5,106.5 398.5,106.5C 398.5,105.5 398.5,104.5 398.5,103.5C 400.415,103.784 402.081,103.451 403.5,102.5 Z"/></g>
<g><path style="opacity:1" fill="#f6f5fc" d="M 422.5,106.5 C 424.288,106.215 425.955,106.548 427.5,107.5C 425.203,110.29 423.536,109.956 422.5,106.5 Z"/></g>
<g><path style="opacity:1" fill="#fef9ec" d="M 326.5,108.5 C 329.297,108.967 330.631,110.633 330.5,113.5C 327.53,113.254 326.197,111.588 326.5,108.5 Z"/></g>
<g><path style="opacity:1" fill="#f8f7fd" d="M 422.5,110.5 C 424.5,110.5 426.5,110.5 428.5,110.5C 428.5,111.5 428.5,112.5 428.5,113.5C 426.076,113.808 423.743,113.474 421.5,112.5C 421.863,111.817 422.196,111.15 422.5,110.5 Z"/></g>
<g><path style="opacity:0.996" fill="#d99071" d="M 193.5,80.5 C 191.712,80.2148 190.045,80.5481 188.5,81.5C 190.206,84.148 191.872,84.148 193.5,81.5C 197.994,89.1908 199.494,97.5242 198,106.5C 196.27,112.397 192.437,116.064 186.5,117.5C 185.548,119.045 185.215,120.712 185.5,122.5C 184.373,123.122 183.373,123.955 182.5,125C 184.37,127.04 186.37,128.873 188.5,130.5C 190.311,133.444 192.144,136.444 194,139.5C 193.815,135.489 195.648,133.489 199.5,133.5C 199.334,138.179 199.501,142.845 200,147.5C 206.06,158.456 213.227,168.622 221.5,178C 222.167,178.667 222.833,178.667 223.5,178C 227.689,174.31 232.022,170.81 236.5,167.5C 237.857,169.565 239.19,171.565 240.5,173.5C 240.229,175.38 240.896,176.713 242.5,177.5C 246.06,187.196 247.56,197.196 247,207.5C 245.411,213.917 241.577,218.251 235.5,220.5C 229.459,221.407 224.126,219.907 219.5,216C 211.784,208.124 205.451,199.291 200.5,189.5C 199.404,186.968 198.071,184.635 196.5,182.5C 191.393,170.286 185.226,158.619 178,147.5C 177.51,145.455 177.677,143.455 178.5,141.5C 178.184,138.007 179.184,134.674 181.5,131.5C 180.573,129.054 178.906,128.221 176.5,129C 174.336,129.914 172.336,131.081 170.5,132.5C 169.378,131.37 168.044,130.703 166.5,130.5C 167.422,125.528 167.588,120.528 167,115.5C 163.016,109.298 162.683,102.965 166,96.5C 166.359,91.1406 166.359,85.8073 166,80.5C 170.048,76.1203 173.715,71.4537 177,66.5C 177.108,70.1765 177.108,73.8432 177,77.5C 178.766,75.1187 179.932,72.452 180.5,69.5C 187.545,66.5469 191.212,68.8802 191.5,76.5C 187.08,75.8014 184.58,77.468 184,81.5C 187.16,78.207 190.327,77.8737 193.5,80.5 Z"/></g>
<g><path style="opacity:1" fill="#fdf9f8" d="M 174.5,96.5 C 179.41,97.7396 184.41,98.573 189.5,99C 192.637,103.095 191.637,105.762 186.5,107C 180.012,108.093 175.678,105.593 173.5,99.5C 173.685,98.4163 174.018,97.4163 174.5,96.5 Z"/></g>
<g><path style="opacity:1" fill="#8b81d1" d="M 173.5,84.5 C 178.943,84.2013 179.61,85.5346 175.5,88.5C 173.889,87.6798 173.222,86.3464 173.5,84.5 Z"/></g>
<g><path style="opacity:1" fill="#fcfaf8" d="M 185.5,122.5 C 187.23,123.026 188.564,124.026 189.5,125.5C 189.784,127.415 189.451,129.081 188.5,130.5C 186.37,128.873 184.37,127.04 182.5,125C 183.373,123.955 184.373,123.122 185.5,122.5 Z"/></g>
<g><path style="opacity:1" fill="#d58b6d" d="M 293.5,153.5 C 290.833,153.5 288.167,153.5 285.5,153.5C 284.03,151.841 283.363,149.841 283.5,147.5C 285.493,139.88 287.159,132.213 288.5,124.5C 294.545,124.697 300.545,124.363 306.5,123.5C 305.962,131.134 309.295,135.8 316.5,137.5C 315.118,151.386 307.451,156.719 293.5,153.5 Z"/></g>
<g><path style="opacity:1" fill="#fefcf7" d="M 130.5,126.5 C 131.5,126.5 132.5,126.5 133.5,126.5C 133.799,128.604 133.466,130.604 132.5,132.5C 130.717,130.977 130.051,128.977 130.5,126.5 Z"/></g>
<g><path style="opacity:1" fill="#7e76d0" d="M 189.5,125.5 C 191.258,125.877 192.925,126.544 194.5,127.5C 199.314,126.162 203.981,126.662 208.5,129C 218.258,135.59 226.925,143.423 234.5,152.5C 237.138,155.474 239.805,158.474 242.5,161.5C 241.197,165.382 240.53,169.382 240.5,173.5C 239.19,171.565 237.857,169.565 236.5,167.5C 232.022,170.81 227.689,174.31 223.5,178C 222.833,178.667 222.167,178.667 221.5,178C 213.227,168.622 206.06,158.456 200,147.5C 199.501,142.845 199.334,138.179 199.5,133.5C 195.648,133.489 193.815,135.489 194,139.5C 192.144,136.444 190.311,133.444 188.5,130.5C 189.451,129.081 189.784,127.415 189.5,125.5 Z"/></g>
<g><path style="opacity:1" fill="#fbf9fb" d="M 178.5,141.5 C 174.867,142.764 172.367,141.43 171,137.5C 170.124,139.635 168.624,140.969 166.5,141.5C 166.5,137.833 166.5,134.167 166.5,130.5C 168.044,130.703 169.378,131.37 170.5,132.5C 172.336,131.081 174.336,129.914 176.5,129C 178.906,128.221 180.573,129.054 181.5,131.5C 179.184,134.674 178.184,138.007 178.5,141.5 Z"/></g>
<g><path style="opacity:1" fill="#f7f6fd" d="M 417.5,127.5 C 418.695,127.866 419.361,128.699 419.5,130C 417.32,135.706 415.653,141.539 414.5,147.5C 413.5,147.5 412.5,147.5 411.5,147.5C 412.573,140.538 414.573,133.871 417.5,127.5 Z"/></g>
<g><path style="opacity:1" fill="#f4cc78" d="M 290.5,129.5 C 295.461,128.687 299.794,129.853 303.5,133C 300.655,132.951 297.822,132.451 295,131.5C 293.065,132.343 291.231,132.343 289.5,131.5C 289.863,130.817 290.196,130.15 290.5,129.5 Z"/></g>
<g><path style="opacity:1" fill="#f7f6fd" d="M 400.5,129.5 C 403.482,129.104 406.149,129.771 408.5,131.5C 408.167,132.5 407.5,133.167 406.5,133.5C 404.929,132.691 403.262,132.357 401.5,132.5C 401.33,133.822 401.663,134.989 402.5,136C 409.483,136.429 411.483,139.596 408.5,145.5C 406.099,147.062 404.099,146.729 402.5,144.5C 404.51,143.935 406.176,142.935 407.5,141.5C 404.975,140.043 402.308,138.709 399.5,137.5C 398.025,134.557 398.358,131.891 400.5,129.5 Z"/></g>
<g><path style="opacity:1" fill="#f6f5fc" d="M 431.5,129.5 C 432.5,129.5 433.5,129.5 434.5,129.5C 433.009,135.132 431.675,140.799 430.5,146.5C 429.178,146.67 428.011,146.337 427,145.5C 425.167,141.833 423.333,138.167 421.5,134.5C 421.833,133.5 422.5,132.833 423.5,132.5C 425.253,135.005 426.753,137.671 428,140.5C 429.323,136.873 430.489,133.207 431.5,129.5 Z"/></g>
<g><path style="opacity:1" fill="#dd9771" d="M 328.5,134.5 C 331.05,134.884 332.383,136.384 332.5,139C 332.4,141.37 331.4,143.203 329.5,144.5C 328.513,141.232 328.18,137.898 328.5,134.5 Z"/></g>
<g><path style="opacity:1" fill="#42915e" d="M 296.5,134.5 C 296.912,136.973 295.912,138.306 293.5,138.5C 290.174,138.033 289.841,136.866 292.5,135C 293.793,134.51 295.127,134.343 296.5,134.5 Z"/></g>
<g><path style="opacity:1" fill="#f0e9e2" d="M 296.5,134.5 C 301.711,136.497 301.378,138.164 295.5,139.5C 294.584,139.457 293.917,139.124 293.5,138.5C 295.912,138.306 296.912,136.973 296.5,134.5 Z"/></g>
<g><path style="opacity:0.998" fill="#7c75d0" d="M 178.5,141.5 C 177.677,143.455 177.51,145.455 178,147.5C 185.226,158.619 191.393,170.286 196.5,182.5C 196.439,184.592 195.439,186.092 193.5,187C 188.259,189.233 183.259,191.733 178.5,194.5C 182.122,195.659 185.789,195.825 189.5,195C 193.499,193.667 197.166,191.834 200.5,189.5C 205.451,199.291 211.784,208.124 219.5,216C 224.126,219.907 229.459,221.407 235.5,220.5C 236.773,222.713 237.773,225.046 238.5,227.5C 236.5,228.833 234.5,230.167 232.5,231.5C 221.263,236.69 209.597,240.69 197.5,243.5C 196.002,237.192 194.502,230.859 193,224.5C 192.167,223.667 191.333,222.833 190.5,222C 179.839,221.5 169.172,221.333 158.5,221.5C 154.048,212.372 147.714,204.705 139.5,198.5C 139.371,196.784 139.038,195.117 138.5,193.5C 139.075,181.508 139.409,169.508 139.5,157.5C 141.7,155.36 144.367,153.86 147.5,153C 153.289,151.65 158.956,149.983 164.5,148C 166.016,146.103 166.683,143.936 166.5,141.5C 168.624,140.969 170.124,139.635 171,137.5C 172.367,141.43 174.867,142.764 178.5,141.5 Z"/></g>
<g><path style="opacity:0.973" fill="#7d75d0" d="M 128.5,149.5 C 130.003,152.489 132.003,155.156 134.5,157.5C 135.674,165.603 135.674,173.769 134.5,182C 134.423,185.358 135.089,188.525 136.5,191.5C 130.406,191.014 124.406,190.014 118.5,188.5C 117.624,188.631 116.957,188.298 116.5,187.5C 119.27,174.41 123.27,161.744 128.5,149.5 Z"/></g>
<g><path style="opacity:0.992" fill="#da9272" d="M 335.5,153.5 C 335.467,157.869 335.8,162.202 336.5,166.5C 329.395,173.547 321.728,179.88 313.5,185.5C 312.763,183.392 312.096,181.225 311.5,179C 311.164,177.97 310.497,177.47 309.5,177.5C 313.075,175.713 316.741,173.879 320.5,172C 325.095,166.891 327.762,160.891 328.5,154C 330.863,154.665 333.196,154.498 335.5,153.5 Z"/></g>
<g><path style="opacity:1" fill="#fbf9f9" d="M 285.5,153.5 C 288.167,153.5 290.833,153.5 293.5,153.5C 295.832,155.333 298.498,156.666 301.5,157.5C 297.81,161.025 293.81,161.359 289.5,158.5C 288.893,158.624 288.56,158.957 288.5,159.5C 285.531,160.329 282.531,160.495 279.5,160C 278.643,159.311 277.977,158.478 277.5,157.5C 280.502,156.666 283.168,155.333 285.5,153.5 Z"/></g>
<g><path style="opacity:1" fill="#a296e3" d="M 134.5,157.5 C 136.167,157.5 137.833,157.5 139.5,157.5C 139.409,169.508 139.075,181.508 138.5,193.5C 137.833,192.833 137.167,192.167 136.5,191.5C 135.089,188.525 134.423,185.358 134.5,182C 135.674,173.769 135.674,165.603 134.5,157.5 Z"/></g>
<g><path style="opacity:1" fill="#f0effa" d="M 145.5,174.5 C 149.161,174.35 150.161,175.85 148.5,179C 147.552,179.483 146.552,179.649 145.5,179.5C 145.5,177.833 145.5,176.167 145.5,174.5 Z"/></g>
<g><path style="opacity:0.99" fill="#2d8a52" d="M 305.5,255.5 C 308.167,255.5 310.833,255.5 313.5,255.5C 308.612,235.873 308.279,216.207 312.5,196.5C 314.881,197.83 317.214,197.664 319.5,196C 327.974,189.856 336.141,183.356 344,176.5C 351.537,179.764 351.037,181.264 342.5,181C 339.96,183.205 337.793,185.705 336,188.5C 326.925,209.966 320.091,232.133 315.5,255C 317.865,259.233 319.532,263.733 320.5,268.5C 313.666,266.254 308.666,261.921 305.5,255.5 Z"/></g>
<g><path style="opacity:0.993" fill="#68ae7a" d="M 336.5,166.5 C 337.239,166.369 337.906,166.536 338.5,167C 340.557,169.626 342.723,172.126 345,174.5C 348.431,175.811 351.931,176.811 355.5,177.5C 367.135,184.982 375.302,195.315 380,208.5C 388.908,235.093 393.408,262.427 393.5,290.5C 393.231,294.931 393.564,299.265 394.5,303.5C 393.5,303.5 392.5,303.5 391.5,303.5C 370.758,303.821 350.091,303.488 329.5,302.5C 329.194,299.615 329.527,296.948 330.5,294.5C 350.5,294.5 370.5,294.5 390.5,294.5C 389.763,267.411 384.93,241.077 376,215.5C 372.489,206.859 367.656,199.192 361.5,192.5C 360.31,190.645 358.977,188.812 357.5,187C 356.552,186.517 355.552,186.351 354.5,186.5C 354.498,191.182 356.498,194.515 360.5,196.5C 360.496,205.06 360.329,213.727 360,222.5C 358.311,235.943 355.978,249.277 353,262.5C 350.524,271.619 345.691,279.119 338.5,285C 334.958,286.275 331.625,287.775 328.5,289.5C 302.084,291.324 275.75,290.49 249.5,287C 248.027,286.29 247.36,285.124 247.5,283.5C 247.5,276.167 247.5,268.833 247.5,261.5C 266.587,258.518 285.921,256.518 305.5,255.5C 308.666,261.921 313.666,266.254 320.5,268.5C 319.532,263.733 317.865,259.233 315.5,255C 320.091,232.133 326.925,209.966 336,188.5C 337.793,185.705 339.96,183.205 342.5,181C 351.037,181.264 351.537,179.764 344,176.5C 336.141,183.356 327.974,189.856 319.5,196C 317.214,197.664 314.881,197.83 312.5,196.5C 310.876,192.556 311.209,188.889 313.5,185.5C 321.728,179.88 329.395,173.547 336.5,166.5 Z"/></g>
<g><path style="opacity:1" fill="#f3f2fa" d="M 141.5,182.5 C 142.5,182.5 143.5,182.5 144.5,182.5C 144.663,184.857 144.497,187.19 144,189.5C 142.989,190.337 141.822,190.67 140.5,190.5C 140.279,187.721 140.612,185.054 141.5,182.5 Z"/></g>
<g><path style="opacity:1" fill="#a397e5" d="M 196.5,182.5 C 198.071,184.635 199.404,186.968 200.5,189.5C 197.166,191.834 193.499,193.667 189.5,195C 185.789,195.825 182.122,195.659 178.5,194.5C 183.259,191.733 188.259,189.233 193.5,187C 195.439,186.092 196.439,184.592 196.5,182.5 Z"/></g>
<g><path style="opacity:1" fill="#f3f8f4" d="M 361.5,192.5 C 361.768,194.099 361.434,195.432 360.5,196.5C 356.498,194.515 354.498,191.182 354.5,186.5C 355.552,186.351 356.552,186.517 357.5,187C 358.977,188.812 360.31,190.645 361.5,192.5 Z"/></g>
<g><path style="opacity:0.979" fill="#da9071" d="M 118.5,188.5 C 124.406,190.014 130.406,191.014 136.5,191.5C 137.167,192.167 137.833,192.833 138.5,193.5C 139.038,195.117 139.371,196.784 139.5,198.5C 140.207,206.322 139.207,213.989 136.5,221.5C 128.245,222.303 119.911,222.803 111.5,223C 110.667,223.833 109.833,224.667 109,225.5C 111.825,239.773 114.658,254.106 117.5,268.5C 113.515,276.76 109.515,285.093 105.5,293.5C 90.5,293.5 75.5,293.5 60.5,293.5C 60.5106,291.983 61.1772,290.816 62.5,290C 71.0801,286.049 80.0801,283.549 89.5,282.5C 95.7705,250.075 105.437,218.742 118.5,188.5 Z"/></g>
<g><path style="opacity:1" fill="#2d8952" d="M 361.5,192.5 C 367.656,199.192 372.489,206.859 376,215.5C 384.93,241.077 389.763,267.411 390.5,294.5C 370.5,294.5 350.5,294.5 330.5,294.5C 329.976,292.694 329.309,291.028 328.5,289.5C 331.625,287.775 334.958,286.275 338.5,285C 345.691,279.119 350.524,271.619 353,262.5C 355.978,249.277 358.311,235.943 360,222.5C 360.329,213.727 360.496,205.06 360.5,196.5C 361.434,195.432 361.768,194.099 361.5,192.5 Z"/></g>
<g><path style="opacity:1" fill="#f4f9f5" d="M 354.5,198.5 C 356.912,198.694 357.912,200.027 357.5,202.5C 356.167,202.5 354.833,202.5 353.5,202.5C 353.433,201.041 353.766,199.708 354.5,198.5 Z"/></g>
<g><path style="opacity:1" fill="#ecf4ef" d="M 361.5,200.5 C 365.908,200.062 367.575,202.062 366.5,206.5C 363.43,205.757 361.764,203.757 361.5,200.5 Z"/></g>
<g><path style="opacity:1" fill="#fcf5f2" d="M 221.5,209.5 C 225.167,209.833 227.167,211.833 227.5,215.5C 223.833,215.167 221.833,213.167 221.5,209.5 Z"/></g>
<g><path style="opacity:1" fill="#fbf2ee" d="M 231.5,212.5 C 232.873,212.343 234.207,212.51 235.5,213C 236.674,215.829 235.674,216.829 232.5,216C 231.663,214.989 231.33,213.822 231.5,212.5 Z"/></g>
<g><path style="opacity:0.994" fill="#a69be7" d="M 136.5,221.5 C 143.833,221.5 151.167,221.5 158.5,221.5C 169.172,221.333 179.839,221.5 190.5,222C 191.333,222.833 192.167,223.667 193,224.5C 194.502,230.859 196.002,237.192 197.5,243.5C 200.55,256.084 203.217,268.751 205.5,281.5C 208.167,281.5 210.833,281.5 213.5,281.5C 213.5,282.5 213.5,283.5 213.5,284.5C 215.65,284.095 217.65,283.595 219.5,283C 217.649,284.684 215.982,286.517 214.5,288.5C 215.167,288.833 215.833,289.167 216.5,289.5C 218.694,288.06 221.027,287.227 223.5,287C 221.21,288.777 219.543,290.944 218.5,293.5C 186.76,293.825 155.093,293.492 123.5,292.5C 121.139,284.725 119.139,276.725 117.5,268.5C 114.658,254.106 111.825,239.773 109,225.5C 109.833,224.667 110.667,223.833 111.5,223C 119.911,222.803 128.245,222.303 136.5,221.5 Z"/></g>
<g><path style="opacity:1" fill="#fefdfd" d="M 168.5,226.5 C 175.2,226.17 181.866,226.503 188.5,227.5C 193.121,245.362 197.121,263.362 200.5,281.5C 176.167,281.5 151.833,281.5 127.5,281.5C 123.342,263.867 119.342,246.201 115.5,228.5C 133.338,228.173 151.004,227.506 168.5,226.5 Z"/></g>
<g><path style="opacity:1" fill="#6fb17e" d="M 238.5,227.5 C 241.69,231.214 243.857,235.547 245,240.5C 246.23,247.445 246.73,254.445 246.5,261.5C 243.319,262.59 239.985,262.59 236.5,261.5C 236.388,254.82 236.054,248.153 235.5,241.5C 236.993,240.688 237.66,239.355 237.5,237.5C 237.714,235.058 236.714,233.392 234.5,232.5C 234.158,231.662 233.492,231.328 232.5,231.5C 234.5,230.167 236.5,228.833 238.5,227.5 Z"/></g>
<g><path style="opacity:1" fill="#2f8953" d="M 232.5,231.5 C 233.492,231.328 234.158,231.662 234.5,232.5C 233.15,235.733 233.483,238.733 235.5,241.5C 236.054,248.153 236.388,254.82 236.5,261.5C 231.461,260.574 226.461,260.574 221.5,261.5C 220.406,262.868 220.74,264.035 222.5,265C 224.833,265.333 227.167,265.667 229.5,266C 224.289,268.197 219.289,270.864 214.5,274C 212.963,275.11 212.297,276.61 212.5,278.5C 221.496,275.536 221.829,276.536 213.5,281.5C 210.833,281.5 208.167,281.5 205.5,281.5C 203.217,268.751 200.55,256.084 197.5,243.5C 209.597,240.69 221.263,236.69 232.5,231.5 Z"/></g>
<g><path style="opacity:1" fill="#f0f7f2" d="M 234.5,232.5 C 236.714,233.392 237.714,235.058 237.5,237.5C 237.66,239.355 236.993,240.688 235.5,241.5C 233.483,238.733 233.15,235.733 234.5,232.5 Z"/></g>
<g><path style="opacity:1" fill="#f9db85" d="M 164.5,235.5 C 165.873,235.343 167.207,235.51 168.5,236C 170.625,239.082 172.625,242.249 174.5,245.5C 176.422,244.04 177.089,242.373 176.5,240.5C 181.617,238.449 183.451,240.115 182,245.5C 181,246.833 180,246.833 179,245.5C 177.705,247.122 176.205,248.455 174.5,249.5C 173.833,249.333 173.167,249.167 172.5,249C 170.698,245.7 168.698,242.533 166.5,239.5C 163.164,249.008 160.331,258.675 158,268.5C 157.163,270.007 155.996,270.507 154.5,270C 151.958,265.749 149.291,261.582 146.5,257.5C 144.689,262.273 142.689,266.94 140.5,271.5C 140.134,268.564 140.634,265.564 142,262.5C 142.657,258.995 144.157,255.995 146.5,253.5C 149.876,256.714 152.71,260.381 155,264.5C 157.88,254.695 161.046,245.029 164.5,235.5 Z"/></g>
<g><path style="opacity:0.999" fill="#d89171" d="M 236.5,261.5 C 239.985,262.59 243.319,262.59 246.5,261.5C 246.833,261.5 247.167,261.5 247.5,261.5C 247.5,268.833 247.5,276.167 247.5,283.5C 246.833,283.5 246.167,283.5 245.5,283.5C 236.961,284.939 229.295,288.272 222.5,293.5C 221.039,294.686 219.705,294.686 218.5,293.5C 219.543,290.944 221.21,288.777 223.5,287C 221.027,287.227 218.694,288.06 216.5,289.5C 215.833,289.167 215.167,288.833 214.5,288.5C 215.982,286.517 217.649,284.684 219.5,283C 217.65,283.595 215.65,284.095 213.5,284.5C 213.5,283.5 213.5,282.5 213.5,281.5C 221.829,276.536 221.496,275.536 212.5,278.5C 212.297,276.61 212.963,275.11 214.5,274C 219.289,270.864 224.289,268.197 229.5,266C 227.167,265.667 224.833,265.333 222.5,265C 220.74,264.035 220.406,262.868 221.5,261.5C 226.461,260.574 231.461,260.574 236.5,261.5 Z"/></g>
<g><path style="opacity:0.921" fill="#f9d879" d="M 428.5,353.5 C 425.833,353.5 423.167,353.5 420.5,353.5C 428.285,335.651 435.785,317.651 443,299.5C 445.118,293.649 445.785,287.649 445,281.5C 444.333,280.833 443.667,280.167 443,279.5C 431.769,303.625 421.936,328.292 413.5,353.5C 410.615,353.806 407.948,353.473 405.5,352.5C 411.317,336.859 417.15,321.192 423,305.5C 426.492,296.349 430.659,287.516 435.5,279C 433.155,278.83 430.821,279.163 428.5,280C 418.854,303.796 410.188,327.963 402.5,352.5C 399.728,353.767 397.061,353.767 394.5,352.5C 401.847,328.641 410.181,305.141 419.5,282C 417.433,281.464 415.599,281.964 414,283.5C 410.167,297.499 405.667,311.166 400.5,324.5C 399.975,319.4 398.975,314.4 397.5,309.5C 400.234,303.797 402.067,297.797 403,291.5C 400.239,295.36 397.739,299.36 395.5,303.5C 395.167,303.5 394.833,303.5 394.5,303.5C 393.564,299.265 393.231,294.931 393.5,290.5C 406.454,275.008 423.121,268.841 443.5,272C 450.205,273.708 453.538,278.042 453.5,285C 451.758,296.561 448.591,307.727 444,318.5C 438.819,330.193 433.652,341.859 428.5,353.5 Z M 405.5,352.5 C 404.5,352.5 403.5,352.5 402.5,352.5C 410.188,327.963 418.854,303.796 428.5,280C 430.821,279.163 433.155,278.83 435.5,279C 430.659,287.516 426.492,296.349 423,305.5C 417.15,321.192 411.317,336.859 405.5,352.5 Z M 420.5,353.5 C 418.167,353.5 415.833,353.5 413.5,353.5C 421.936,328.292 431.769,303.625 443,279.5C 443.667,280.167 444.333,280.833 445,281.5C 445.785,287.649 445.118,293.649 443,299.5C 435.785,317.651 428.285,335.651 420.5,353.5 Z"/></g>
<g><path style="opacity:1" fill="#fadd8d" d="M 132.5,250.5 C 133.302,251.952 133.802,253.618 134,255.5C 134.499,261.491 134.666,267.491 134.5,273.5C 150.502,272.872 166.502,272.206 182.5,271.5C 182.5,272.5 182.5,273.5 182.5,274.5C 165.835,274.885 149.168,275.218 132.5,275.5C 132.5,267.167 132.5,258.833 132.5,250.5 Z"/></g>
<g><path style="opacity:1" fill="#eff7f1" d="M 321.5,279.5 C 322.833,279.5 324.167,279.5 325.5,279.5C 324.951,282.389 323.118,284.056 320,284.5C 318.72,284.387 317.887,283.72 317.5,282.5C 318.901,281.479 320.235,280.479 321.5,279.5 Z"/></g>
<g><path style="opacity:1" fill="#fbfcfb" d="M 330.5,280.5 C 335.276,280.671 335.609,281.671 331.5,283.5C 329.197,283.124 328.863,282.124 330.5,280.5 Z"/></g>
<g><path style="opacity:0.98" fill="#a699e4" d="M 245.5,283.5 C 246.952,286.694 246.619,289.694 244.5,292.5C 237.223,293.43 229.89,293.764 222.5,293.5C 229.295,288.272 236.961,284.939 245.5,283.5 Z"/></g>
<g><path style="opacity:0.97" fill="#f8d77a" d="M 123.5,292.5 C 155.093,293.492 186.76,293.825 218.5,293.5C 219.705,294.686 221.039,294.686 222.5,293.5C 229.89,293.764 237.223,293.43 244.5,292.5C 247.977,293.323 251.644,293.823 255.5,294C 257.059,295.996 257.726,298.329 257.5,301C 257.695,303.793 257.029,306.293 255.5,308.5C 251.18,309.112 246.847,309.778 242.5,310.5C 243.439,314.765 243.772,319.098 243.5,323.5C 241.171,325.841 239.171,328.508 237.5,331.5C 236.312,323.991 235.312,316.324 234.5,308.5C 233.167,308.5 231.833,308.5 230.5,308.5C 219.321,308.172 208.321,308.505 197.5,309.5C 195.167,309.5 192.833,309.5 190.5,309.5C 187.713,308.523 184.713,308.19 181.5,308.5C 168.323,308.171 155.323,308.505 142.5,309.5C 118.833,309.5 95.1667,309.5 71.5,309.5C 66.2374,374.888 60.4041,440.222 54,505.5C 52.6883,507.658 51.0217,507.991 49,506.5C 48.8333,504.333 48.6667,502.167 48.5,500C 53.6006,436.526 58.2673,373.026 62.5,309.5C 58.4862,309.666 54.4862,309.499 50.5,309C 49.5838,308.626 48.7504,308.126 48,307.5C 47.3333,303.167 47.3333,298.833 48,294.5C 52.0659,293.536 56.2325,293.203 60.5,293.5C 75.5,293.5 90.5,293.5 105.5,293.5C 111.69,293.823 117.69,293.49 123.5,292.5 Z"/></g>
<g><path style="opacity:0.998" fill="#a499e7" d="M 329.5,302.5 C 350.091,303.488 370.758,303.821 391.5,303.5C 392.716,309.145 392.716,314.812 391.5,320.5C 388.444,322.416 387.778,325.082 389.5,328.5C 387.972,329.802 386.972,331.469 386.5,333.5C 386.785,331.712 386.452,330.045 385.5,328.5C 383.783,329.668 383.116,331.335 383.5,333.5C 370.772,341.912 356.772,347.078 341.5,349C 319.123,350.616 296.789,351.949 274.5,353C 272.383,354.731 270.883,356.898 270,359.5C 264.099,390.337 257.433,421.004 250,451.5C 249.278,454.261 249.445,456.927 250.5,459.5C 241.8,458.447 233.133,457.114 224.5,455.5C 224.167,455.5 223.833,455.5 223.5,455.5C 219.51,456.176 217.843,454.51 218.5,450.5C 220.455,423.794 222.788,397.127 225.5,370.5C 227.71,361.305 229.876,351.971 232,342.5C 233.319,338.528 235.153,334.861 237.5,331.5C 239.171,328.508 241.171,325.841 243.5,323.5C 270.761,312.613 299.095,306.113 328.5,304C 329.056,303.617 329.389,303.117 329.5,302.5 Z"/></g>
<g><path style="opacity:0.998" fill="#7e76d1" d="M 391.5,303.5 C 392.5,303.5 393.5,303.5 394.5,303.5C 394.833,303.5 395.167,303.5 395.5,303.5C 395.971,305.579 396.637,307.579 397.5,309.5C 398.975,314.4 399.975,319.4 400.5,324.5C 400.239,329.225 398.905,333.559 396.5,337.5C 393.167,341.5 389.5,345.167 385.5,348.5C 382.123,350.175 378.789,351.842 375.5,353.5C 358.24,357.304 340.906,359.637 323.5,360.5C 323.167,360.5 322.833,360.5 322.5,360.5C 322.167,360.5 321.833,360.5 321.5,360.5C 313.179,359.648 304.846,359.481 296.5,360C 304.59,371.344 311.257,383.51 316.5,396.5C 317.403,400.889 319.069,404.889 321.5,408.5C 324.629,417.886 327.962,427.219 331.5,436.5C 330.812,437.855 329.812,438.855 328.5,439.5C 327.395,440.6 326.062,441.267 324.5,441.5C 317.828,418.486 308.661,396.486 297,375.5C 293.201,369.403 289.035,363.569 284.5,358C 281.571,357.223 278.737,357.39 276,358.5C 274.051,374.193 271.885,389.86 269.5,405.5C 265.569,424.235 260.569,442.568 254.5,460.5C 253.292,459.766 251.959,459.433 250.5,459.5C 249.445,456.927 249.278,454.261 250,451.5C 257.433,421.004 264.099,390.337 270,359.5C 270.883,356.898 272.383,354.731 274.5,353C 296.789,351.949 319.123,350.616 341.5,349C 356.772,347.078 370.772,341.912 383.5,333.5C 384.5,334.833 385.5,334.833 386.5,333.5C 386.972,331.469 387.972,329.802 389.5,328.5C 390.496,328.586 391.329,328.252 392,327.5C 392.796,324.961 392.629,322.628 391.5,320.5C 392.716,314.812 392.716,309.145 391.5,303.5 Z"/></g>
<g><path style="opacity:0.995" fill="#2d8952" d="M 181.5,308.5 C 175.769,325.525 169.936,342.525 164,359.5C 159.374,373.824 159.374,388.158 164,402.5C 171.294,423.877 177.461,445.544 182.5,467.5C 176.426,469.302 170.426,471.302 164.5,473.5C 156.956,455.409 149.123,437.409 141,419.5C 136.205,408.447 132.205,397.114 129,385.5C 127.218,376.846 127.218,368.179 129,359.5C 131.946,342.379 136.446,325.712 142.5,309.5C 155.323,308.505 168.323,308.171 181.5,308.5 Z"/></g>
<g><path style="opacity:0.976" fill="#68ae79" d="M 181.5,308.5 C 184.713,308.19 187.713,308.523 190.5,309.5C 183.16,330.693 176.826,352.193 171.5,374C 176.248,395.582 181.414,417.082 187,438.5C 188.826,447.121 190.326,455.788 191.5,464.5C 188.579,465.696 185.579,466.696 182.5,467.5C 177.461,445.544 171.294,423.877 164,402.5C 159.374,388.158 159.374,373.824 164,359.5C 169.936,342.525 175.769,325.525 181.5,308.5 Z"/></g>
<g><path style="opacity:0.995" fill="#2d8952" d="M 230.5,308.5 C 226.855,328.956 225.189,349.623 225.5,370.5C 222.788,397.127 220.455,423.794 218.5,450.5C 217.843,454.51 219.51,456.176 223.5,455.5C 223.076,465.62 221.743,475.62 219.5,485.5C 214.224,486.769 208.891,487.269 203.5,487C 201.963,485.89 201.297,484.39 201.5,482.5C 205.569,481.974 209.569,480.807 213.5,479C 215.068,475.332 216.068,471.499 216.5,467.5C 210.833,467.5 205.167,467.5 199.5,467.5C 197.687,457.884 196.854,447.884 197,437.5C 196.504,394.831 196.671,352.164 197.5,309.5C 208.321,308.505 219.321,308.172 230.5,308.5 Z"/></g>
<g><path style="opacity:1" fill="#6bae79" d="M 230.5,308.5 C 231.833,308.5 233.167,308.5 234.5,308.5C 235.312,316.324 236.312,323.991 237.5,331.5C 235.153,334.861 233.319,338.528 232,342.5C 229.876,351.971 227.71,361.305 225.5,370.5C 225.189,349.623 226.855,328.956 230.5,308.5 Z"/></g>
<g><path style="opacity:1" fill="#f5f4fb" d="M 391.5,320.5 C 392.629,322.628 392.796,324.961 392,327.5C 391.329,328.252 390.496,328.586 389.5,328.5C 387.778,325.082 388.444,322.416 391.5,320.5 Z"/></g>
<g><path style="opacity:1" fill="#fbfbfe" d="M 386.5,333.5 C 385.5,334.833 384.5,334.833 383.5,333.5C 383.116,331.335 383.783,329.668 385.5,328.5C 386.452,330.045 386.785,331.712 386.5,333.5 Z"/></g>
<g><path style="opacity:1" fill="#f9f9fd" d="M 243.5,331.5 C 244.649,331.791 245.316,332.624 245.5,334C 245.381,337.22 244.048,339.72 241.5,341.5C 240.018,337.727 240.684,334.393 243.5,331.5 Z"/></g>
<g><path style="opacity:0.932" fill="#f6d37b" d="M 396.5,337.5 C 395.167,342.5 393.833,347.5 392.5,352.5C 387.93,353.441 383.263,353.774 378.5,353.5C 380.369,352.835 382.369,352.169 384.5,351.5C 385.127,350.583 385.461,349.583 385.5,348.5C 389.5,345.167 393.167,341.5 396.5,337.5 Z"/></g>
<g><path style="opacity:1" fill="#da9171" d="M 392.5,352.5 C 393.167,352.5 393.833,352.5 394.5,352.5C 397.061,353.767 399.728,353.767 402.5,352.5C 403.5,352.5 404.5,352.5 405.5,352.5C 407.948,353.473 410.615,353.806 413.5,353.5C 415.833,353.5 418.167,353.5 420.5,353.5C 423.167,353.5 425.833,353.5 428.5,353.5C 432.496,354.163 434.829,356.496 435.5,360.5C 398.167,361.833 360.833,361.833 323.5,360.5C 340.906,359.637 358.24,357.304 375.5,353.5C 376.5,353.5 377.5,353.5 378.5,353.5C 383.263,353.774 387.93,353.441 392.5,352.5 Z"/></g>
<g><path style="opacity:1" fill="#e5f0ea" d="M 137.5,356.5 C 140.052,358.163 139.886,359.83 137,361.5C 135.198,359.727 135.365,358.06 137.5,356.5 Z"/></g>
<g><path style="opacity:0.994" fill="#a499e7" d="M 324.5,441.5 C 318.345,446.411 312.011,451.077 305.5,455.5C 304.833,455.833 304.167,456.167 303.5,456.5C 301.486,456.608 299.82,455.942 298.5,454.5C 288.063,438.626 278.396,422.292 269.5,405.5C 271.885,389.86 274.051,374.193 276,358.5C 278.737,357.39 281.571,357.223 284.5,358C 289.035,363.569 293.201,369.403 297,375.5C 308.661,396.486 317.828,418.486 324.5,441.5 Z"/></g>
<g><path style="opacity:0.998" fill="#e5a973" d="M 322.5,360.5 C 322.833,360.5 323.167,360.5 323.5,360.5C 360.833,361.833 398.167,361.833 435.5,360.5C 436.338,360.842 436.672,361.508 436.5,362.5C 398.152,363.161 360.152,362.494 322.5,360.5 Z"/></g>
<g><path style="opacity:0.953" fill="#f9d879" d="M 321.5,360.5 C 321.833,360.5 322.167,360.5 322.5,360.5C 360.152,362.494 398.152,363.161 436.5,362.5C 436.666,367.511 436.499,372.511 436,377.5C 434.989,378.337 433.822,378.67 432.5,378.5C 438.332,421.161 443.832,463.828 449,506.5C 446.478,509.326 444.478,508.993 443,505.5C 436.281,463.19 429.781,420.856 423.5,378.5C 408.937,379.025 394.437,379.691 380,380.5C 373.48,422.137 367.147,463.803 361,505.5C 360.072,508.035 358.238,509.035 355.5,508.5C 359.947,465.812 364.613,423.145 369.5,380.5C 356.808,380.268 344.141,380.602 331.5,381.5C 328.562,390.647 325.229,399.647 321.5,408.5C 319.069,404.889 317.403,400.889 316.5,396.5C 318.739,391.784 320.405,386.784 321.5,381.5C 313.435,383.587 310.935,380.92 314,373.5C 316.007,368.812 318.507,364.479 321.5,360.5 Z"/></g>
<g><path style="opacity:1" fill="#eaf3ed" d="M 136.5,364.5 C 139.01,366.896 138.677,369.229 135.5,371.5C 134.368,369.01 134.701,366.676 136.5,364.5 Z"/></g>
<g><path style="opacity:0.988" fill="#d99272" d="M 328.5,439.5 C 329.934,442.047 331.6,444.381 333.5,446.5C 326.036,451.403 318.369,456.07 310.5,460.5C 309.833,460.5 309.167,460.5 308.5,460.5C 307.89,458.566 306.89,456.899 305.5,455.5C 312.011,451.077 318.345,446.411 324.5,441.5C 326.062,441.267 327.395,440.6 328.5,439.5 Z"/></g>
<g><path style="opacity:0.99" fill="#68ae79" d="M 333.5,446.5 C 337.521,451.196 341.188,456.196 344.5,461.5C 339.306,467.714 338.14,474.714 341,482.5C 341.697,484.584 342.864,486.251 344.5,487.5C 335.323,493.591 325.657,498.924 315.5,503.5C 313.237,498.574 309.904,494.574 305.5,491.5C 305.5,490.833 305.833,490.5 306.5,490.5C 308.094,490.92 309.594,491.586 311,492.5C 316.076,489.544 319.909,485.377 322.5,480C 318.66,473.343 314.66,466.843 310.5,460.5C 318.369,456.07 326.036,451.403 333.5,446.5 Z"/></g>
<g><path style="opacity:0.891" fill="#f8d879" d="M 298.5,454.5 C 299.82,455.942 301.486,456.608 303.5,456.5C 298.196,473.911 292.196,491.078 285.5,508C 284.207,508.49 282.873,508.657 281.5,508.5C 285.98,490.063 291.647,472.063 298.5,454.5 Z"/></g>
<g><path style="opacity:1" fill="#d89172" d="M 224.5,455.5 C 233.133,457.114 241.8,458.447 250.5,459.5C 250.037,462.482 249.704,465.482 249.5,468.5C 241.424,466.814 233.424,464.814 225.5,462.5C 224.526,460.257 224.192,457.924 224.5,455.5 Z"/></g>
<g><path style="opacity:0.917" fill="#f7d679" d="M 250.5,459.5 C 251.959,459.433 253.292,459.766 254.5,460.5C 255.616,475.503 256.449,490.503 257,505.5C 255.688,507.658 254.022,507.991 252,506.5C 250.726,498.546 249.893,490.546 249.5,482.5C 249.5,477.833 249.5,473.167 249.5,468.5C 249.704,465.482 250.037,462.482 250.5,459.5 Z"/></g>
<g><path style="opacity:1" fill="#308c54" d="M 308.5,460.5 C 309.167,460.5 309.833,460.5 310.5,460.5C 314.66,466.843 318.66,473.343 322.5,480C 319.909,485.377 316.076,489.544 311,492.5C 309.594,491.586 308.094,490.92 306.5,490.5C 309.019,487.143 311.352,483.643 313.5,480C 311.723,475.613 309.557,471.446 307,467.5C 306.185,464.802 306.685,462.468 308.5,460.5 Z"/></g>
<g><path style="opacity:0.996" fill="#69ae79" d="M 223.5,455.5 C 223.833,455.5 224.167,455.5 224.5,455.5C 224.192,457.924 224.526,460.257 225.5,462.5C 233.424,464.814 241.424,466.814 249.5,468.5C 249.5,473.167 249.5,477.833 249.5,482.5C 248.566,483.568 248.232,484.901 248.5,486.5C 237.902,488.431 231.568,494.765 229.5,505.5C 228.041,505.567 226.708,505.234 225.5,504.5C 223.167,503.833 220.833,503.167 218.5,502.5C 217.167,502.5 215.833,502.5 214.5,502.5C 209.344,500.539 204.01,498.873 198.5,497.5C 200.569,492.616 200.902,487.616 199.5,482.5C 200.167,482.5 200.833,482.5 201.5,482.5C 201.297,484.39 201.963,485.89 203.5,487C 208.891,487.269 214.224,486.769 219.5,485.5C 221.743,475.62 223.076,465.62 223.5,455.5 Z"/></g>
<g><path style="opacity:1" fill="#2f8b54" d="M 344.5,461.5 C 348.987,467.13 352.987,473.13 356.5,479.5C 353.205,483.153 349.205,485.819 344.5,487.5C 342.864,486.251 341.697,484.584 341,482.5C 338.14,474.714 339.306,467.714 344.5,461.5 Z"/></g>
<g><path style="opacity:0.978" fill="#c3765a" d="M 191.5,464.5 C 192.706,470.529 194.039,476.529 195.5,482.5C 192.833,484.5 190.5,486.833 188.5,489.5C 186.777,491.78 186.111,494.447 186.5,497.5C 183.126,499.874 180.459,502.874 178.5,506.5C 170.999,507.931 163.666,509.597 156.5,511.5C 154.5,511.5 152.5,511.5 150.5,511.5C 150.338,509.473 150.505,507.473 151,505.5C 156.08,501.091 160.414,496.091 164,490.5C 165.684,484.857 165.851,479.19 164.5,473.5C 170.426,471.302 176.426,469.302 182.5,467.5C 185.579,466.696 188.579,465.696 191.5,464.5 Z"/></g>
<g><path style="opacity:0.988" fill="#d79170" d="M 199.5,467.5 C 205.167,467.5 210.833,467.5 216.5,467.5C 216.068,471.499 215.068,475.332 213.5,479C 209.569,480.807 205.569,481.974 201.5,482.5C 200.833,482.5 200.167,482.5 199.5,482.5C 198.833,482.5 198.167,482.5 197.5,482.5C 198.232,477.518 198.898,472.518 199.5,467.5 Z"/></g>
<g><path style="opacity:0.993" fill="#348953" d="M 195.5,482.5 C 196.167,482.5 196.833,482.5 197.5,482.5C 198.167,482.5 198.833,482.5 199.5,482.5C 200.902,487.616 200.569,492.616 198.5,497.5C 195.211,496.626 191.877,495.959 188.5,495.5C 188.5,493.5 188.5,491.5 188.5,489.5C 190.5,486.833 192.833,484.5 195.5,482.5 Z"/></g>
<g><path style="opacity:1" fill="#308b54" d="M 248.5,486.5 C 247.314,493.803 246.314,501.137 245.5,508.5C 239.993,508.265 234.66,507.265 229.5,505.5C 231.568,494.765 237.902,488.431 248.5,486.5 Z"/></g>
<g><path style="opacity:1" fill="#308c54" d="M 305.5,491.5 C 309.904,494.574 313.237,498.574 315.5,503.5C 305.422,511.311 301.255,508.644 303,495.5C 303.608,493.934 304.442,492.6 305.5,491.5 Z"/></g>
<g><path style="opacity:0.963" fill="#da9070" d="M 188.5,495.5 C 191.877,495.959 195.211,496.626 198.5,497.5C 204.01,498.873 209.344,500.539 214.5,502.5C 213.911,504.352 213.244,506.185 212.5,508C 206.833,508.167 201.167,508.333 195.5,508.5C 189.458,508.496 183.792,507.829 178.5,506.5C 180.459,502.874 183.126,499.874 186.5,497.5C 187.5,497.167 188.167,496.5 188.5,495.5 Z"/></g>
<g><path style="opacity:0.911" fill="#db946f" d="M 218.5,502.5 C 220.833,503.167 223.167,503.833 225.5,504.5C 225.5,505.833 225.5,507.167 225.5,508.5C 223.076,508.808 220.743,508.474 218.5,507.5C 217.948,505.997 217.948,504.331 218.5,502.5 Z"/></g>
</svg>
